<?xml version="1.0" encoding="UTF-8" standalone="no"?>
<!DOCTYPE svg PUBLIC "-//W3C//DTD SVG 1.1//EN" "http://www.w3.org/Graphics/SVG/1.1/DTD/svg11.dtd">
<svg width="100%" height="100%" viewBox="0 0 2481 3508" version="1.1" xmlns="http://www.w3.org/2000/svg" xmlns:xlink="http://www.w3.org/1999/xlink" xml:space="preserve" xmlns:serif="http://www.serif.com/" style="fill-rule:evenodd;clip-rule:evenodd;stroke-linejoin:round;stroke-miterlimit:2;">
    <g id="silhouette" transform="matrix(1.00949,0,0,1.00941,-13.8995,-10.2926)">
        <path d="M1092.41,241.078C1095.75,224.682 1092.35,166.59 1096.63,142.701C1099.57,126.35 1109.11,110.144 1118.13,97.739C1126.74,85.889 1138.8,76.77 1150.73,68.271C1163.85,58.926 1181.66,47.387 1196.84,41.669C1211.09,36.305 1228.82,33.963 1241.85,33.963C1253.21,33.963 1264.64,37.932 1275.03,41.669C1285.28,45.354 1295.08,50.435 1304.2,56.384C1314.68,63.217 1328.17,73.203 1337.9,82.67C1347.29,91.795 1356.41,102.237 1362.63,113.183C1368.79,124.009 1372.83,136.134 1375.25,148.349C1378,162.194 1378.49,181.244 1379.13,196.253C1379.74,210.29 1376.17,230.932 1379.13,238.403C1381.34,243.968 1391.76,238.048 1396.89,241.078C1402.02,244.107 1408.65,249.951 1409.93,256.581C1412.1,267.826 1413.35,293.828 1409.93,308.548C1406.79,322.098 1395.22,336.092 1389.44,344.902C1385.46,350.969 1379.72,358.247 1375.25,361.41C1371.75,363.887 1363.43,359.67 1362.63,363.883C1359.97,378.006 1359.85,425.316 1359.29,446.149C1358.91,460.388 1354.26,476.344 1359.29,488.88C1364.32,501.416 1376.7,513.891 1389.44,521.364C1404.35,530.109 1431.01,534.576 1448.76,541.348C1464.8,547.467 1481.4,552.858 1495.94,561.997C1513.41,572.985 1537.54,597.959 1553.6,607.279C1565.15,613.987 1579.52,613.82 1592.24,617.915C1605.53,622.195 1620.83,625.454 1633.34,632.959C1652.76,644.608 1689.42,669.135 1708.76,687.81C1725.59,704.054 1739.64,723.751 1749.38,745.008C1760.12,768.423 1767.36,808.276 1773.18,828.299C1776.77,840.619 1777.5,854.278 1784.32,865.143C1796.77,884.961 1832.44,921.766 1847.87,947.212C1861.07,968.972 1867.06,994.359 1876.92,1017.82C1888.62,1045.64 1902.37,1087.6 1918.07,1114.13C1932.04,1137.73 1955.9,1154.19 1971.13,1176.99C1986.78,1200.42 1997.49,1229.25 2011.95,1254.68C2027.92,1282.78 2053.1,1313 2066.99,1345.59C2083.49,1384.31 2097.85,1447.7 2110.99,1487.02C2121.63,1518.86 2140.04,1553.17 2145.85,1581.52C2150.91,1606.2 2141.95,1632.22 2145.85,1657.11C2150.6,1687.38 2170.97,1739.15 2174.36,1763.13C2176.17,1775.93 2168.1,1788.25 2166.21,1801.03C2164.04,1815.75 2166.31,1835.34 2161.31,1851.48C2155.46,1870.38 2139.49,1900.21 2131.1,1914.45C2126,1923.11 2117.35,1933.88 2110.99,1936.92C2105.41,1939.59 2095.94,1936.46 2092.93,1932.71C2089.92,1928.96 2092.25,1918.96 2092.93,1914.45C2093.41,1911.25 2096.98,1908.86 2096.98,1905.63C2096.98,1901.75 2092.93,1896.2 2092.93,1891.2C2092.93,1885.29 2095.41,1877.11 2096.98,1870.13C2099.09,1860.8 2104.19,1847.14 2105.55,1835.25C2106.98,1822.77 2105.55,1803.45 2105.55,1795.22C2105.55,1792.1 2106.49,1788.84 2105.55,1785.87C2103.45,1779.23 2097.46,1764.43 2092.93,1755.36C2088.76,1747.01 2082.69,1737.13 2078.37,1731.43C2075.28,1727.36 2069.97,1718.24 2066.99,1721.17C2064,1724.11 2064.53,1741.07 2060.46,1749.04C2056.39,1756.99 2048.55,1765 2042.54,1768.95C2037.4,1772.34 2029.55,1773.73 2024.45,1772.76C2019.35,1771.79 2012.62,1768.35 2011.95,1763.13C2011.15,1756.94 2016.72,1744.43 2019.63,1735.59C2022.48,1726.95 2028.18,1719.14 2029.42,1710.13C2031.06,1698.3 2025.59,1679.17 2029.42,1664.62C2033.25,1650.08 2050.22,1636.09 2052.41,1622.84C2054.52,1610.02 2048.64,1596.6 2042.54,1585.12C2035.25,1571.4 2020.83,1554.66 2008.65,1540.5C1992.94,1522.26 1966.92,1498.55 1948.28,1475.64C1928.74,1451.6 1906.08,1417.97 1891.38,1396.29C1880.22,1379.85 1870.34,1362.58 1860.04,1345.59C1849.37,1327.99 1836.04,1304.4 1827.37,1290.67C1821.4,1281.2 1814,1272.68 1808.05,1263.19C1799.02,1248.78 1786.24,1222.86 1773.18,1204.23C1760.12,1185.61 1743.3,1169.73 1729.7,1151.42C1713.83,1130.04 1694.02,1099.96 1677.96,1075.96C1662.8,1053.3 1643.76,1012.2 1633.34,1007.41C1622.93,1002.63 1620.94,1033.77 1615.46,1047.26C1606.6,1069.09 1592.92,1108.43 1580.16,1138.4C1566.3,1170.93 1541.83,1209.59 1532.32,1242.43C1523.65,1272.37 1523.08,1304.31 1523.08,1335.47C1523.08,1366.76 1530.78,1401.49 1532.32,1430.14C1533.7,1455.86 1528.98,1481.87 1532.32,1507.41C1535.87,1534.49 1550.05,1568.32 1553.6,1592.65C1556.52,1612.69 1550.33,1633.42 1553.6,1653.4C1558.02,1680.52 1572.85,1721.01 1580.16,1755.36C1588.17,1793 1597.14,1837.57 1601.66,1879.23C1607.54,1933.46 1615.46,2016.11 1615.46,2080.72C1615.46,2142.95 1605.53,2221.51 1601.66,2266.89C1599.2,2295.68 1593.35,2324.18 1592.24,2353.04C1590.67,2393.64 1590.14,2473.37 1592.24,2510.46C1593.49,2532.52 1600.03,2553.99 1604.84,2575.56C1611.69,2606.26 1625.73,2654.57 1633.34,2694.68C1641.43,2737.33 1652.39,2785.36 1653.38,2831.41C1654.42,2879.76 1642.91,2942.15 1639.57,2984.8C1636.9,3018.94 1637.36,3053.96 1633.34,3087.35C1629.38,3120.24 1616.94,3155.64 1615.46,3185.12C1614.13,3211.64 1619.41,3250.14 1624.48,3264.26C1626.97,3271.18 1641.04,3267.12 1645.86,3269.78C1649.6,3271.85 1650.04,3278.45 1653.38,3280.18C1656.73,3281.92 1661.77,3279.73 1665.93,3280.18C1670.44,3280.68 1678,3281.68 1680.41,3283.13C1682.05,3284.11 1678.6,3288.26 1680.41,3288.85C1683.34,3289.8 1693.27,3287.17 1697.99,3288.85C1702.63,3290.49 1708.26,3296.64 1708.76,3298.92C1709.27,3301.2 1698.98,3301.12 1701.04,3302.53C1703.09,3303.93 1717.52,3301.48 1721.09,3307.36C1724.87,3313.58 1727.68,3329.73 1723.74,3339.87C1719.49,3350.81 1706.62,3363.65 1695.56,3373.04C1683.36,3383.39 1660.91,3392.44 1650.54,3401.97C1642.42,3409.43 1640.72,3422.03 1633.34,3430.23C1625.19,3439.29 1612.92,3451.44 1601.66,3456.32C1590.63,3461.11 1577.61,3461.43 1565.73,3459.56C1553.01,3457.55 1534.95,3450.74 1525.31,3444.29C1517.23,3438.87 1509.02,3430.51 1507.93,3420.85C1506.33,3406.47 1515.27,3370.97 1515.67,3358.06C1515.82,3352.85 1511.15,3348.52 1510.29,3343.37C1508.37,3331.84 1507.05,3301.11 1504.14,3288.85C1502.44,3281.66 1493.19,3277.16 1492.83,3269.78C1492.21,3257.19 1499.25,3232.25 1500.47,3213.29C1501.74,3193.5 1504,3171.48 1500.47,3151.03C1495.39,3121.66 1480.75,3069.55 1470.04,3037.1C1460.89,3009.37 1443.84,2984.49 1436.21,2956.31C1427.63,2924.6 1420.13,2883.04 1418.56,2846.85C1416.99,2810.88 1425.39,2772.76 1426.75,2739.15C1428.03,2707.85 1429.56,2671.02 1426.75,2645.19C1424.48,2624.21 1417.86,2603.72 1409.93,2584.17C1401.99,2564.61 1386.46,2547.91 1379.13,2527.79C1369.63,2501.71 1358.88,2456.05 1352.93,2427.67C1348.08,2404.57 1345.91,2379.52 1343.4,2357.51C1341.06,2336.92 1341.66,2315.97 1337.9,2295.6C1333.27,2270.51 1322.99,2231.78 1315.62,2206.98C1309.53,2186.51 1300.41,2167.06 1293.66,2146.8C1286.89,2126.49 1280.35,2105.96 1275.03,2085.16C1269.04,2061.73 1262.68,2027.81 1257.7,2006.19C1253.8,1989.2 1247.86,1972.64 1245.19,1955.41C1242.02,1934.9 1241.9,1884.03 1238.66,1883.11C1235.41,1882.18 1230.12,1927.63 1225.71,1949.86C1221.28,1972.17 1217.24,1994.73 1212.06,2016.95C1206.02,2042.87 1195.87,2081.28 1189.45,2105.39C1184.43,2124.22 1179.03,2142.93 1173.53,2161.62C1167.08,2183.53 1156.8,2211.39 1150.73,2236.89C1142.96,2269.54 1133.74,2317.1 1126.89,2357.51C1119.82,2399.16 1117.03,2450.45 1108.32,2486.79C1100.94,2517.57 1085.55,2549.16 1074.62,2575.56C1064.85,2599.14 1045.69,2619.83 1042.72,2645.19C1038.76,2679.08 1048.33,2736.43 1050.84,2778.89C1053.22,2819.25 1061.82,2866.65 1057.78,2899.98C1054.37,2928.05 1036.02,2952.21 1026.57,2978.86C1015.49,3010.08 1000.13,3051.14 991.302,3087.35C982.605,3123.03 975.264,3165.68 973.617,3196.09C972.28,3220.75 981.416,3254.32 981.416,3269.78C981.416,3276.65 975.118,3282.14 973.617,3288.85C970.321,3303.56 962.567,3337.44 961.64,3358.06C960.818,3376.34 968.052,3398.21 968.052,3412.58C968.052,3423.36 968.447,3436.46 961.64,3444.29C954.832,3452.12 939.673,3458.06 927.207,3459.56C910.502,3461.57 876.801,3461.21 861.408,3456.32C849.578,3452.57 841.318,3439.29 834.846,3430.23C828.876,3421.87 830.487,3408.51 822.573,3401.97C811.05,3392.44 778.87,3382.8 765.709,3373.04C755.806,3365.69 747.29,3352.82 743.607,3343.37C740.336,3334.99 740.65,3321.86 743.607,3316.37C746.563,3310.88 758.389,3312.33 761.346,3310.45C762.862,3309.48 760.373,3306.56 761.346,3305.05C762.581,3303.13 765.729,3299.97 768.758,3298.92C772.661,3297.57 782.1,3298.61 784.768,3296.93C787.049,3295.49 783.135,3290.99 784.768,3288.85C786.521,3286.55 791.766,3283.13 795.285,3283.13C798.803,3283.13 802.289,3290.14 805.88,3288.85C809.471,3287.55 812.001,3277.59 816.829,3275.33C821.657,3273.08 829.37,3277.8 834.846,3275.33C840.463,3272.81 848.196,3267.05 850.528,3260.16C854.029,3249.82 854.962,3228.47 855.849,3213.29C856.708,3198.58 856.665,3183.8 855.849,3169.09C854.962,3153.1 852.818,3134.53 850.528,3117.34C848.026,3098.55 843.536,3076.76 840.833,3056.35C837.277,3029.52 832.235,2985.68 829.192,2956.31C826.564,2930.94 823.663,2905.56 822.573,2880.08C821.47,2854.28 820.658,2827.63 822.573,2801.51C824.619,2773.61 830.187,2737.15 834.846,2712.72C838.585,2693.11 845.732,2674.3 850.528,2654.93C856.187,2632.07 864.842,2602.41 868.8,2575.56C873.18,2545.85 874.3,2509.63 876.806,2476.65C879.566,2440.31 886.697,2388.8 885.363,2357.51C884.361,2334.01 871.878,2312.24 868.8,2288.93C864.808,2258.68 862.64,2213.22 861.408,2176.01C860.19,2139.24 861.408,2102.42 861.408,2065.65C861.408,2028.91 859.092,1992.09 861.408,1955.41C863.974,1914.77 868.376,1865.81 876.806,1821.77C886.439,1771.43 909.304,1705.8 919.207,1653.4C928.306,1605.26 931.782,1554.94 936.223,1507.41C940.55,1461.09 944.247,1407.9 945.852,1368.19C947.185,1335.2 948.959,1297.33 945.852,1269.15C943.203,1245.12 934.984,1218.7 927.207,1199.08C920.417,1181.95 906.704,1168.25 899.192,1151.42C889.457,1129.62 878.527,1092.26 868.8,1068.26C860.417,1047.57 848.537,1013.54 840.833,1007.41C833.128,1001.28 828.58,1023.4 822.573,1031.48C814.081,1042.9 800.359,1060.83 789.876,1075.96C777.525,1093.78 761.97,1119.65 748.464,1138.4C736.025,1155.67 721.366,1171.25 708.838,1188.45C694.722,1207.84 671.841,1241.24 663.77,1254.68C661.223,1258.93 663.001,1264.93 660.411,1269.15C651.105,1284.3 623.649,1318.97 607.936,1345.59C592.095,1372.42 583.971,1404.66 565.362,1430.14C543.239,1460.44 500.808,1495.27 475.195,1527.38C451.365,1557.26 418.816,1601.83 411.683,1622.84C407.725,1634.49 429.005,1641.57 432.396,1653.4C435.848,1665.45 430.639,1681.32 432.396,1695.12C434.218,1709.42 440.883,1727.26 443.328,1739.24C445.194,1748.37 448.892,1761.07 447.07,1766.95C445.441,1772.21 437.868,1775.11 432.396,1774.52C426.498,1773.89 417.118,1768.84 411.683,1763.13C406.08,1757.25 400.927,1745.85 398.776,1739.24C397.151,1734.24 403.322,1720.85 398.776,1723.48C394.132,1726.17 376.601,1747.78 370.91,1755.36C367.913,1759.35 366.023,1764.4 364.632,1768.95C363.281,1773.37 363.694,1778.63 362.563,1782.67C361.527,1786.36 358.68,1789.43 357.845,1793.18C356.56,1798.94 354.856,1809.18 354.856,1817.27C354.856,1825.82 356.56,1836.74 357.845,1844.44C358.921,1850.89 360.942,1857.15 362.563,1863.48C364.212,1869.92 366.349,1878.49 367.74,1883.11C368.576,1885.88 370.506,1888.33 370.91,1891.2C371.438,1894.95 371.956,1902.61 370.91,1905.63C370.116,1907.91 364.036,1907.11 364.632,1909.29C365.228,1911.47 373.256,1914.32 374.485,1918.68C375.78,1923.29 374.391,1933.46 372.404,1936.92C370.717,1939.86 364.99,1939.45 362.563,1939.45C360.78,1939.45 359.629,1936.92 357.845,1936.92C355.998,1936.92 353.162,1940.99 351.481,1939.45C347.398,1935.7 338.576,1923.32 333.349,1914.45C326.753,1903.25 316.917,1881.96 311.904,1872.29C309.133,1866.95 304.398,1862.35 303.27,1856.43C301.004,1844.55 300.486,1813.32 298.309,1801.03C297.143,1794.44 290.689,1789.34 290.212,1782.67C289.502,1772.72 291.422,1754.92 294.043,1741.33C297.018,1725.91 304.177,1705.61 308.059,1690.18C311.511,1676.46 316.092,1662.85 317.337,1648.76C318.883,1631.25 313.903,1602.31 317.337,1585.12C320.246,1570.56 333.213,1559.7 337.944,1545.63C347.469,1517.3 362.195,1451.56 374.485,1415.14C384.671,1384.95 398.841,1352.42 411.683,1327.09C423.036,1304.7 438.947,1284.91 451.535,1263.19C466.968,1236.56 487.415,1192.16 504.281,1167.32C517.751,1147.47 539.926,1134.41 552.729,1114.13C567.023,1091.49 578.628,1057.86 590.047,1031.48C600.88,1006.45 607.776,979.56 621.244,955.848C636.99,928.126 671.596,889.573 684.523,865.143C693.514,848.149 692.922,827.566 698.804,809.263C705.881,787.244 715.322,755.829 726.981,733.028C738.147,711.189 751.722,689.131 768.758,672.453C785.793,655.775 807.273,642.892 829.192,632.959C853.161,622.097 891.403,617.131 912.574,607.279C929.189,599.547 940.754,583.679 956.219,573.847C972.36,563.584 991.888,553.715 1009.43,545.704C1026.31,537.989 1044.96,534.219 1061.44,525.779C1077.93,517.339 1099.7,508.012 1108.32,495.063C1116.94,482.113 1113.19,463.827 1113.19,448.083C1113.19,431.152 1109.44,407.925 1108.32,393.479C1107.5,382.804 1109.13,367.264 1106.48,361.41C1104.5,357.041 1095.82,361.729 1092.41,358.353C1086.01,352.007 1073.21,335.572 1068.05,323.333C1063,311.361 1061.91,296.743 1061.44,284.918C1061.02,274.007 1062.74,259.69 1065.27,252.383C1067.02,247.337 1072.09,242.962 1076.62,241.078C1081.14,239.194 1091.37,246.238 1092.41,241.078Z"/>
    </g>
    <g id="forearms">
        <g transform="matrix(0.979531,0,0,1,43.9232,0)">
            <path d="M1994.9,1519.84C1980.42,1502.06 1950.64,1462.25 1921.28,1421.96C1889.64,1378.55 1858.5,1334.6 1847.51,1317.07C1843.92,1311.35 1864.65,1323.06 1867.77,1317.07C1871.15,1310.59 1854.84,1279.17 1867.77,1278.17C1881.71,1277.1 1935.86,1321.03 1951.39,1310.61C1966.92,1300.19 1965.97,1245.32 1960.95,1215.68C1955.93,1186.04 1917.89,1141.88 1921.28,1132.78C1922.64,1129.11 1956.19,1161.63 1973.54,1182.72C1983.26,1194.52 1990.05,1216.7 1994.9,1227.04C2010.13,1259.47 2042.14,1290.27 2057.86,1326.1C2079.26,1374.9 2108.75,1477.91 2123.35,1519.84C2130.13,1539.32 2148.68,1573.07 2145.44,1577.65C2142.2,1582.23 2109.97,1543.41 2103.9,1547.32C2097.83,1551.23 2121.66,1602.55 2109.01,1601.11C2096.36,1599.67 2047.03,1552.22 2028.01,1538.68C2017.66,1531.31 2002.92,1529.68 1994.9,1519.84Z"/>
        </g>
        <g transform="matrix(-0.965294,0,0,1,2387.39,11.5253)">
            <path d="M1994.9,1519.84C1964.82,1482.9 1868.7,1350.86 1847.51,1317.07C1843.92,1311.35 1864.65,1323.06 1867.77,1317.07C1871.15,1310.59 1854.84,1279.17 1867.77,1278.17C1881.71,1277.1 1935.86,1321.03 1951.39,1310.61C1966.92,1300.19 1965.97,1245.32 1960.95,1215.68C1955.93,1186.04 1917.89,1141.88 1921.28,1132.78C1922.64,1129.11 1956.19,1161.63 1973.54,1182.72C1983.26,1194.52 1990.05,1216.7 1994.9,1227.04C2010.13,1259.47 2042.14,1290.27 2057.86,1326.1C2079.26,1374.9 2108.75,1477.91 2123.35,1519.84C2130.13,1539.32 2148.68,1573.07 2145.44,1577.65C2142.2,1582.23 2109.97,1543.41 2103.9,1547.32C2097.83,1551.23 2121.66,1602.55 2109.01,1601.11C2096.36,1599.67 2047.03,1552.22 2028.01,1538.68C2017.66,1531.31 2002.92,1529.68 1994.9,1519.84Z"/>
        </g>
    </g>
    <g id="triceps">
        <path d="M1892.24,1268.53C1886.88,1268.96 1877.37,1267.93 1865.8,1268.53C1857.87,1268.94 1847.75,1272.4 1842.18,1268.53C1823.53,1255.56 1801.21,1216.42 1780.29,1190.72C1758.96,1164.52 1725.61,1125.59 1714.2,1111.3C1712.8,1109.55 1709.75,1104.26 1711.86,1105.01C1715.47,1106.28 1727.61,1114.78 1735.87,1118.97C1746.4,1124.31 1762.96,1132.73 1775.08,1137.05C1785.88,1140.9 1800.67,1140.36 1808.58,1144.88C1815.48,1148.82 1818.21,1157.53 1822.57,1164.17C1832.1,1178.71 1853.49,1215.42 1865.8,1232.08C1874.57,1243.96 1891.98,1258.05 1896.39,1264.13C1897.57,1265.76 1894.25,1268.36 1892.24,1268.53Z"/>
        <g transform="matrix(0.953796,0,0,0.969847,81.6008,32.106)">
            <path d="M1651.68,845.213C1665.89,842.517 1710.57,890.851 1729.18,907.082C1741.56,917.878 1754.34,932.432 1763.34,942.596C1770.47,950.652 1780.94,957.542 1783.15,968.07C1788.33,992.813 1790.05,1062.72 1794.44,1091.05C1796.96,1107.3 1815.58,1132.2 1809.49,1138.04C1803.39,1143.88 1774.18,1132.88 1757.88,1126.09C1739.08,1118.26 1713.41,1107.58 1696.7,1091.05C1679,1073.55 1661.49,1036.63 1651.68,1021.08C1646.86,1013.43 1638.58,1006.74 1637.86,997.724C1636.57,981.42 1641.69,948.06 1643.94,923.257C1646.24,897.838 1637.48,847.909 1651.68,845.213Z"/>
        </g>
        <path d="M1790.54,968.054C1795.58,971.011 1803.99,969.133 1811.87,970.369C1823.6,972.209 1832.52,977.209 1840.33,984.991C1856.6,1001.2 1873.35,1043.9 1885.26,1065.29C1894.16,1081.29 1909.58,1113.37 1911.79,1113.37C1914,1113.37 1904.65,1080.74 1898.5,1065.29C1891.62,1048.03 1878.85,1028.74 1870.51,1009.76C1861.76,989.872 1857.59,965.579 1846.02,945.957C1833.34,924.46 1807.24,895.436 1794.44,880.779C1786.98,872.247 1779.46,862.543 1769.2,858.016C1758.93,853.488 1743.99,854.348 1732.84,853.614C1722.69,852.946 1710.79,853.113 1702.33,853.614C1695.51,854.017 1683.57,854.093 1682.07,856.617C1680.58,859.142 1689.49,864.82 1693.36,868.758C1700.32,875.828 1713.73,888.889 1723.83,899.039C1735.79,911.055 1753.99,929.354 1765.11,940.857C1773.73,949.78 1780.37,962.091 1790.54,968.054Z"/>
        <g transform="matrix(-0.955532,0,0,1,2389.46,1.45442)">
            <path d="M1892.24,1268.53C1886.88,1268.96 1877.37,1267.93 1865.8,1268.53C1857.87,1268.94 1847.75,1272.4 1842.18,1268.53C1823.53,1255.56 1801.21,1216.42 1780.29,1190.72C1758.96,1164.52 1725.61,1125.59 1714.2,1111.3C1712.8,1109.55 1709.75,1104.26 1711.86,1105.01C1715.47,1106.28 1727.61,1114.78 1735.87,1118.97C1746.4,1124.31 1762.96,1132.73 1775.08,1137.05C1785.88,1140.9 1800.67,1140.36 1808.58,1144.88C1815.48,1148.82 1818.21,1157.53 1822.57,1164.17C1832.1,1178.71 1853.49,1215.42 1865.8,1232.08C1874.57,1243.96 1891.98,1258.05 1896.39,1264.13C1897.57,1265.76 1894.25,1268.36 1892.24,1268.53Z"/>
        </g>
        <g transform="matrix(-0.900098,0,0,0.947482,2295.94,56.5466)">
            <path d="M1651.68,845.213C1665.89,842.517 1710.57,890.851 1729.18,907.082C1741.56,917.878 1754.34,932.432 1763.34,942.596C1770.47,950.652 1780.94,957.542 1783.15,968.07C1788.33,992.813 1790.05,1062.72 1794.44,1091.05C1796.96,1107.3 1815.58,1132.2 1809.49,1138.04C1803.39,1143.88 1774.18,1132.88 1757.88,1126.09C1739.08,1118.26 1713.41,1107.58 1696.7,1091.05C1679,1073.55 1661.49,1036.63 1651.68,1021.08C1646.86,1013.43 1638.58,1006.74 1637.86,997.724C1636.57,981.42 1641.69,948.06 1643.94,923.257C1646.24,897.838 1637.48,847.909 1651.68,845.213Z"/>
        </g>
        <g transform="matrix(-1,0,0,1,2473.8,1.45442)">
            <path d="M1790.54,968.054C1795.58,971.011 1803.99,969.133 1811.87,970.369C1823.6,972.209 1832.52,977.209 1840.33,984.991C1856.6,1001.2 1873.35,1043.9 1885.26,1065.29C1894.16,1081.29 1909.58,1113.37 1911.79,1113.37C1914,1113.37 1904.65,1080.74 1898.5,1065.29C1891.62,1048.03 1878.85,1028.74 1870.51,1009.76C1861.76,989.872 1857.59,965.579 1846.02,945.957C1833.34,924.46 1807.24,895.436 1794.44,880.779C1786.98,872.247 1779.46,862.543 1769.2,858.016C1758.93,853.488 1743.99,854.348 1732.84,853.614C1722.69,852.946 1710.79,853.113 1702.33,853.614C1695.51,854.017 1683.57,854.093 1682.07,856.617C1680.58,859.142 1689.49,864.82 1693.36,868.758C1700.32,875.828 1713.73,888.889 1723.83,899.039C1735.79,911.055 1753.99,929.354 1765.11,940.857C1773.73,949.78 1780.37,962.091 1790.54,968.054Z"/>
        </g>
    </g>
    <g id="adductors">
        <g transform="matrix(1,0,0,1,7.78269,5.25532)">
            <path d="M1205.18,1913.27C1199.84,1904.24 1178.4,1904.69 1170.77,1913.27C1162.74,1922.29 1158.43,1952.12 1157.01,1967.39C1155.84,1979.96 1161.38,1992.3 1162.25,2004.89C1163.84,2028.07 1162.14,2101.9 1166.58,2106.51C1171.03,2111.12 1182.87,2055.74 1188.92,2032.55C1194.52,2011.06 1200.13,1987.27 1202.84,1967.39C1205.28,1949.5 1210.53,1922.29 1205.18,1913.27Z"/>
        </g>
        <g transform="matrix(-1,0,0,1,2461.92,6.15915)">
            <path d="M1205.18,1913.27C1199.84,1904.24 1178.4,1904.69 1170.77,1913.27C1162.74,1922.29 1158.43,1952.12 1157.01,1967.39C1155.84,1979.96 1161.38,1992.3 1162.25,2004.89C1163.84,2028.07 1162.14,2101.9 1166.58,2106.51C1171.03,2111.12 1182.87,2055.74 1188.92,2032.55C1194.52,2011.06 1200.13,1987.27 1202.84,1967.39C1205.28,1949.5 1210.53,1922.29 1205.18,1913.27Z"/>
        </g>
    </g>
    <g id="abductors">
        <g transform="matrix(0.943987,0,0,0.979635,85.3263,28.8661)">
            <path d="M1520.79,1417.19C1525.71,1420.65 1522.2,1384.6 1520.79,1351.4C1519.4,1318.53 1524.64,1286.53 1520.79,1280.17C1516.73,1273.46 1510.25,1294.53 1501.64,1312.71C1493.85,1329.16 1483.77,1342.07 1482.02,1351.4C1480.4,1360.02 1487.43,1367.55 1491.55,1376.24C1495.17,1383.9 1495.63,1392.9 1498.66,1398.04C1503.61,1406.45 1508.35,1408.46 1520.79,1417.19Z"/>
        </g>
        <g transform="matrix(-0.961484,0,0,0.948127,2413.41,72.3106)">
            <path d="M1520.79,1417.19C1525.71,1420.65 1522.2,1384.6 1520.79,1351.4C1519.4,1318.53 1524.64,1286.53 1520.79,1280.17C1516.73,1273.46 1510.25,1294.53 1501.64,1312.71C1493.85,1329.16 1483.77,1342.07 1482.02,1351.4C1480.4,1360.02 1487.43,1367.55 1491.55,1376.24C1495.17,1383.9 1495.63,1392.9 1498.66,1398.04C1503.61,1406.45 1508.35,1408.46 1520.79,1417.19Z"/>
        </g>
    </g>
    <g id="middle_back">
        <g transform="matrix(-0.953533,0,0,0.972992,2406.67,40.2066)">
            <path d="M1342.48,945.828C1351.02,943.839 1360.74,947.917 1371.94,948.96C1393.84,951.002 1419.68,952.48 1441.55,951.583C1476.35,950.156 1519.49,943.772 1551.25,937.266C1578.86,931.611 1618.62,902.32 1632.1,912.548C1645.57,922.776 1638.61,970.688 1632.1,998.636C1630.67,1004.76 1626.33,1010.08 1624.08,1017.3C1612.27,1055.28 1593.16,1107.21 1578.48,1142.71C1570.05,1163.09 1555.39,1186.81 1545.84,1206.7C1537.95,1223.11 1535.28,1235.72 1527.29,1252.07C1509.16,1289.12 1481.73,1338.36 1469.73,1364.99C1463.02,1379.9 1469.86,1404.43 1455.3,1411.86C1439.98,1419.67 1391.12,1434 1377.82,1411.86C1361.01,1383.87 1335.23,1318.9 1310.51,1252.07C1288.18,1191.71 1266.09,1129.84 1263.3,1092.3C1261.16,1063.68 1277.44,1060.66 1293.78,1032.28C1310.47,1003.28 1329.41,948.87 1342.48,945.828Z"/>
        </g>
        <g transform="matrix(0.947209,0,0,0.968667,73.2709,38.5897)">
            <path d="M1342.48,945.828C1351.02,943.839 1360.74,947.917 1371.94,948.96C1393.84,951.002 1419.68,952.48 1441.55,951.583C1476.35,950.156 1519.49,943.772 1551.25,937.266C1578.86,931.611 1618.62,902.32 1632.1,912.548C1645.57,922.776 1638.61,970.688 1632.1,998.636C1630.67,1004.76 1626.33,1010.08 1624.08,1017.3C1612.27,1055.28 1593.16,1107.21 1578.48,1142.71C1570.05,1163.09 1555.39,1186.81 1545.84,1206.7C1537.95,1223.11 1535.28,1235.72 1527.29,1252.07C1509.16,1289.12 1481.73,1338.36 1469.73,1364.99C1463.02,1379.9 1469.86,1404.43 1455.3,1411.86C1439.98,1419.67 1391.12,1434 1377.82,1411.86C1361.01,1383.87 1335.23,1318.9 1310.51,1252.07C1288.18,1191.71 1266.09,1129.84 1263.3,1092.3C1261.16,1063.68 1277.44,1060.66 1293.78,1032.28C1310.47,1003.28 1329.41,948.87 1342.48,945.828Z"/>
        </g>
        <g transform="matrix(0.973457,0,0,0.959703,43.6298,38.2984)">
            <path d="M1597.71,816.801C1611.84,820.188 1631.13,835.815 1637.82,850.759C1644.5,865.703 1646.79,900.698 1637.82,906.467C1630.66,911.065 1621.39,907.618 1613.59,910.019C1603.82,913.028 1590.91,920.437 1579.14,924.526C1567.3,928.641 1555.07,932.995 1542.51,934.707C1512.66,938.78 1419.24,955.294 1400.01,948.964C1392.02,946.338 1421.41,902.98 1434,888.011C1444.85,875.108 1460.36,866.497 1475.53,859.154C1495.37,849.558 1532.63,837.496 1552.99,830.437C1567.72,825.333 1583.57,813.414 1597.71,816.801Z"/>
        </g>
        <g transform="matrix(-1,0,0,1,2479.77,5.34822)">
            <path d="M1597.71,816.801C1611.84,820.188 1631.13,835.815 1637.82,850.759C1644.5,865.703 1646.79,900.698 1637.82,906.467C1630.66,911.065 1621.39,907.618 1613.59,910.019C1603.82,913.028 1590.91,920.437 1579.14,924.526C1567.3,928.641 1555.07,932.995 1542.51,934.707C1512.66,938.78 1419.24,955.294 1400.01,948.964C1392.02,946.338 1421.41,902.98 1434,888.011C1444.85,875.108 1460.36,866.497 1475.53,859.154C1495.37,849.558 1532.63,837.496 1552.99,830.437C1567.72,825.333 1583.57,813.414 1597.71,816.801Z"/>
        </g>
    </g>
    <g id="calves" transform="matrix(1,0,0,0.984174,0,47.2935)">
        <path d="M960.834,2927.23C962.951,2949.9 994.002,2977.33 1005.09,2986.31C1011.01,2991.11 1022.27,2986.81 1027.36,2981.14C1033.9,2973.85 1039.94,2954.88 1044.29,2942.59C1048.33,2931.15 1052.86,2919.48 1053.43,2907.37C1054.3,2888.99 1051.01,2853.01 1049.48,2832.32C1048.27,2815.92 1045.75,2799.63 1044.29,2783.25C1042.72,2765.6 1041.2,2745.38 1040.05,2726.41C1038.83,2706.29 1035.39,2680.99 1036.96,2662.51C1038.33,2646.38 1046.63,2631.52 1049.48,2615.59C1052.8,2597.03 1055.64,2568.77 1056.87,2551.2C1057.83,2537.55 1061.69,2522.97 1056.87,2510.16C1053.62,2501.51 1034.6,2487.12 1027.36,2472.24C1018.55,2454.1 1014.3,2441.12 1013.56,2435.97C1011.59,2422.4 983.357,2488.31 974.57,2510.16C967.287,2528.28 962.163,2568.47 960.834,2567.1C959.505,2565.72 966.599,2522.68 966.599,2501.89C966.599,2481.96 962.656,2455.54 960.834,2442.37C959.914,2435.72 959.968,2420.4 955.669,2422.91C951.37,2425.42 943.86,2447.33 935.038,2457.42C925.309,2468.55 906.73,2480.87 897.296,2489.66C890.502,2495.99 881.243,2501.31 878.433,2510.16C873.351,2526.17 872.2,2560.8 866.804,2585.7C861.3,2611.09 851.77,2636.71 845.409,2662.51C838.803,2689.32 830.693,2719.63 827.169,2746.5C823.819,2772.05 822.066,2798.08 824.266,2823.75C826.633,2851.37 834.729,2889.79 841.369,2912.22C846.235,2928.66 856.288,2947.75 864.107,2958.34C870.008,2966.33 880.187,2973.7 888.286,2975.76C896.343,2977.81 906.015,2975.62 912.702,2970.69C923.26,2962.89 944.82,2940.57 951.637,2928.99C956.984,2919.91 960.875,2839.06 960.834,2840.62C960.812,2841.47 958.564,2902.91 960.834,2927.23Z"/>
        <g transform="matrix(-1,0,0,1,2471.04,-2.58595)">
            <path d="M960.834,2927.23C962.951,2949.9 994.002,2977.33 1005.09,2986.31C1011.01,2991.11 1022.27,2986.81 1027.36,2981.14C1033.9,2973.85 1039.94,2954.88 1044.29,2942.59C1048.33,2931.15 1052.86,2919.48 1053.43,2907.37C1054.3,2888.99 1051.01,2853.01 1049.48,2832.32C1048.27,2815.92 1045.75,2799.63 1044.29,2783.25C1042.72,2765.6 1041.2,2745.38 1040.05,2726.41C1038.83,2706.29 1035.39,2680.99 1036.96,2662.51C1038.33,2646.38 1046.63,2631.52 1049.48,2615.59C1052.8,2597.03 1055.64,2568.77 1056.87,2551.2C1057.83,2537.55 1061.69,2522.97 1056.87,2510.16C1053.62,2501.51 1034.6,2487.12 1027.36,2472.24C1018.55,2454.1 1014.3,2441.12 1013.56,2435.97C1011.59,2422.4 983.357,2488.31 974.57,2510.16C967.287,2528.28 962.163,2568.47 960.834,2567.1C959.505,2565.72 966.599,2522.68 966.599,2501.89C966.599,2481.96 962.656,2455.54 960.834,2442.37C959.914,2435.72 959.968,2420.4 955.669,2422.91C951.37,2425.42 943.86,2447.33 935.038,2457.42C925.309,2468.55 906.73,2480.87 897.296,2489.66C890.502,2495.99 881.243,2501.31 878.433,2510.16C873.351,2526.17 872.2,2560.8 866.804,2585.7C861.3,2611.09 851.77,2636.71 845.409,2662.51C838.803,2689.32 830.693,2719.63 827.169,2746.5C823.819,2772.05 822.066,2798.08 824.266,2823.75C826.633,2851.37 834.729,2889.79 841.369,2912.22C846.235,2928.66 856.288,2947.75 864.107,2958.34C870.008,2966.33 880.187,2973.7 888.286,2975.76C896.343,2977.81 906.015,2975.62 912.702,2970.69C923.26,2962.89 944.82,2940.57 951.637,2928.99C956.984,2919.91 960.875,2839.06 960.834,2840.62C960.812,2841.47 958.564,2902.91 960.834,2927.23Z"/>
        </g>
    </g>
    <g id="glutes" transform="matrix(0.985974,0,0,0.985974,18.9296,21.1377)">
        <g transform="matrix(0.981195,0,0,1,29.7084,0)">
            <path d="M1530.09,1706.58C1533.04,1691.1 1545.51,1675.97 1547.8,1659.3C1550.76,1637.81 1551.33,1601.18 1547.8,1577.65C1544.69,1556.82 1529.95,1538.9 1526.67,1518.1C1523.15,1495.74 1529.07,1459.67 1526.67,1443.48C1525.37,1434.67 1521.05,1422.64 1512.3,1420.96C1500.86,1418.77 1475.79,1425.74 1458,1430.32C1433.96,1436.52 1391.45,1443.49 1368.07,1458.12C1345.94,1471.97 1332.84,1496.83 1317.7,1518.1C1301.71,1540.55 1284.19,1566.27 1272.17,1592.85C1259.64,1620.54 1246.12,1652.41 1242.54,1684.23C1237.61,1728.18 1236.08,1822.33 1242.54,1856.55C1245.7,1873.22 1266.67,1880.98 1281.35,1889.5C1296.18,1898.12 1314.3,1903.56 1331.53,1908.26C1350.71,1913.48 1376.44,1917.56 1396.4,1920.84C1414.62,1923.84 1433.05,1925.38 1451.33,1927.95C1471.89,1930.84 1503.72,1935.17 1519.8,1938.18C1529.33,1939.97 1539.31,1943.87 1547.8,1946.05C1555.4,1947.99 1565.71,1957.24 1570.75,1951.23C1576.03,1944.93 1581.2,1922.77 1579.49,1908.26C1577.15,1888.32 1564.71,1857.04 1556.67,1831.63C1548.43,1805.62 1534.52,1773.02 1530.09,1752.18C1526.93,1737.31 1527.24,1721.51 1530.09,1706.58Z"/>
        </g>
        <g transform="matrix(-0.981428,0,0,1,2440.8,1.32312)">
            <path d="M1530.09,1706.58C1533.04,1691.1 1545.51,1675.97 1547.8,1659.3C1550.76,1637.81 1551.33,1601.18 1547.8,1577.65C1544.69,1556.82 1529.95,1538.9 1526.67,1518.1C1523.15,1495.74 1529.07,1459.67 1526.67,1443.48C1525.37,1434.67 1521.05,1422.64 1512.3,1420.96C1500.86,1418.77 1475.79,1425.74 1458,1430.32C1433.96,1436.52 1391.45,1443.49 1368.07,1458.12C1345.94,1471.97 1332.84,1496.83 1317.7,1518.1C1301.71,1540.55 1284.19,1566.27 1272.17,1592.85C1259.64,1620.54 1246.12,1652.41 1242.54,1684.23C1237.61,1728.18 1236.08,1822.33 1242.54,1856.55C1245.7,1873.22 1266.67,1880.98 1281.35,1889.5C1296.18,1898.12 1314.3,1903.56 1331.53,1908.26C1350.71,1913.48 1376.44,1917.56 1396.4,1920.84C1414.62,1923.84 1433.05,1925.38 1451.33,1927.95C1471.89,1930.84 1503.72,1935.17 1519.8,1938.18C1529.33,1939.97 1539.31,1943.87 1547.8,1946.05C1555.4,1947.99 1565.71,1957.24 1570.75,1951.23C1576.03,1944.93 1581.2,1922.77 1579.49,1908.26C1577.15,1888.32 1564.71,1857.04 1556.67,1831.63C1548.43,1805.62 1534.52,1773.02 1530.09,1752.18C1526.93,1737.31 1527.24,1721.51 1530.09,1706.58Z"/>
        </g>
    </g>
    <g id="shoulders" transform="matrix(1,0,0,1,0.636527,-2.0178)">
        <g transform="matrix(-1,0,0,1,2476.39,-3.75066)">
            <path d="M1490.26,728.746C1481.03,713.965 1493.26,692.176 1503.72,678.242C1517.44,659.961 1549.95,626.213 1572.59,619.057C1594.5,612.134 1619.04,624.997 1639.57,635.31C1661.69,646.421 1687.75,667.696 1705.31,685.721C1721.59,702.44 1735.4,722.145 1744.89,743.464C1757.85,772.572 1780.15,842.285 1783.06,860.373C1784.25,867.725 1769.74,852.916 1762.35,851.992C1751.18,850.595 1731.4,851.992 1716,851.992C1700.64,851.992 1684.35,857.272 1669.93,851.992C1647.49,843.776 1609.23,821.806 1581.37,802.694C1551.42,782.153 1503.2,749.488 1490.26,728.746Z"/>
        </g>
        <path d="M1490.26,728.746C1481.03,713.965 1493.26,692.176 1503.72,678.242C1517.44,659.961 1549.95,626.213 1572.59,619.057C1594.5,612.134 1619.04,624.997 1639.57,635.31C1661.69,646.421 1687.75,667.696 1705.31,685.721C1721.59,702.44 1735.4,722.145 1744.89,743.464C1757.85,772.572 1780.15,842.285 1783.06,860.373C1784.25,867.725 1769.74,852.916 1762.35,851.992C1751.18,850.595 1731.4,851.992 1716,851.992C1700.64,851.992 1684.35,857.272 1669.93,851.992C1647.49,843.776 1609.23,821.806 1581.37,802.694C1551.42,782.153 1503.2,749.488 1490.26,728.746Z"/>
        <g transform="matrix(0.946261,0,0,0.971725,79.6143,26.1892)">
            <path d="M1390.42,938.652C1399.96,933.832 1416.79,891.107 1438.84,877.172C1452.5,868.542 1471.12,851.111 1496.75,841.049C1534.28,826.312 1578.38,822.788 1586.96,810.93C1592.75,802.913 1571.82,798.115 1563.74,792.389C1553.37,785.043 1536.47,777.051 1524.75,766.857C1510.19,754.194 1488.13,727.741 1476.36,716.409C1469.57,709.866 1461.84,698.867 1454.16,698.867C1446.49,698.867 1436.57,709.081 1430.31,716.409C1424.06,723.737 1420.13,734.424 1416.64,742.832C1413.43,750.56 1412.17,758.976 1409.36,766.857C1403.52,783.227 1386.24,817.842 1381.62,841.049C1379.64,850.954 1379.19,862.215 1379.41,873.064C1379.67,885.505 1380.83,897.404 1381.62,906.094C1382.63,917.291 1380.89,943.473 1390.42,938.652Z"/>
        </g>
        <g transform="matrix(-0.943702,0,0,0.941122,2395.31,54.5595)">
            <path d="M1390.42,938.652C1399.96,933.832 1416.79,891.107 1438.84,877.172C1452.5,868.542 1471.12,851.111 1496.75,841.049C1534.28,826.312 1578.38,822.788 1586.96,810.93C1592.75,802.913 1571.82,798.115 1563.74,792.389C1553.37,785.043 1536.47,777.051 1524.75,766.857C1510.19,754.194 1488.13,727.741 1476.36,716.409C1469.57,709.866 1461.84,698.867 1454.16,698.867C1446.49,698.867 1436.57,709.081 1430.31,716.409C1424.06,723.737 1420.13,734.424 1416.64,742.832C1413.43,750.56 1412.17,758.976 1409.36,766.857C1403.52,783.227 1386.24,817.842 1381.62,841.049C1379.64,850.954 1379.19,862.215 1379.41,873.064C1379.67,885.505 1380.83,897.404 1381.62,906.094C1382.63,917.291 1380.89,943.473 1390.42,938.652Z"/>
        </g>
    </g>
    <g id="hamstrings" transform="matrix(0.995569,0,0,0.995569,3.90202,8.46149)">
        <g transform="matrix(0.978064,0,0,0.990576,25.635,17.9973)">
            <path d="M899.122,1970.75C890.388,1998.45 890.922,2054.77 889.624,2096.92C888.041,2148.35 889.624,2230.3 889.624,2279.31C889.624,2316.54 891.681,2354.49 889.624,2390.99C887.598,2426.94 866.403,2494.08 877.284,2498.3C888.164,2502.53 934.882,2448.2 954.906,2416.34C975.695,2383.27 992.819,2324.66 1002.02,2299.85C1005.88,2289.43 1008.83,2256.47 1010.12,2267.51C1012.38,2286.92 1012.54,2383.58 1015.61,2416.34C1017.15,2432.76 1021.21,2449.33 1028.54,2464.11C1035.92,2478.98 1050.73,2498.68 1059.92,2505.59C1066.24,2510.35 1080.14,2512.68 1083.64,2505.59C1091,2490.72 1098.33,2444.83 1104.03,2416.34C1109.45,2389.26 1112.75,2361.79 1117.87,2334.66C1123.35,2305.62 1130.31,2271.39 1136.91,2242.1C1143.19,2214.23 1152.88,2187.09 1157.49,2158.9C1162.22,2130.01 1165.92,2098.92 1165.26,2068.78C1164.58,2037.42 1153.39,1997.27 1153.39,1970.75C1153.39,1950.02 1177.26,1910.25 1165.26,1909.69C1161.89,1909.53 1139.8,1915.14 1127.02,1917.6C1113.41,1920.22 1098.19,1923.33 1083.64,1925.39C1064.16,1928.14 1034.08,1928.24 1010.12,1934.13C979.362,1941.7 909.271,1938.56 899.122,1970.75Z"/>
        </g>
        <g transform="matrix(-1,0,0,1,2470.37,0.417982)">
            <path d="M899.122,1970.75C890.388,1998.45 890.922,2054.77 889.624,2096.92C888.041,2148.35 889.624,2230.3 889.624,2279.31C889.624,2316.54 891.297,2355.74 889.624,2390.99C888.039,2424.39 868.709,2486.57 879.59,2490.8C883.429,2492.29 889.364,2487.19 899.122,2478.62C917.018,2462.9 940.036,2435.57 952.367,2416.34C972.772,2384.52 992.395,2324.66 1002.02,2299.85C1006.04,2289.49 1008.83,2256.47 1010.12,2267.51C1012.38,2286.92 1012.54,2383.58 1015.61,2416.34C1017.15,2432.76 1021.21,2449.33 1028.54,2464.11C1035.92,2478.98 1050.73,2498.68 1059.92,2505.59C1066.24,2510.35 1080.14,2512.68 1083.64,2505.59C1091,2490.72 1098.33,2444.83 1104.03,2416.34C1109.45,2389.26 1112.75,2361.79 1117.87,2334.66C1123.35,2305.62 1130.31,2271.39 1136.91,2242.1C1143.19,2214.23 1152.88,2187.09 1157.49,2158.9C1162.22,2130.01 1165.92,2098.92 1165.26,2068.78C1164.58,2037.42 1153.39,1997.27 1153.39,1970.75C1153.39,1950.02 1177.26,1910.25 1165.26,1909.69C1161.89,1909.53 1139.8,1915.14 1127.02,1917.6C1113.41,1920.22 1098.19,1923.33 1083.64,1925.39C1064.16,1928.14 1034.08,1928.24 1010.12,1934.13C979.362,1941.7 909.271,1938.56 899.122,1970.75Z"/>
        </g>
    </g>
    <g id="quadriceps">
        <g transform="matrix(1,0,0,1,6.01162,-0.339134)">
            <path d="M1576.32,1957.95C1576.96,1944.92 1581.13,1909.76 1585.52,1919.9C1589.9,1930.03 1599.78,1986.17 1602.63,2018.76C1605.44,2050.86 1603.41,2083.21 1602.63,2115.42C1601.67,2155.26 1599.69,2221.32 1596.84,2257.78C1594.83,2283.45 1588.57,2339.41 1585.52,2334.18C1582.47,2328.96 1579.37,2253.36 1578.55,2226.44C1577.99,2208.51 1580.32,2190.59 1580.55,2172.65C1580.88,2146.93 1580.55,2097.28 1580.55,2072.09C1580.55,2055.23 1581.17,2038.36 1580.55,2021.51C1579.85,2002.49 1575.49,1974.89 1576.32,1957.95Z"/>
        </g>
        <g transform="matrix(-1,0,0,1,2464.7,8.11331)">
            <path d="M1576.32,1957.95C1576.96,1944.92 1581.13,1909.76 1585.52,1919.9C1589.9,1930.03 1599.78,1986.17 1602.63,2018.76C1605.44,2050.86 1603.41,2083.21 1602.63,2115.42C1601.67,2155.26 1599.69,2221.32 1596.84,2257.78C1594.83,2283.45 1588.57,2339.41 1585.52,2334.18C1582.47,2328.96 1579.37,2253.36 1578.55,2226.44C1577.99,2208.51 1580.32,2190.59 1580.55,2172.65C1580.88,2146.93 1580.55,2097.28 1580.55,2072.09C1580.55,2055.23 1581.17,2038.36 1580.55,2021.51C1579.85,2002.49 1575.49,1974.89 1576.32,1957.95Z"/>
        </g>
    </g>
    <g id="lower_back">
        <g transform="matrix(0.963451,0,0,0.99706,45.7604,15.1573)">
            <path d="M1226.37,1096.7C1231.18,1148.93 1226.24,1416.97 1230.95,1553.33C1232.91,1609.98 1234.38,1640.43 1230.95,1634.51C1221.35,1617.87 1205.86,1574.46 1190.22,1546C1172.05,1512.94 1136.29,1458.46 1121.93,1436.14C1116.53,1427.74 1101.95,1421.85 1104.07,1412.08C1109.79,1385.63 1142.69,1314.36 1156.3,1277.45C1166.87,1248.78 1174.65,1219.11 1185.7,1190.61C1197.38,1160.49 1223.4,1064.43 1226.37,1096.7Z"/>
        </g>
        <g transform="matrix(-0.963451,0,0,0.99706,2427.44,14.3368)">
            <path d="M1226.37,1096.7C1231.18,1148.93 1226.24,1416.97 1230.95,1553.33C1232.91,1609.98 1234.38,1640.43 1230.95,1634.51C1221.35,1617.87 1205.86,1574.46 1190.22,1546C1172.05,1512.94 1136.29,1458.46 1121.93,1436.14C1116.53,1427.74 1101.95,1421.85 1104.07,1412.08C1109.79,1385.63 1142.69,1314.36 1156.3,1277.45C1166.87,1248.78 1174.65,1219.11 1185.7,1190.61C1197.38,1160.49 1223.4,1064.43 1226.37,1096.7Z"/>
        </g>
    </g>
    <g id="traps" transform="matrix(0.98737,0,0,0.98737,4.10557,16.668)">
        <path d="M1267.79,1070.19C1262.19,1071.95 1265.18,1051.98 1261.94,1046.22C1259.13,1041.21 1249.95,1041.14 1248.36,1035.62C1246.1,1027.74 1247.38,1007.51 1248.36,998.954C1248.96,993.727 1254.22,989.559 1254.22,984.297C1254.22,977.119 1249.24,965.516 1248.36,955.886C1247.38,945.198 1248.36,932.075 1248.36,920.169C1248.36,904.418 1247.38,874.566 1248.36,861.382C1248.88,854.351 1254.22,847.199 1254.22,841.061C1254.22,835.221 1248.36,830.391 1248.36,824.552C1248.36,817.563 1254.22,807.385 1254.22,799.126C1254.22,790.868 1248.36,782.944 1248.36,775.002C1248.36,767.061 1253.25,757.736 1254.22,751.477C1254.94,746.858 1255.51,741.947 1254.22,737.451C1252.82,732.515 1246.76,727.054 1245.79,721.86C1244.81,716.688 1246.72,711.282 1248.36,706.284C1250.33,700.295 1257.62,692.438 1257.62,685.93C1257.62,679.421 1249.89,674.017 1248.36,667.234C1246.82,660.397 1246.82,650.174 1248.36,644.906C1249.59,640.713 1256.66,639.889 1257.62,635.627C1258.6,631.284 1252.78,624.371 1254.22,618.853C1255.92,612.387 1263.9,604.521 1267.79,596.827C1272.71,587.115 1278.61,572.744 1283.72,560.578C1289.01,548.001 1295.91,529.455 1299.53,521.366C1301.03,518.011 1306.63,515.503 1305.41,512.04C1302.77,504.62 1290.43,488.097 1283.72,476.842C1277.36,466.167 1270.09,454.472 1265.18,444.507C1260.82,435.67 1257.03,426 1254.22,417.049C1251.55,408.493 1250.32,398.106 1248.36,390.798C1246.76,384.823 1242.47,379.387 1242.47,373.201C1242.47,362.681 1247.38,337.362 1248.36,327.68C1248.79,323.511 1244.57,316.901 1248.36,315.109C1252.79,313.014 1266.13,316.01 1274.94,315.109C1288.8,313.692 1320.82,308.024 1331.53,306.607C1334.06,306.272 1336.95,305.395 1339.19,306.607C1347.5,311.078 1336.62,320.666 1335.26,327.68C1332.83,340.124 1324.65,365.005 1324.65,381.267C1324.65,396.349 1331.24,412.695 1335.26,425.252C1338.72,436.091 1341.42,447.913 1348.76,456.609C1360.98,471.074 1391.05,499.778 1408.53,512.04C1421.8,521.347 1438.67,523.948 1453.63,530.182C1470.06,537.029 1490.69,542.756 1507.07,553.119C1524.63,564.226 1548.77,588.397 1558.99,596.827C1561.99,599.3 1570.65,600.523 1568.41,603.698C1563.84,610.164 1543.51,624.588 1531.59,635.627C1517.94,648.262 1498.29,669.596 1486.55,679.508C1478.97,685.913 1469.27,689.342 1461.18,695.094C1451.25,702.152 1434.72,709.628 1426.98,721.86C1417.43,736.941 1411.08,764.157 1403.91,785.579C1396.41,808.006 1388.06,838.36 1381.97,856.426C1377.68,869.15 1373.3,881.92 1367.39,893.975C1356.94,915.287 1331.25,960.69 1319.27,984.297C1310.74,1001.11 1304.1,1021.31 1295.52,1035.62C1287.93,1048.29 1273.39,1068.42 1267.79,1070.19Z"/>
        <g transform="matrix(-1,0,0,1,2496.66,1.11679)">
            <path d="M1267.79,1070.19C1262.19,1071.95 1265.18,1051.98 1261.94,1046.22C1259.13,1041.21 1249.95,1041.14 1248.36,1035.62C1246.1,1027.74 1247.38,1007.51 1248.36,998.954C1248.96,993.727 1254.22,989.559 1254.22,984.297C1254.22,977.119 1249.24,965.516 1248.36,955.886C1247.38,945.198 1248.36,932.075 1248.36,920.169C1248.36,904.418 1247.38,874.566 1248.36,861.382C1248.88,854.351 1254.22,847.199 1254.22,841.061C1254.22,835.221 1248.36,830.391 1248.36,824.552C1248.36,817.563 1254.22,807.385 1254.22,799.126C1254.22,790.868 1248.36,782.944 1248.36,775.002C1248.36,767.061 1253.25,757.736 1254.22,751.477C1254.94,746.858 1255.51,741.947 1254.22,737.451C1252.82,732.515 1246.76,727.054 1245.79,721.86C1244.81,716.688 1246.72,711.282 1248.36,706.284C1250.33,700.295 1257.62,692.438 1257.62,685.93C1257.62,679.421 1249.89,674.017 1248.36,667.234C1246.82,660.397 1246.82,650.174 1248.36,644.906C1249.59,640.713 1256.66,639.889 1257.62,635.627C1258.6,631.284 1252.78,624.371 1254.22,618.853C1255.92,612.387 1263.9,604.521 1267.79,596.827C1272.71,587.115 1278.61,572.744 1283.72,560.578C1289.01,548.001 1295.91,529.455 1299.53,521.366C1301.03,518.011 1306.63,515.503 1305.41,512.04C1302.77,504.62 1290.43,488.097 1283.72,476.842C1277.36,466.167 1270.09,454.472 1265.18,444.507C1260.82,435.67 1257.03,426 1254.22,417.049C1251.55,408.493 1250.32,398.106 1248.36,390.798C1246.76,384.823 1242.47,379.387 1242.47,373.201C1242.47,362.681 1248.36,337.362 1248.36,327.68C1248.36,323.053 1238.29,317.088 1242.47,315.109C1246.9,313.014 1264.17,316.137 1274.94,315.109C1289.78,313.692 1320.82,308.024 1331.53,306.607C1334.06,306.272 1338.75,304.091 1339.19,306.607C1339.82,310.12 1336.62,320.666 1335.26,327.68C1332.83,340.124 1324.65,365.005 1324.65,381.267C1324.65,396.349 1331.24,412.695 1335.26,425.252C1338.72,436.091 1341.42,447.913 1348.76,456.609C1360.98,471.074 1391.05,499.778 1408.53,512.04C1421.8,521.347 1438.67,523.948 1453.63,530.182C1470.06,537.029 1490.69,542.756 1507.07,553.119C1524.63,564.226 1548.77,588.397 1558.99,596.827C1561.99,599.3 1570.65,600.523 1568.41,603.698C1563.84,610.164 1543.51,624.588 1531.59,635.627C1517.94,648.262 1498.29,669.596 1486.55,679.508C1478.97,685.913 1469.27,689.342 1461.18,695.094C1451.25,702.152 1434.72,709.628 1426.98,721.86C1417.43,736.941 1411.08,764.157 1403.91,785.579C1396.41,808.006 1388.06,838.36 1381.97,856.426C1377.68,869.15 1373.3,881.92 1367.39,893.975C1356.94,915.287 1331.25,960.69 1319.27,984.297C1310.74,1001.11 1304.1,1021.31 1295.52,1035.62C1287.93,1048.29 1273.39,1068.42 1267.79,1070.19Z"/>
        </g>
    </g>
</svg>
