<?xml version="1.0" encoding="UTF-8" standalone="no"?>
<!DOCTYPE svg PUBLIC "-//W3C//DTD SVG 1.1//EN" "http://www.w3.org/Graphics/SVG/1.1/DTD/svg11.dtd">
<svg width="100%" height="100%" viewBox="0 0 2481 3508" version="1.1" xmlns="http://www.w3.org/2000/svg" xmlns:xlink="http://www.w3.org/1999/xlink" xml:space="preserve" xmlns:serif="http://www.serif.com/" style="fill-rule:evenodd;clip-rule:evenodd;stroke-linejoin:round;stroke-miterlimit:2;">
    <path id="silhouette" d="M1231.12,1807.98C1227.69,1810.78 1217.91,1816.93 1214.17,1823.66C1208.98,1833.03 1203.33,1850.27 1199.96,1864.18C1196,1880.51 1194.15,1902.55 1190.46,1921.59C1186.49,1942.07 1179.98,1970.96 1176.14,1987.06C1173.64,1997.54 1169.84,2007.68 1167.41,2018.18C1164.3,2031.65 1160,2051.16 1157.47,2067.85C1154.92,2084.69 1155.73,2102.37 1152.11,2119.19C1148.2,2137.4 1138.96,2158.36 1133.98,2177.12C1129.2,2195.14 1125.37,2213.41 1122.23,2231.79C1118.83,2251.7 1115.57,2279.99 1113.59,2296.58C1112.2,2308.14 1111.39,2319.76 1110.32,2331.35C1109.16,2343.93 1107.99,2358.52 1106.62,2372.09C1105.12,2386.98 1102.19,2404.57 1101.3,2420.72C1100.42,2436.78 1103.59,2454.74 1101.3,2468.98C1099.21,2482.01 1092.56,2493.89 1087.61,2506.13C1081.32,2521.72 1069.63,2547.5 1063.54,2562.51C1059.04,2573.61 1054.7,2584.8 1051.07,2596.21C1047.16,2608.52 1041.9,2626.42 1040.07,2636.37C1038.89,2642.78 1039.58,2649.43 1040.07,2655.93C1040.81,2665.68 1043.88,2681.82 1044.51,2694.87C1045.25,2710.08 1045.25,2730.57 1044.51,2747.2C1043.81,2763.06 1042.19,2778.9 1040.07,2794.64C1037.9,2810.72 1035.37,2827.98 1031.49,2843.69C1027.68,2859.07 1021.1,2876.68 1016.77,2888.88C1013.4,2898.36 1007.43,2907 1005.51,2916.88C1003.11,2929.23 1004.95,2947.8 1002.38,2963C998.894,2983.63 988.539,3017.84 984.594,3040.68C981.209,3060.29 979.689,3084.15 978.708,3100.07C977.967,3112.1 978.708,3124.17 978.708,3136.22L978.708,3187.99C978.708,3198.83 978.081,3210.43 978.708,3220.51C979.292,3229.9 982.875,3240.84 982.47,3248.49C982.137,3254.8 977.061,3260.13 976.281,3266.39C975.25,3274.68 976.281,3288.19 976.281,3298.23L976.281,3326.64C976.281,3336.69 978.735,3348.73 976.281,3358.52C973.828,3368.3 966.891,3376.98 961.561,3385.36C956.353,3393.56 947.612,3399.69 944.301,3408.82C940.692,3418.77 943.041,3435.55 939.906,3445.04C937.267,3453.04 931.564,3459.95 925.494,3465.79C918.448,3472.57 905.901,3479.57 897.626,3485.7C890.248,3491.16 883.481,3499.76 875.85,3502.57C868.339,3505.33 858.24,3503.39 851.839,3502.57C846.806,3501.92 842.461,3498.37 837.443,3497.62C831.922,3496.79 823.525,3499.01 818.713,3497.62C814.508,3496.4 812.67,3490.67 808.568,3489.28C804.466,3487.89 797.454,3491.19 794.101,3489.28C790.749,3487.38 791.456,3480.34 788.453,3477.85C785.45,3475.36 778.726,3476.33 776.085,3474.32C773.64,3472.46 773.808,3468.62 772.606,3465.79C770.531,3460.91 763.631,3452.35 763.631,3445.04C763.631,3437.73 768.177,3428.91 772.606,3421.93C780.096,3410.14 797.054,3390.49 808.568,3374.25C821.773,3355.63 840.625,3331.55 851.839,3310.18C862.447,3289.97 869.594,3261.72 875.85,3246.04C879.909,3235.86 888.136,3226.97 889.372,3216.08C891.626,3196.23 891.035,3156.61 889.372,3126.95C887.118,3086.74 880.525,3021.12 875.85,2974.86C871.616,2932.97 866.33,2887.34 861.32,2849.39C856.811,2815.23 847.374,2777.96 845.794,2747.2C844.382,2719.7 846.984,2691.92 851.839,2664.81C857.903,2630.96 873.489,2575.66 882.18,2544.05C888.567,2520.82 899.061,2498.72 903.985,2475.13C909.292,2449.72 914.019,2412.44 914.019,2391.57C914.019,2377.28 905.687,2364.09 903.985,2349.91C899.878,2315.66 892.877,2240.8 889.372,2186.1C885.738,2129.37 885.338,2068.3 882.18,2009.56C879.026,1950.86 869.229,1881.57 870.428,1833.61C871.372,1795.83 881.495,1758.79 889.372,1721.83C899.654,1673.58 920.911,1582.64 932.122,1544.1C937.6,1525.27 948.965,1508.67 956.637,1490.63C967.084,1466.05 984.78,1424.97 994.802,1396.66C1003.59,1371.85 1015.02,1347.07 1016.77,1320.81C1018.55,1294 1010.57,1263.96 1005.51,1235.84C1000.15,1206.02 991.116,1172.08 984.594,1141.88C978.324,1112.85 972.463,1083.73 966.379,1054.66C958.931,1019.07 947.727,942.39 939.906,928.336C932.336,914.731 926.5,956.587 919.453,970.328C912.461,983.963 907.919,999.576 897.626,1010.78C890.58,1018.46 879.267,1033.45 870.428,1045.19C853.606,1067.54 838.25,1092.8 823.61,1112.22C803.662,1138.69 777.261,1170.92 763.631,1191.52C754.548,1205.26 749.903,1221.49 741.832,1235.84C732.545,1252.35 720.94,1273.53 707.91,1290.59C694.074,1308.71 673.316,1329.44 658.819,1344.54C646.649,1357.21 633.129,1368.55 620.929,1381.19C606.259,1396.4 588.693,1418.76 570.796,1435.79C551.635,1454.03 526.292,1472.57 505.963,1490.63C486.456,1507.95 463.511,1527.28 448.822,1544.1C436.395,1558.33 422.587,1579.99 417.826,1591.55C415.024,1598.36 420.026,1606.15 420.254,1613.5C420.659,1626.54 422.687,1651.75 420.254,1669.8C417.849,1687.65 410.617,1706.12 405.66,1721.83C401.161,1736.08 393.788,1751.06 390.513,1764.04C387.582,1775.65 388.714,1788.1 386.008,1799.69C383.303,1811.29 379.96,1827.96 374.278,1833.61C368.994,1838.87 357.08,1836.48 351.917,1833.61C346.754,1830.75 343.956,1822.81 343.299,1816.43C342.44,1808.11 346.294,1794.63 346.765,1783.66C347.342,1770.19 349.237,1742.39 346.765,1735.6C344.876,1730.42 336.035,1739.26 331.932,1742.95C323.882,1750.19 304.593,1767.83 298.462,1779.04C293.448,1788.21 294.744,1799.77 295.144,1810.21C295.574,1821.45 301.867,1839.16 301.044,1846.49C300.549,1850.9 290.932,1849.83 290.206,1854.2C289.223,1860.13 295.144,1876.52 295.144,1882.07C295.144,1884.52 291.499,1885.44 290.206,1887.52C288.422,1890.4 287.502,1896.2 284.436,1899.33C280.011,1903.85 267.565,1922.29 263.656,1914.63C256.358,1900.33 243.266,1842.96 240.647,1813.51C238.405,1788.31 244.108,1756.93 247.943,1737.95C250.676,1724.42 257.334,1711.91 263.656,1699.65C274.702,1678.22 299.507,1635.28 314.218,1609.36C326.615,1587.51 339.521,1565.95 351.917,1544.1C364.633,1521.69 376.554,1497.31 390.513,1474.88C408.504,1445.96 440.624,1399.78 459.866,1370.63C475.358,1347.16 489.001,1322.41 505.963,1299.98C526.488,1272.84 560.622,1232.67 583.018,1207.79C601.057,1187.75 623.738,1171.97 640.333,1150.72C660.265,1125.19 683.469,1084.59 702.609,1054.66C720.332,1026.94 739.924,998.097 755.173,971.129C769.516,945.761 783.339,919.93 794.101,892.848C805.507,864.146 809.665,828.625 823.61,798.915C838.29,767.638 864.095,723.588 882.18,705.186C894.483,692.668 917.281,691.283 932.122,688.503C944.932,686.102 958.827,692.537 971.22,688.503C992.406,681.606 1034.72,659.751 1059.24,647.126C1079.49,636.695 1105.25,624.073 1118.3,612.748C1128.03,604.295 1135.65,591.931 1137.49,579.171C1140.11,561.071 1136.53,519.959 1133.98,504.148C1132.76,496.559 1125.63,491.088 1122.23,484.307C1118.86,477.582 1115.37,470.77 1113.59,463.461C1111.6,455.308 1113.55,441.049 1110.32,435.389C1107.49,430.425 1098.13,433.666 1094.21,429.503C1087.89,422.778 1076.29,408.065 1072.37,395.04C1068.3,381.486 1068.94,358.561 1069.78,348.184C1070.25,342.466 1073.38,335.346 1077.45,332.778C1081.53,330.21 1090.92,335.106 1094.21,332.778C1097.51,330.45 1096.88,323.56 1097.21,318.81C1098.39,301.751 1095.17,255.792 1101.3,230.423C1106.92,207.188 1116.29,182.663 1133.98,166.593C1152.79,149.51 1197.99,134.897 1214.17,127.92C1219.45,125.646 1227.89,125.265 1231.12,124.734C1231.92,124.602 1232.75,124.659 1233.55,124.734C1237.86,125.131 1249.67,124.231 1256.96,127.12C1274.22,133.963 1318.34,148.709 1337.15,165.793C1354.85,181.862 1364.22,206.388 1369.83,229.622C1375.96,254.992 1372.74,300.95 1373.92,318.009C1374.25,322.76 1373.62,329.649 1376.92,331.977C1380.21,334.305 1389.61,329.41 1393.68,331.977C1397.75,334.545 1400.88,341.666 1401.35,347.384C1402.2,357.761 1402.83,380.686 1398.76,394.239C1394.85,407.265 1383.24,421.978 1376.92,428.703C1373,432.866 1363.65,429.625 1360.82,434.589C1357.59,440.249 1359.53,454.508 1357.55,462.661C1355.77,469.97 1352.27,476.781 1348.9,483.506C1345.5,490.288 1338.37,495.759 1337.15,503.348C1334.61,519.159 1331.03,560.271 1333.64,578.371C1335.49,591.13 1343.1,603.494 1352.84,611.947C1365.88,623.273 1391.64,635.895 1411.89,646.325C1436.41,658.951 1478.73,680.806 1499.91,687.702C1512.31,691.736 1526.2,685.302 1539.01,687.702C1553.85,690.483 1576.65,691.868 1588.95,704.386C1607.04,722.788 1632.84,766.837 1647.52,798.114C1661.47,827.824 1665.62,863.345 1677.03,892.048C1687.79,919.13 1701.62,944.961 1715.96,970.328C1731.21,997.296 1750.8,1026.14 1768.52,1053.86C1787.66,1083.79 1810.87,1124.39 1830.8,1149.92C1847.39,1171.17 1870.08,1186.95 1888.12,1206.99C1910.51,1231.87 1944.64,1272.04 1965.17,1299.18C1982.13,1321.61 1995.78,1346.36 2011.27,1369.83C2030.51,1398.98 2062.63,1445.16 2080.62,1474.08C2094.58,1496.51 2106.5,1520.89 2119.22,1543.3C2131.61,1565.15 2144.52,1586.71 2156.91,1608.56C2171.62,1634.48 2196.43,1677.41 2207.48,1698.85C2213.8,1711.11 2220.46,1723.62 2223.19,1737.15C2227.02,1756.13 2232.73,1787.51 2230.49,1812.71C2227.87,1842.16 2214.77,1899.53 2207.48,1913.83C2203.57,1921.49 2191.12,1903.05 2186.7,1898.53C2183.63,1895.4 2182.71,1889.6 2180.93,1886.72C2179.63,1884.64 2175.99,1883.72 2175.99,1881.27C2175.99,1875.72 2181.91,1859.33 2180.93,1853.4C2180.2,1849.03 2170.58,1850.1 2170.09,1845.69C2169.27,1838.36 2175.56,1820.65 2175.99,1809.41C2176.39,1798.97 2177.68,1787.41 2172.67,1778.24C2166.54,1767.03 2147.25,1749.39 2139.2,1742.15C2135.1,1738.46 2126.26,1729.62 2124.37,1734.8C2121.9,1741.59 2123.79,1769.38 2124.37,1782.86C2124.84,1793.83 2128.69,1807.31 2127.83,1815.63C2127.18,1822.01 2124.38,1829.95 2119.22,1832.81C2114.05,1835.67 2102.14,1838.07 2096.85,1832.81C2091.17,1827.16 2087.83,1810.49 2085.12,1798.89C2082.42,1787.3 2083.55,1774.85 2080.62,1763.24C2077.34,1750.26 2069.97,1735.28 2065.47,1721.03C2060.51,1705.32 2053.28,1686.85 2050.88,1669C2048.45,1650.95 2050.47,1625.74 2050.88,1612.7C2051.11,1605.35 2056.11,1597.56 2053.31,1590.75C2048.55,1579.19 2034.74,1557.53 2022.31,1543.3C2007.62,1526.48 1984.68,1507.15 1965.17,1489.83C1944.84,1471.77 1919.5,1453.23 1900.34,1434.99C1882.44,1417.95 1864.87,1395.6 1850.2,1380.39C1838,1367.75 1824.48,1356.41 1812.31,1343.74C1797.82,1328.64 1777.06,1307.91 1763.22,1289.79C1750.19,1272.73 1738.59,1251.55 1729.3,1235.04C1721.23,1220.69 1716.58,1204.45 1707.5,1190.72C1693.87,1170.12 1665.32,1135.68 1647.52,1111.42C1631.53,1089.63 1615.09,1065.63 1600.7,1045.19C1587.49,1026.42 1572.78,1008.39 1561.2,988.783C1549.64,969.211 1540.63,916.69 1531.23,927.535C1521.82,938.381 1512.2,1018.27 1504.75,1053.86C1498.67,1082.93 1492.81,1112.05 1486.54,1141.08C1480.02,1171.28 1470.98,1205.22 1465.62,1235.04C1460.57,1263.16 1452.58,1293.2 1454.37,1320.01C1456.12,1346.27 1467.54,1371.05 1476.33,1395.86C1486.35,1424.17 1504.05,1465.25 1514.5,1489.83C1522.17,1507.87 1533.53,1524.47 1539.01,1543.3C1550.22,1581.84 1571.48,1672.77 1581.76,1721.03C1589.64,1757.99 1599.76,1795.03 1600.7,1832.81C1601.9,1880.77 1592.11,1950.06 1588.95,2008.76C1585.8,2067.5 1585.39,2128.57 1581.76,2185.3C1578.26,2240 1571.26,2314.86 1567.15,2349.11C1565.45,2363.29 1557.11,2376.48 1557.11,2390.77C1557.11,2411.64 1561.84,2448.92 1567.15,2474.33C1572.07,2497.92 1582.57,2520.02 1588.95,2543.25C1597.64,2574.87 1613.23,2630.16 1619.29,2664.01C1624.15,2691.12 1626.75,2718.9 1625.34,2746.39C1623.76,2777.16 1614.32,2814.43 1609.81,2848.59C1604.8,2886.54 1599.52,2932.17 1595.28,2974.06C1590.61,3020.32 1584.01,3085.94 1581.76,3126.15C1580.1,3155.81 1579.51,3195.43 1581.76,3215.28C1583,3226.17 1591.22,3235.06 1595.28,3245.24C1601.54,3260.93 1608.68,3289.17 1619.29,3309.38C1630.51,3330.75 1649.36,3354.83 1662.57,3373.45C1674.08,3389.69 1691.04,3409.34 1698.53,3421.13C1702.95,3428.11 1707.5,3436.93 1707.5,3444.24C1707.5,3451.55 1700.6,3460.11 1698.53,3464.99C1697.32,3467.82 1697.49,3471.66 1695.05,3473.52C1692.41,3475.53 1685.68,3474.56 1682.68,3477.05C1679.68,3479.54 1680.38,3486.58 1677.03,3488.48C1673.68,3490.39 1666.67,3487.09 1662.57,3488.48C1658.46,3489.87 1656.62,3495.6 1652.42,3496.82C1647.61,3498.21 1639.21,3495.99 1633.69,3496.82C1628.67,3497.57 1624.33,3501.12 1619.29,3501.77C1612.89,3502.59 1602.79,3504.53 1595.28,3501.77C1587.65,3498.95 1580.88,3490.36 1573.51,3484.9C1565.23,3478.77 1552.68,3471.76 1545.64,3464.99C1539.57,3459.15 1533.87,3452.24 1531.23,3444.24C1528.09,3434.75 1530.44,3417.97 1526.83,3408.02C1523.52,3398.89 1514.78,3392.76 1509.57,3384.56C1504.24,3376.18 1497.3,3367.5 1494.85,3357.72C1492.4,3347.93 1494.85,3335.89 1494.85,3325.85L1494.85,3297.43C1494.85,3287.39 1495.88,3273.88 1494.85,3265.59C1494.07,3259.33 1489,3254 1488.66,3247.69C1488.26,3240.04 1491.84,3229.1 1492.42,3219.71C1493.05,3209.63 1492.42,3198.03 1492.42,3187.19L1492.42,3135.42C1492.42,3123.37 1493.16,3111.3 1492.42,3099.27C1491.44,3083.35 1489.92,3059.49 1486.54,3039.88C1482.59,3017.04 1472.24,2982.83 1468.75,2962.2C1466.18,2947 1468.02,2928.43 1465.62,2916.08C1463.7,2906.2 1457.73,2897.56 1454.37,2888.08C1450.04,2875.88 1443.45,2858.27 1439.65,2842.89C1435.76,2827.18 1433.24,2809.92 1431.06,2793.84C1428.94,2778.1 1427.33,2762.26 1426.62,2746.39C1425.88,2729.77 1425.88,2709.28 1426.62,2694.07C1427.25,2681.02 1430.32,2664.88 1431.06,2655.13C1431.56,2648.63 1432.24,2641.98 1431.06,2635.57C1429.23,2625.62 1423.98,2607.72 1420.06,2595.41C1416.44,2584 1412.1,2572.81 1407.6,2561.71C1401.5,2546.7 1389.81,2520.92 1383.52,2505.33C1378.58,2493.09 1371.92,2481.21 1369.83,2468.18C1367.55,2453.94 1370.71,2435.98 1369.83,2419.91C1368.94,2403.77 1366.01,2386.18 1364.51,2371.29C1363.14,2357.72 1361.98,2343.13 1360.82,2330.55C1359.75,2318.96 1358.93,2307.34 1357.55,2295.78C1355.56,2279.19 1352.3,2250.9 1348.9,2230.99C1345.76,2212.61 1341.93,2194.34 1337.15,2176.32C1332.17,2157.55 1322.93,2136.6 1319.02,2118.39C1315.4,2101.57 1316.21,2083.89 1313.66,2067.05C1311.13,2050.36 1306.83,2030.85 1303.72,2017.38C1301.29,2006.88 1297.49,1996.74 1294.99,1986.26C1291.15,1970.16 1284.64,1941.27 1280.68,1920.79C1276.99,1901.75 1275.13,1879.7 1271.18,1863.38C1267.81,1849.47 1263.03,1832.28 1256.96,1822.86C1252.01,1815.18 1239.04,1809.31 1234.73,1806.83C1233.63,1806.2 1232.1,1807.18 1231.12,1807.98Z"/>
    <g id="neck">
        <path d="M1088.32,698.335C1090.17,693.42 1100.48,688.356 1107.53,677.901C1116.55,664.538 1127.94,648.949 1130.93,634.893C1134.2,619.531 1138.56,604.837 1140.29,589.479C1142.44,570.345 1139.06,516.026 1143.85,520.09C1151.26,526.376 1157.03,545.495 1163.99,563.969C1172.06,585.372 1187.06,637.711 1196.01,634.893C1204.12,632.342 1212.62,575.927 1218.71,574.26C1222.23,573.298 1224.53,624.024 1225.7,644.307C1226.68,661.497 1224.55,678.843 1225.7,695.96C1226.84,713.077 1231.92,740.625 1232.57,747.009C1233.22,753.467 1209.22,728.115 1196.01,721.168C1181.91,713.749 1164.76,706.059 1147.94,702.493C1130,698.688 1084.16,709.331 1088.32,698.335Z"/>
        <g transform="matrix(-1,0,0,1,2471.19,0.190124)">
            <path d="M1088.32,698.335C1090.17,693.42 1100.48,688.356 1107.53,677.901C1116.55,664.538 1127.94,648.949 1130.93,634.893C1134.2,619.531 1138.56,604.837 1140.29,589.479C1142.44,570.345 1139.06,516.026 1143.85,520.09C1151.26,526.376 1157.03,545.495 1163.99,563.969C1172.06,585.372 1187.06,637.711 1196.01,634.893C1204.12,632.342 1212.62,575.927 1218.71,574.26C1222.23,573.298 1224.53,624.024 1225.7,644.307C1226.68,661.497 1224.55,678.843 1225.7,695.96C1226.84,713.077 1231.92,740.625 1232.57,747.009C1233.22,753.467 1209.22,728.115 1196.01,721.168C1181.91,713.749 1164.76,706.059 1147.94,702.493C1130,698.688 1084.16,709.331 1088.32,698.335Z"/>
        </g>
    </g>
    <g id="adductors">
        <path d="M1051.84,1576.28C1060.2,1584.17 1080.87,1629.47 1096.23,1655.58C1111.9,1682.21 1131.61,1716.2 1145.84,1736.03C1156.06,1750.26 1167.69,1764.34 1181.61,1774.53C1195.53,1784.73 1221.9,1791.77 1229.37,1797.23C1232.18,1799.28 1228.32,1804.33 1226.44,1807.27C1223.43,1811.97 1213.91,1818.01 1211.29,1825.46C1205.34,1842.39 1197.32,1880.99 1190.73,1908.85C1182.19,1944.9 1167.57,2006.43 1160.09,2041.75C1154.55,2067.95 1151.55,2094.65 1145.84,2120.81C1139.8,2148.52 1128.73,2195.86 1123.84,2207.99C1121.84,2212.98 1116.95,2198.97 1116.56,2193.61C1115.34,2176.95 1118.25,2136.52 1116.56,2108.05C1114.43,2072.39 1108.61,2019.17 1103.79,1979.6C1099.35,1943.15 1092.22,1904.81 1087.64,1870.63C1083.36,1838.66 1080.77,1805.74 1076.32,1774.53C1071.97,1744.04 1066,1711.14 1060.95,1683.42C1056.38,1658.29 1047.58,1626.1 1046.06,1608.24C1045.14,1597.45 1043.97,1568.85 1051.84,1576.28Z"/>
        <g transform="matrix(-1,0,0,1,2472.15,-3.38821)">
            <path d="M1051.84,1576.28C1060.2,1584.17 1080.87,1629.47 1096.23,1655.58C1111.9,1682.21 1131.61,1716.2 1145.84,1736.03C1156.06,1750.26 1167.69,1764.34 1181.61,1774.53C1195.53,1784.73 1221.9,1791.77 1229.37,1797.23C1232.18,1799.28 1228.32,1804.33 1226.44,1807.27C1223.43,1811.97 1213.91,1818.01 1211.29,1825.46C1205.34,1842.39 1197.32,1880.99 1190.73,1908.85C1182.19,1944.9 1167.57,2006.43 1160.09,2041.75C1154.55,2067.95 1151.55,2094.65 1145.84,2120.81C1139.8,2148.52 1128.73,2195.86 1123.84,2207.99C1121.84,2212.98 1116.95,2198.97 1116.56,2193.61C1115.34,2176.95 1118.25,2136.52 1116.56,2108.05C1114.43,2072.39 1108.61,2019.17 1103.79,1979.6C1099.35,1943.15 1092.22,1904.81 1087.64,1870.63C1083.36,1838.66 1080.77,1805.74 1076.32,1774.53C1071.97,1744.04 1066,1711.14 1060.95,1683.42C1056.38,1658.29 1047.58,1626.1 1046.06,1608.24C1045.14,1597.45 1043.97,1568.85 1051.84,1576.28Z"/>
        </g>
    </g>
    <g id="abductors">
        <path d="M1530.72,1525.31C1541.83,1536.43 1552.53,1589.85 1559.84,1623.05C1571.08,1674.04 1598.14,1798.23 1598.14,1831.29C1598.14,1844.47 1566.21,1832.92 1559.84,1821.38C1548.61,1801 1541.83,1742.06 1530.72,1709C1520.76,1679.37 1501.63,1641.28 1493.21,1623.05C1489.46,1614.94 1480.18,1608.56 1480.18,1599.62C1480.18,1588.5 1484.79,1568.69 1493.21,1556.3C1501.63,1543.92 1519.61,1514.19 1530.72,1525.31Z"/>
        <g transform="matrix(-1,0,0,1,2470.03,1.88884)">
            <path d="M1530.72,1525.31C1541.83,1536.43 1552.53,1589.85 1559.84,1623.05C1571.08,1674.04 1598.14,1798.23 1598.14,1831.29C1598.14,1844.47 1566.21,1832.92 1559.84,1821.38C1548.61,1801 1541.83,1742.06 1530.72,1709C1520.76,1679.37 1501.63,1641.28 1493.21,1623.05C1489.46,1614.94 1480.18,1608.56 1480.18,1599.62C1480.18,1588.5 1484.79,1568.69 1493.21,1556.3C1501.63,1543.92 1519.61,1514.19 1530.72,1525.31Z"/>
        </g>
    </g>
    <g id="quadriceps">
        <g transform="matrix(0.950423,0,0,0.970786,78.5906,73.6431)">
            <path d="M1440.4,2520.24C1450.82,2517.21 1471.9,2504.63 1476.43,2489.51C1482.44,2469.46 1473.93,2419.14 1476.43,2399.93C1477.72,2390.1 1485.96,2370.69 1491.46,2374.24C1496.96,2377.8 1502.68,2410.04 1509.43,2421.26C1514.64,2429.93 1525.17,2445.14 1531.94,2441.59C1538.71,2438.03 1546.28,2414.6 1550.04,2399.93C1554.79,2381.37 1557.7,2353.53 1560.44,2330.19C1564.09,2299.11 1570.01,2250.33 1571.93,2213.46C1573.73,2178.67 1570.29,2143.75 1571.93,2108.95C1573.87,2067.68 1581.64,2001.53 1583.58,1965.85C1584.87,1942.22 1583.58,1912.54 1583.58,1894.86C1583.58,1883.18 1587.26,1870.91 1583.58,1859.82C1579.72,1848.18 1565.7,1837.94 1560.44,1825.05C1551.84,1803.93 1540.44,1760.02 1531.94,1733.09C1524.6,1709.84 1518.68,1684.33 1509.43,1663.48C1500.7,1643.82 1486.11,1620.36 1476.43,1608.02C1470.01,1599.83 1458.43,1589.43 1451.35,1589.43C1444.27,1589.43 1436.98,1600.09 1433.96,1608.02C1429.25,1620.36 1427.14,1645.08 1423.14,1663.48C1418.61,1684.33 1410.74,1709.59 1406.77,1733.09C1401.24,1765.81 1395.48,1821.02 1389.93,1859.82C1384.87,1895.22 1377.44,1932.52 1373.48,1965.85C1369.77,1997.05 1368.43,2033.58 1366.15,2059.83C1364.32,2081.02 1360.88,2102.09 1359.83,2123.34C1358.77,2144.7 1360.53,2167.46 1359.83,2188C1359.16,2207.56 1355.14,2227 1355.63,2246.57C1356.18,2269.06 1360.43,2297.49 1363.17,2322.92C1366.15,2350.5 1365.55,2383.23 1373.48,2412.08C1381.93,2442.88 1402.77,2489.69 1413.93,2507.72C1419.06,2516.02 1431.03,2522.97 1440.4,2520.24Z"/>
        </g>
        <g transform="matrix(-0.950423,0,0,0.970786,2394.91,95.1929)">
            <path d="M1440.4,2520.24C1450.82,2517.21 1471.9,2504.63 1476.43,2489.51C1482.44,2469.46 1473.93,2419.14 1476.43,2399.93C1477.72,2390.1 1485.96,2370.69 1491.46,2374.24C1496.96,2377.8 1502.68,2410.04 1509.43,2421.26C1514.64,2429.93 1525.17,2445.14 1531.94,2441.59C1538.71,2438.03 1546.28,2414.6 1550.04,2399.93C1554.79,2381.37 1557.7,2353.53 1560.44,2330.19C1564.09,2299.11 1570.01,2250.33 1571.93,2213.46C1573.73,2178.67 1570.29,2143.75 1571.93,2108.95C1573.87,2067.68 1581.64,2001.53 1583.58,1965.85C1584.87,1942.22 1583.58,1912.54 1583.58,1894.86C1583.58,1883.18 1587.26,1870.91 1583.58,1859.82C1579.72,1848.18 1565.7,1837.94 1560.44,1825.05C1551.84,1803.93 1540.44,1760.02 1531.94,1733.09C1524.6,1709.84 1518.68,1684.33 1509.43,1663.48C1500.7,1643.82 1486.11,1620.36 1476.43,1608.02C1470.01,1599.83 1458.43,1589.43 1451.35,1589.43C1444.27,1589.43 1436.98,1600.09 1433.96,1608.02C1429.25,1620.36 1427.14,1645.08 1423.14,1663.48C1418.61,1684.33 1410.74,1709.59 1406.77,1733.09C1401.24,1765.81 1395.48,1821.02 1389.93,1859.82C1384.87,1895.22 1377.44,1932.52 1373.48,1965.85C1369.77,1997.05 1368.43,2033.58 1366.15,2059.83C1364.32,2081.02 1360.88,2102.09 1359.83,2123.34C1358.77,2144.7 1360.53,2167.46 1359.83,2188C1359.16,2207.56 1355.14,2227 1355.63,2246.57C1356.18,2269.06 1360.43,2297.49 1363.17,2322.92C1366.15,2350.5 1365.55,2383.23 1373.48,2412.08C1381.93,2442.88 1402.77,2489.69 1413.93,2507.72C1419.06,2516.02 1431.03,2522.97 1440.4,2520.24Z"/>
        </g>
    </g>
    <g id="calves">
        <path d="M974.92,3126.02C977.311,3117.33 980.583,3054.08 985.07,3026.98C988.649,3005.37 999.048,2982.69 1001.84,2963.45C1004.33,2946.34 998.557,2927.27 1001.84,2911.57C1005.03,2896.32 1016.9,2884.07 1021.56,2869.21C1027.09,2851.58 1031.5,2825.6 1035.02,2805.81C1038.28,2787.49 1041.46,2769.08 1042.66,2750.51C1043.93,2730.72 1043.93,2705.59 1042.66,2687.03C1041.55,2670.9 1041.82,2635.12 1035.02,2639.14C1028.22,2643.15 1009.9,2685.95 1001.84,2711.11C993.519,2737.12 989.558,2770.85 985.07,2795.17C981.279,2815.72 976.612,2839.9 974.92,2857.02C973.581,2870.58 974.92,2884.26 974.92,2897.89L974.92,2947.26C974.92,2966.89 975.619,2993.74 974.92,3015.72C974.247,3036.9 970.727,3060.76 970.727,3079.15C970.727,3094.83 972.53,3134.72 974.92,3126.02Z"/>
        <path d="M884.053,2575.72C890.035,2586.12 903.599,2626.43 907.374,2653.11C911.261,2680.58 907.374,2713.55 907.374,2740.53C907.374,2765.34 904.668,2790.34 907.374,2814.97C910.079,2839.6 919.655,2863.59 923.608,2888.32C928.902,2921.45 937.738,2976.08 939.143,3013.74C940.396,3047.32 934.627,3090.38 932.037,3114.29C930.468,3128.78 928.953,3159.18 923.608,3157.19C918.262,3155.2 905.275,3118.81 899.966,3102.33C895.388,3088.12 894.477,3072.97 891.755,3058.29C888.402,3040.21 883.066,3015.45 879.852,2993.85C876.473,2971.13 874.299,2945.12 871.481,2922.01C868.764,2899.73 865.815,2876.14 862.946,2855.2C860.255,2835.56 856.989,2815.47 854.266,2796.36C851.617,2777.76 846.041,2759.3 846.61,2740.53C847.405,2714.29 854.892,2663.88 859.037,2638.92C861.753,2622.56 867.312,2601.28 871.481,2590.75C873.885,2584.68 880.795,2570.07 884.053,2575.72Z"/>
        <g transform="matrix(-1,0,0,1,2471.97,3.59272)">
            <path d="M974.92,3126.02C977.311,3117.33 980.583,3054.08 985.07,3026.98C988.649,3005.37 999.048,2982.69 1001.84,2963.45C1004.33,2946.34 998.557,2927.27 1001.84,2911.57C1005.03,2896.32 1016.9,2884.07 1021.56,2869.21C1027.09,2851.58 1031.5,2825.6 1035.02,2805.81C1038.28,2787.49 1041.46,2769.08 1042.66,2750.51C1043.93,2730.72 1043.93,2705.59 1042.66,2687.03C1041.55,2670.9 1041.82,2635.12 1035.02,2639.14C1028.22,2643.15 1009.9,2685.95 1001.84,2711.11C993.519,2737.12 989.558,2770.85 985.07,2795.17C981.279,2815.72 976.612,2839.9 974.92,2857.02C973.581,2870.58 974.92,2884.26 974.92,2897.89L974.92,2947.26C974.92,2966.89 975.619,2993.74 974.92,3015.72C974.247,3036.9 970.727,3060.76 970.727,3079.15C970.727,3094.83 972.53,3134.72 974.92,3126.02Z"/>
        </g>
        <g transform="matrix(-1,0,0,1,2471.97,3.59272)">
            <path d="M884.053,2575.72C890.035,2586.12 903.599,2626.43 907.374,2653.11C911.261,2680.58 907.374,2713.55 907.374,2740.53C907.374,2765.34 904.668,2790.34 907.374,2814.97C910.079,2839.6 919.655,2863.59 923.608,2888.32C928.902,2921.45 937.738,2976.08 939.143,3013.74C940.396,3047.32 934.627,3090.38 932.037,3114.29C930.468,3128.78 928.953,3159.18 923.608,3157.19C918.262,3155.2 905.275,3118.81 899.966,3102.33C895.388,3088.12 894.477,3072.97 891.755,3058.29C888.402,3040.21 883.066,3015.45 879.852,2993.85C876.473,2971.13 874.299,2945.12 871.481,2922.01C868.764,2899.73 865.815,2876.14 862.946,2855.2C860.255,2835.56 856.989,2815.47 854.266,2796.36C851.617,2777.76 846.041,2759.3 846.61,2740.53C847.405,2714.29 854.892,2663.88 859.037,2638.92C861.753,2622.56 867.312,2601.28 871.481,2590.75C873.885,2584.68 880.795,2570.07 884.053,2575.72Z"/>
        </g>
    </g>
    <g id="traps">
        <g transform="matrix(1,0,0,1,1.90435,0.435444)">
            <path d="M980.158,686.43C976.555,689.556 998.026,696.602 1007.95,698.409C1018.92,700.406 1035.21,698.409 1045.96,698.409C1054.78,698.409 1064.45,702.168 1072.43,698.409C1082.11,693.854 1096.81,682.997 1104,671.079C1112.65,656.744 1127.98,613.036 1124.31,612.401C1116.38,611.028 1087.14,635.783 1072.43,643.692C1060.75,649.975 1048.1,654.279 1036.06,659.855C1020.69,666.978 984.534,682.633 980.158,686.43Z"/>
        </g>
        <g transform="matrix(-1,0,0,1,2470.62,-0.461111)">
            <path d="M980.158,686.43C976.555,689.556 998.026,696.602 1007.95,698.409C1018.92,700.406 1035.21,698.409 1045.96,698.409C1054.78,698.409 1064.45,702.168 1072.43,698.409C1082.11,693.854 1096.81,682.997 1104,671.079C1112.65,656.744 1127.98,613.036 1124.31,612.401C1116.38,611.028 1087.14,635.783 1072.43,643.692C1060.75,649.975 1048.1,654.279 1036.06,659.855C1020.69,666.978 984.534,682.633 980.158,686.43Z"/>
        </g>
    </g>
    <g id="shoulders">
        <path d="M1442.44,718.487C1449.88,729.159 1471.62,758.776 1487.09,774.402C1501.45,788.911 1521.53,799.671 1535.25,812.244C1547.72,823.683 1558.17,838.88 1569.38,849.84C1579.74,859.973 1592.92,870.715 1602.5,878.01C1610.16,883.847 1619.34,887.543 1626.82,893.606C1634.45,899.791 1641.48,908.611 1648.3,915.118C1654.61,921.139 1662.38,928.277 1667.71,932.648C1671.66,935.882 1677.25,942.471 1680.32,941.341C1683.39,940.211 1686.79,931.339 1686.13,925.869C1685,916.391 1677.15,898.434 1673.51,884.474C1669.52,869.136 1666.38,849.179 1662.18,833.841C1658.34,819.805 1654.39,805.662 1648.3,792.447C1641.08,776.798 1627.85,753.63 1618.87,739.951C1611.84,729.254 1603.24,718.298 1594.4,710.37C1586.01,702.852 1574.58,696.002 1565.79,692.383C1558.26,689.283 1549.77,689.205 1541.64,688.655C1532.46,688.034 1519.79,688.034 1510.69,688.655C1502.75,689.198 1492.43,689.931 1487.09,692.383C1482.9,694.308 1482.65,701.04 1478.66,703.364C1473.52,706.362 1462.28,709.202 1456.24,710.37C1451.72,711.243 1444.74,709.017 1442.44,710.37C1440.14,711.723 1440.89,716.268 1442.44,718.487Z"/>
        <g transform="matrix(-1,0,0,1,2471.07,0.662559)">
            <path d="M1442.44,718.487C1449.88,729.159 1471.62,758.776 1487.09,774.402C1501.45,788.911 1521.53,799.671 1535.25,812.244C1547.72,823.683 1558.17,838.88 1569.38,849.84C1579.74,859.973 1592.92,870.715 1602.5,878.01C1610.16,883.847 1619.34,887.543 1626.82,893.606C1634.45,899.791 1641.48,908.611 1648.3,915.118C1654.61,921.139 1662.38,928.277 1667.71,932.648C1671.66,935.882 1677.25,942.471 1680.32,941.341C1683.39,940.211 1686.79,931.339 1686.13,925.869C1685,916.391 1677.15,898.434 1673.51,884.474C1669.52,869.136 1666.38,849.179 1662.18,833.841C1658.34,819.805 1654.39,805.662 1648.3,792.447C1641.08,776.798 1627.85,753.63 1618.87,739.951C1611.84,729.254 1603.24,718.298 1594.4,710.37C1586.01,702.852 1574.58,696.002 1565.79,692.383C1558.26,689.283 1549.77,689.205 1541.64,688.655C1532.46,688.034 1519.79,688.034 1510.69,688.655C1502.75,689.198 1492.43,689.931 1487.09,692.383C1482.9,694.308 1482.65,701.04 1478.66,703.364C1473.52,706.362 1462.28,709.202 1456.24,710.37C1451.72,711.243 1444.74,709.017 1442.44,710.37C1440.14,711.723 1440.89,716.268 1442.44,718.487Z"/>
        </g>
    </g>
    <g id="triceps">
        <g transform="matrix(0.969455,0,0,0.977753,48.6968,21.1521)">
            <path d="M1548.97,950.795C1548.66,952.786 1555.57,975.732 1561.52,986.972C1567.47,998.212 1579.22,1011.71 1584.64,1018.24C1587.26,1021.39 1595.66,1029.67 1594.08,1026.12C1592.51,1022.56 1580.31,1005.42 1575.19,996.901C1570.92,989.798 1567.46,982.234 1563.37,975.029C1558.99,967.345 1549.27,948.805 1548.97,950.795Z"/>
        </g>
        <g transform="matrix(-0.969455,0,0,0.977753,2423.07,24.229)">
            <path d="M1548.97,950.795C1548.66,952.786 1555.57,975.732 1561.52,986.972C1567.47,998.212 1579.22,1011.71 1584.64,1018.24C1587.26,1021.39 1595.66,1029.67 1594.08,1026.12C1592.51,1022.56 1580.31,1005.42 1575.19,996.901C1570.92,989.798 1567.46,982.234 1563.37,975.029C1558.99,967.345 1549.27,948.805 1548.97,950.795Z"/>
        </g>
    </g>
    <g id="middle_back">
        <path d="M1494.69,1008.05C1494.31,1023.6 1496.46,1069.82 1499.34,1070.57C1502.21,1071.32 1508.76,1030.14 1511.94,1012.56C1514.79,996.837 1515.98,978.923 1518.41,965.067C1520.52,953.065 1525.41,936.402 1526.53,929.424C1526.86,927.323 1526.74,921.813 1525.12,923.198C1522.69,925.282 1515.11,936.32 1511.94,941.928C1509.32,946.579 1507.6,951.723 1506.1,956.85C1504.37,962.737 1503.12,970.454 1501.6,977.251C1499.7,985.784 1494.94,997.53 1494.69,1008.05Z"/>
        <g transform="matrix(-1,0,0,1,2468.77,-5.99266)">
            <path d="M1494.69,1008.05C1494.31,1023.6 1496.46,1069.82 1499.34,1070.57C1502.21,1071.32 1508.76,1030.14 1511.94,1012.56C1514.79,996.837 1515.98,978.923 1518.41,965.067C1520.52,953.065 1525.41,936.402 1526.53,929.424C1526.86,927.323 1526.74,921.813 1525.12,923.198C1522.69,925.282 1515.11,936.32 1511.94,941.928C1509.32,946.579 1507.6,951.723 1506.1,956.85C1504.37,962.737 1503.12,970.454 1501.6,977.251C1499.7,985.784 1494.94,997.53 1494.69,1008.05Z"/>
        </g>
    </g>
    <g id="biceps">
        <path d="M1794.26,1260.91C1778.97,1256.7 1741.65,1224.04 1726.5,1210.44C1716.88,1201.81 1711.16,1189.63 1703.35,1179.33C1690.26,1162.07 1662.57,1127.54 1647.97,1106.87C1636.28,1090.32 1626.55,1072.46 1615.76,1055.31C1602.99,1034.99 1582.18,1003.08 1571.35,984.977C1563.9,972.544 1556.16,957.677 1550.77,946.689C1546.35,937.696 1538.1,927.815 1538.96,919.049C1539.81,910.283 1546.44,897.505 1555.89,894.094C1567.42,889.935 1592.79,889.935 1608.14,894.094C1623.26,898.192 1637.8,911.193 1647.97,919.049C1656.07,925.302 1661.88,936.626 1669.18,941.232C1675.74,945.367 1688.01,948.742 1691.78,946.689C1695.54,944.635 1689.05,927.346 1691.78,928.91C1694.51,930.475 1702.81,946.957 1708.16,956.076C1715.57,968.687 1727.61,987.998 1736.21,1004.58C1752.51,1036.01 1792.32,1106.2 1805.99,1144.71C1816.23,1173.54 1820.2,1216.29 1818.25,1235.65C1817.08,1247.2 1805.46,1263.98 1794.26,1260.91Z"/>
        <g transform="matrix(-1,0,0,1,2469.89,5.09179)">
            <path d="M1794.26,1260.91C1778.97,1256.7 1741.65,1224.04 1726.5,1210.44C1716.88,1201.81 1711.16,1189.63 1703.35,1179.33C1690.26,1162.07 1662.57,1127.54 1647.97,1106.87C1636.28,1090.32 1626.55,1072.46 1615.76,1055.31C1602.99,1034.99 1582.18,1003.08 1571.35,984.977C1563.9,972.544 1556.16,957.677 1550.77,946.689C1546.35,937.696 1538.1,927.815 1538.96,919.049C1539.81,910.283 1546.44,897.505 1555.89,894.094C1567.42,889.935 1592.79,889.935 1608.14,894.094C1623.26,898.192 1637.8,911.193 1647.97,919.049C1656.07,925.302 1661.88,936.626 1669.18,941.232C1675.74,945.367 1688.01,948.742 1691.78,946.689C1695.54,944.635 1689.05,927.346 1691.78,928.91C1694.51,930.475 1702.81,946.957 1708.16,956.076C1715.57,968.687 1727.61,987.998 1736.21,1004.58C1752.51,1036.01 1792.32,1106.2 1805.99,1144.71C1816.23,1173.54 1820.2,1216.29 1818.25,1235.65C1817.08,1247.2 1805.46,1263.98 1794.26,1260.91Z"/>
        </g>
    </g>
    <g id="chest">
        <path d="M1252.42,996.313C1246.5,966.746 1249.26,884.292 1249.26,845.98C1249.26,819.448 1245.48,785.991 1252.42,766.445C1258.44,749.513 1273.95,734.628 1290.91,728.701C1314.16,720.577 1366.11,714.408 1391.92,717.698C1412.44,720.312 1428.89,736.547 1445.81,748.443C1463.66,760.995 1481.47,777.945 1499.03,793.013C1517.97,809.269 1543.13,830.706 1559.48,845.98C1572.62,858.263 1597.12,878.212 1597.12,884.659C1597.12,891.105 1568.35,882.968 1559.48,884.659C1553.39,885.819 1548.65,890.826 1543.89,894.8C1537.76,899.924 1528.25,907.26 1522.69,915.399C1516.56,924.394 1512.58,937.786 1507.09,948.766C1500.65,961.616 1491.11,977.596 1484.1,992.496C1477.01,1007.57 1474.64,1028.04 1464.54,1039.19C1454.43,1050.34 1435.57,1056.03 1423.47,1059.4C1413.34,1062.22 1402.38,1060.47 1391.92,1059.4C1379.11,1058.08 1361.12,1056.39 1346.58,1051.5C1328.73,1045.5 1300.49,1032.58 1284.8,1023.38C1272.66,1016.27 1255.19,1010.11 1252.42,996.313Z"/>
        <g transform="matrix(-1,0,0,1,2474.04,-2.28857)">
            <path d="M1252.42,996.313C1246.5,966.746 1249.26,884.292 1249.26,845.98C1249.26,819.448 1245.48,785.991 1252.42,766.445C1258.44,749.513 1273.95,734.628 1290.91,728.701C1314.16,720.577 1366.11,714.408 1391.92,717.698C1412.44,720.312 1428.89,736.547 1445.81,748.443C1463.66,760.995 1481.47,777.945 1499.03,793.013C1517.97,809.269 1543.13,830.706 1559.48,845.98C1572.62,858.263 1597.12,878.212 1597.12,884.659C1597.12,891.105 1568.35,882.968 1559.48,884.659C1553.39,885.819 1548.65,890.826 1543.89,894.8C1537.76,899.924 1528.25,907.26 1522.69,915.399C1516.56,924.394 1512.58,937.786 1507.09,948.766C1500.65,961.616 1491.11,977.596 1484.1,992.496C1477.01,1007.57 1474.64,1028.04 1464.54,1039.19C1454.43,1050.34 1435.57,1056.03 1423.47,1059.4C1413.34,1062.22 1402.38,1060.47 1391.92,1059.4C1379.11,1058.08 1361.12,1056.39 1346.58,1051.5C1328.73,1045.5 1300.49,1032.58 1284.8,1023.38C1272.66,1016.27 1255.19,1010.11 1252.42,996.313Z"/>
        </g>
    </g>
    <g id="forearms">
        <path d="M649.791,1149.98C661.623,1145.92 644.86,1228.89 641.986,1250.08C640.703,1259.54 634.967,1270.51 632.544,1277.12C630.984,1281.38 624.573,1288.96 627.448,1289.72C630.322,1290.48 642.44,1284.62 649.791,1281.69C658.669,1278.15 672.157,1272.43 680.717,1268.47C687.672,1265.25 695.48,1260.99 701.147,1257.93C705.743,1255.44 711.383,1250.08 714.718,1250.08C718.054,1250.08 721.159,1254.54 721.159,1257.93C721.159,1263.19 719.301,1274.88 714.718,1281.69C709.091,1290.05 696.282,1299.08 687.392,1308.1C672.847,1322.86 643.022,1353.77 627.448,1370.27C616.057,1382.33 605.612,1395.29 593.949,1407.09C581.404,1419.78 566.334,1433.91 552.18,1446.43C538.187,1458.81 523.048,1469.84 509.029,1482.18C493.116,1496.2 468.161,1519.78 456.701,1530.51C451.115,1535.73 441.792,1554.02 440.265,1546.52C435.662,1523.92 418.133,1515.97 404.115,1514.6C395.18,1513.73 379.729,1511.92 379.729,1503.17C379.729,1494.42 395.629,1475.58 404.115,1462.11C414.204,1446.1 428.829,1424.98 440.265,1407.09C451.321,1389.79 461.421,1371.88 472.73,1354.75C484.19,1337.38 496.273,1319.7 509.029,1302.89C522.271,1285.45 540.47,1264.44 552.18,1250.08C561.233,1238.98 569.838,1227.5 579.289,1216.73C589.415,1205.2 601.184,1192.01 612.934,1180.88C624.576,1169.86 644.147,1151.91 649.791,1149.98Z"/>
        <g transform="matrix(-1,0,0,1,2473.21,0.957538)">
            <path d="M649.791,1149.98C661.623,1145.92 644.86,1228.89 641.986,1250.08C640.703,1259.54 634.967,1270.51 632.544,1277.12C630.984,1281.38 624.573,1288.96 627.448,1289.72C630.322,1290.48 642.44,1284.62 649.791,1281.69C658.669,1278.15 672.157,1272.43 680.717,1268.47C687.672,1265.25 695.48,1260.99 701.147,1257.93C705.743,1255.44 711.383,1250.08 714.718,1250.08C718.054,1250.08 721.159,1254.54 721.159,1257.93C721.159,1263.19 719.301,1274.88 714.718,1281.69C709.091,1290.05 696.282,1299.08 687.392,1308.1C672.847,1322.86 643.022,1353.77 627.448,1370.27C616.057,1382.33 605.612,1395.29 593.949,1407.09C581.404,1419.78 566.334,1433.91 552.18,1446.43C538.187,1458.81 523.048,1469.84 509.029,1482.18C493.116,1496.2 468.161,1519.78 456.701,1530.51C451.115,1535.73 441.792,1554.02 440.265,1546.52C435.662,1523.92 418.133,1515.97 404.115,1514.6C395.18,1513.73 379.729,1511.92 379.729,1503.17C379.729,1494.42 395.629,1475.58 404.115,1462.11C414.204,1446.1 428.829,1424.98 440.265,1407.09C451.321,1389.79 461.421,1371.88 472.73,1354.75C484.19,1337.38 496.273,1319.7 509.029,1302.89C522.271,1285.45 540.47,1264.44 552.18,1250.08C561.233,1238.98 569.838,1227.5 579.289,1216.73C589.415,1205.2 601.184,1192.01 612.934,1180.88C624.576,1169.86 644.147,1151.91 649.791,1149.98Z"/>
        </g>
    </g>
    <g id="abdominals">
        <g transform="matrix(0.965303,0,0,1,52.6438,0)">
            <path d="M1491.22,1015.94C1492.42,1030.47 1491.51,1079.56 1487.51,1111.03C1483.14,1145.41 1471.25,1187.91 1464.99,1222.19C1459.26,1253.59 1449.94,1290.64 1449.94,1316.75C1449.94,1338.06 1457.71,1358.86 1464.99,1378.88C1474.49,1405.01 1498.21,1452.14 1506.92,1473.52C1511.35,1484.39 1517.25,1497.38 1517.25,1507.16C1517.25,1516.19 1513.08,1526.88 1506.92,1532.2C1500.77,1537.52 1488.91,1535.92 1480.31,1539.08C1471.63,1542.26 1463.04,1550.14 1454.88,1551.28C1446.91,1552.4 1437.93,1550.56 1431.32,1545.96C1423.08,1540.22 1409.23,1529.26 1405.4,1516.84C1399.96,1499.17 1401.5,1458.01 1398.65,1439.93C1396.92,1428.99 1389.77,1419.33 1388.29,1408.36C1385.94,1390.89 1386,1358.48 1384.53,1335.14C1383.12,1312.85 1381.44,1286.38 1379.43,1268.33C1377.88,1254.4 1375.33,1239.2 1372.44,1226.87C1369.85,1215.79 1360.41,1205.59 1362.11,1194.34C1364.12,1180.99 1376.36,1159.86 1384.53,1146.76C1391.73,1135.22 1401.73,1125.66 1411.1,1115.8C1422,1104.32 1439.06,1092.35 1449.94,1077.89C1461.48,1062.57 1473.43,1034.2 1480.31,1023.87C1482.8,1020.13 1490.85,1011.46 1491.22,1015.94Z"/>
        </g>
        <g transform="matrix(-0.965303,0,0,1,2416.52,0.507468)">
            <path d="M1491.22,1015.94C1492.42,1030.47 1491.51,1079.56 1487.51,1111.03C1483.14,1145.41 1471.25,1187.91 1464.99,1222.19C1459.26,1253.59 1449.94,1290.64 1449.94,1316.75C1449.94,1338.06 1457.71,1358.86 1464.99,1378.88C1474.49,1405.01 1498.21,1452.14 1506.92,1473.52C1511.35,1484.39 1517.25,1497.38 1517.25,1507.16C1517.25,1516.19 1513.08,1526.88 1506.92,1532.2C1500.77,1537.52 1488.91,1535.92 1480.31,1539.08C1471.63,1542.26 1463.04,1550.14 1454.88,1551.28C1446.91,1552.4 1437.93,1550.56 1431.32,1545.96C1423.08,1540.22 1409.23,1529.26 1405.4,1516.84C1399.96,1499.17 1401.5,1458.01 1398.65,1439.93C1396.92,1428.99 1389.77,1419.33 1388.29,1408.36C1385.94,1390.89 1386,1358.48 1384.53,1335.14C1383.12,1312.85 1381.44,1286.38 1379.43,1268.33C1377.88,1254.4 1375.33,1239.2 1372.44,1226.87C1369.85,1215.79 1360.41,1205.59 1362.11,1194.34C1364.12,1180.99 1376.36,1159.86 1384.53,1146.76C1391.73,1135.22 1401.73,1125.66 1411.1,1115.8C1422,1104.32 1439.06,1092.35 1449.94,1077.89C1461.48,1062.57 1473.43,1034.2 1480.31,1023.87C1482.8,1020.13 1490.85,1011.46 1491.22,1015.94Z"/>
        </g>
        <path d="M1237.81,1246.56C1236.92,1231.83 1236,1187.06 1241.74,1174.47C1245.99,1165.16 1262.12,1169.61 1272.26,1171.05C1283.73,1172.67 1299.31,1180.21 1310.6,1184.23C1320.44,1187.74 1332.8,1192.59 1339.99,1195.19C1344.53,1196.84 1351.73,1195.46 1353.72,1199.87C1356.56,1206.15 1357.05,1221.84 1357.05,1232.91C1357.05,1244.08 1354.8,1259.27 1353.72,1266.87C1353.15,1270.85 1354.41,1277.3 1350.58,1278.52C1345.94,1279.99 1333.54,1276.67 1325.87,1275.73C1318.75,1274.85 1311.69,1273.28 1304.53,1272.85C1296.52,1272.37 1286.6,1274.38 1277.83,1272.85C1268.26,1271.18 1253.79,1267.22 1247.12,1262.84C1241.9,1259.4 1238.19,1252.79 1237.81,1246.56Z"/>
        <path d="M1250.43,1416.68C1246.31,1415.7 1242.54,1411.59 1241.74,1407.43C1239.66,1396.51 1237.93,1369.95 1237.93,1351.14C1237.93,1330.84 1236.91,1296.56 1241.74,1285.64C1245.14,1277.97 1258.92,1285.64 1266.9,1285.64C1274.47,1285.64 1282.08,1284.92 1289.62,1285.64C1297.26,1286.37 1305.15,1288.07 1312.76,1290C1321.48,1292.2 1334.71,1295.45 1341.9,1298.88C1347.39,1301.49 1354.44,1304.65 1355.93,1310.55C1358.27,1319.83 1355.93,1341.26 1355.93,1354.56C1355.93,1366.48 1356.88,1379.98 1355.93,1390.33C1355.11,1399.28 1354.28,1411.57 1350.23,1416.68C1346.28,1421.67 1338,1421.01 1331.63,1421.01C1324.2,1421.01 1314.17,1417.4 1305.67,1416.68C1297.36,1415.98 1288.98,1416.68 1280.64,1416.68C1271.43,1416.68 1256.91,1418.22 1250.43,1416.68Z"/>
        <path d="M1233.76,1486.22C1237.89,1486.22 1241.31,1468 1244.09,1459.83C1246.61,1452.4 1244.08,1441.65 1250.43,1437.18C1256.78,1432.71 1271.5,1432.99 1282.18,1432.99C1295.25,1432.99 1318.05,1434.36 1328.84,1437.18C1335.96,1439.05 1345.14,1442.78 1346.89,1449.94C1349.89,1462.3 1348.1,1490.89 1346.89,1511.32C1345.57,1533.6 1342.62,1561.59 1338.96,1583.63C1335.59,1603.86 1331.22,1624.02 1324.88,1643.53C1318.43,1663.37 1309.87,1684.7 1300.27,1702.69C1291.02,1719.99 1277.1,1742.26 1267.27,1751.43C1260.76,1757.5 1249.3,1756.63 1241.31,1757.67C1234.03,1758.62 1226.38,1759.6 1219.3,1757.67C1211.62,1755.58 1201.73,1751.4 1195.22,1745.11C1187.3,1737.46 1178,1723.87 1171.8,1711.79C1165.01,1698.55 1159.73,1681.22 1154.45,1665.66C1148.51,1648.12 1140.98,1626.59 1136.12,1606.54C1131.05,1585.67 1126.88,1561.04 1124.05,1540.42C1121.42,1521.35 1119.1,1498.48 1119.1,1482.88C1119.1,1470.75 1119.75,1455.13 1124.05,1446.82C1127.87,1439.42 1136.84,1435.18 1144.88,1432.99C1153.33,1430.69 1164.81,1432.99 1174.77,1432.99C1184.74,1432.99 1197.28,1428.52 1204.7,1432.99C1212.12,1437.46 1214.46,1450.95 1219.3,1459.83C1224.11,1468.63 1229.63,1486.22 1233.76,1486.22Z"/>
        <path d="M1242.57,1078.1C1240.57,1084.69 1240.78,1098 1239.98,1112.16C1238.92,1131.15 1237.94,1150.93 1245.3,1151.09C1255.19,1151.31 1268.37,1151.91 1279.51,1154.62C1293.78,1158.1 1317.88,1167.46 1330.93,1171.93C1339.92,1175.01 1350.6,1185.78 1357.79,1181.46C1364.98,1177.14 1366.66,1161.51 1374.07,1146.01C1381.01,1131.5 1386.52,1103.52 1384.4,1092.2C1382.74,1083.35 1369.24,1082.45 1361.35,1078.1C1353.23,1073.63 1344.59,1068.81 1335.68,1065.35C1326.21,1061.66 1314.88,1057.13 1304.49,1056C1294.12,1054.88 1281.85,1052.61 1273.31,1058.59C1263.52,1065.45 1246.08,1066.49 1242.57,1078.1Z"/>
        <g transform="matrix(-1,0,0,1,2467.16,-2.48371)">
            <path d="M1237.81,1246.56C1236.92,1231.83 1236,1187.06 1241.74,1174.47C1245.99,1165.16 1262.12,1169.61 1272.26,1171.05C1283.73,1172.67 1299.31,1180.21 1310.6,1184.23C1320.44,1187.74 1332.8,1192.59 1339.99,1195.19C1344.53,1196.84 1351.73,1195.46 1353.72,1199.87C1356.56,1206.15 1357.05,1221.84 1357.05,1232.91C1357.05,1244.08 1354.8,1259.27 1353.72,1266.87C1353.15,1270.85 1354.41,1277.3 1350.58,1278.52C1345.94,1279.99 1333.54,1276.67 1325.87,1275.73C1318.75,1274.85 1311.69,1273.28 1304.53,1272.85C1296.52,1272.37 1286.6,1274.38 1277.83,1272.85C1268.26,1271.18 1253.79,1267.22 1247.12,1262.84C1241.9,1259.4 1238.19,1252.79 1237.81,1246.56Z"/>
        </g>
        <g transform="matrix(-1,0,0,1,2467.16,-2.48371)">
            <path d="M1250.43,1416.68C1246.31,1415.7 1242.54,1411.59 1241.74,1407.43C1239.66,1396.51 1237.93,1369.95 1237.93,1351.14C1237.93,1330.84 1236.91,1296.56 1241.74,1285.64C1245.14,1277.97 1258.92,1285.64 1266.9,1285.64C1274.47,1285.64 1282.08,1284.92 1289.62,1285.64C1297.26,1286.37 1305.15,1288.07 1312.76,1290C1321.48,1292.2 1334.71,1295.45 1341.9,1298.88C1347.39,1301.49 1354.44,1304.65 1355.93,1310.55C1358.27,1319.83 1355.93,1341.26 1355.93,1354.56C1355.93,1366.48 1356.88,1379.98 1355.93,1390.33C1355.11,1399.28 1354.28,1411.57 1350.23,1416.68C1346.28,1421.67 1338,1421.01 1331.63,1421.01C1324.2,1421.01 1314.17,1417.4 1305.67,1416.68C1297.36,1415.98 1288.98,1416.68 1280.64,1416.68C1271.43,1416.68 1256.91,1418.22 1250.43,1416.68Z"/>
        </g>
        <g transform="matrix(-1,0,0,1,2467.16,-2.48371)">
            <path d="M1242.57,1078.1C1240.57,1084.69 1240.78,1098 1239.98,1112.16C1238.92,1131.15 1237.94,1150.93 1245.3,1151.09C1255.19,1151.31 1268.37,1151.91 1279.51,1154.62C1293.78,1158.1 1317.88,1167.46 1330.93,1171.93C1339.92,1175.01 1350.6,1185.78 1357.79,1181.46C1364.98,1177.14 1366.66,1161.51 1374.07,1146.01C1381.01,1131.5 1386.52,1103.52 1384.4,1092.2C1382.74,1083.35 1369.24,1082.45 1361.35,1078.1C1353.23,1073.63 1344.59,1068.81 1335.68,1065.35C1326.21,1061.66 1314.88,1057.13 1304.49,1056C1294.12,1054.88 1281.85,1052.61 1273.31,1058.59C1263.52,1065.45 1246.08,1066.49 1242.57,1078.1Z"/>
        </g>
    </g>
</svg>
