<?xml version="1.0" encoding="UTF-8" standalone="no"?>
<!DOCTYPE svg PUBLIC "-//W3C//DTD SVG 1.1//EN" "http://www.w3.org/Graphics/SVG/1.1/DTD/svg11.dtd">
<svg width="100%" height="100%" viewBox="0 0 2481 3508" version="1.1" xmlns="http://www.w3.org/2000/svg" xmlns:xlink="http://www.w3.org/1999/xlink" xml:space="preserve" xmlns:serif="http://www.serif.com/" style="fill-rule:evenodd;clip-rule:evenodd;stroke-linejoin:round;stroke-miterlimit:2;">
    <path id="silhouette" d="M1242.66,127.634C1251.19,128.099 1268.25,129.028 1280.13,133.323C1294.73,138.6 1317.33,148.808 1330.26,159.295C1342.18,168.96 1350.89,182.506 1357.73,196.241C1365.46,211.749 1373.91,232.8 1376.64,252.345C1379.8,274.841 1374.66,318.513 1376.64,331.216C1377.27,335.232 1384.64,327.449 1388.55,328.562C1393.15,329.873 1401.66,333.338 1404.27,339.08C1406.89,344.851 1406,355.339 1404.27,363.188C1401.65,375.109 1392.57,400.348 1388.55,410.606C1386.55,415.711 1384.48,422.381 1380.12,424.735C1375.77,427.09 1365.61,419.772 1362.42,424.735C1357.47,432.416 1354.69,459.373 1350.46,470.817C1347.43,479.028 1338.59,484.782 1337.08,493.402C1334.84,506.144 1335.84,532.073 1337.08,547.269C1338.11,559.908 1341.07,573.445 1344.52,584.577C1347.7,594.865 1349.08,607.639 1357.73,614.057C1374.8,626.722 1423.18,649.287 1446.92,660.571C1464.19,668.776 1488.1,678.988 1500.22,681.759C1506.71,683.241 1513.08,676.138 1519.65,677.198C1534.15,679.539 1569.32,685.502 1587.23,695.804C1604.21,705.576 1616.73,722.377 1627.08,739.012C1639.27,758.6 1651.6,789.822 1660.36,813.329C1668.45,835.024 1673.56,861.876 1679.64,880.057C1684.47,894.51 1689.58,909.015 1696.84,922.415C1708.63,944.192 1732.6,981.4 1750.38,1010.72C1768.11,1039.92 1790.05,1075.34 1803.57,1098.33C1813.29,1114.86 1818.68,1134.36 1831.49,1148.64C1845.17,1163.89 1868.93,1175.03 1885.65,1189.83C1902.21,1204.48 1918.63,1219.71 1931.82,1237.45C1948.26,1259.58 1969.38,1298.94 1984.35,1322.59C1996.46,1341.72 2009.3,1360.46 2021.66,1379.34C2033.98,1398.15 2046.9,1417.75 2058.51,1435.83C2069.58,1453.08 2082.34,1472.78 2091.3,1487.83C2098.75,1500.32 2105.35,1513.31 2112.28,1526.09C2120.23,1540.77 2129.62,1559.58 2139.04,1575.9C2150.11,1595.09 2171.18,1625.76 2178.7,1641.24C2182.78,1649.66 2183.23,1661.73 2184.14,1668.78C2184.77,1673.65 2183.59,1678.64 2184.14,1683.52C2185.05,1691.53 2188.7,1705.6 2189.58,1716.81C2190.49,1728.34 2190.49,1741.8 2189.58,1752.71C2188.75,1762.68 2186.49,1773.77 2184.14,1782.24C2182.1,1789.61 2178.96,1796.66 2175.52,1803.49C2171.79,1810.89 2166.56,1822.78 2161.79,1826.64C2157.94,1829.76 2149.4,1829.76 2146.92,1826.64C2144.44,1823.52 2149.11,1812.42 2146.92,1807.93C2144.73,1803.44 2135.49,1804.58 2133.8,1799.7C2131.61,1793.38 2133.8,1779.91 2133.8,1770.01C2133.8,1758.73 2134.55,1742.07 2133.8,1732C2133.24,1724.42 2130.75,1715.75 2129.33,1709.62C2128.19,1704.76 2127.71,1699.55 2125.23,1695.22C2121.86,1689.32 2115.48,1680.3 2109.07,1674.22C2102.51,1668 2092.14,1660.04 2085.86,1657.88C2081.19,1656.28 2073.21,1656.67 2071.43,1661.28C2069.02,1667.5 2072.37,1685.97 2071.43,1695.22C2070.68,1702.62 2067.94,1712.57 2065.79,1716.81C2064.55,1719.26 2061.22,1720.23 2058.51,1720.64C2054.28,1721.28 2043.58,1725.79 2040.46,1720.64C2036.69,1714.45 2038.14,1695.71 2035.95,1683.52C2033.77,1671.38 2029.84,1659.61 2027.31,1647.53C2024.44,1633.85 2020.18,1615.11 2018.75,1601.42C2017.51,1589.48 2017.33,1575.25 2018.75,1565.4C2019.93,1557.27 2027.31,1550.16 2027.31,1542.29C2027.31,1534.42 2024.04,1524.87 2018.75,1518.17C2011.59,1509.1 1995.58,1498.21 1984.35,1487.83C1972.2,1476.6 1958.05,1461.27 1945.88,1450.82C1934.99,1441.46 1922.36,1434.29 1911.32,1425.11C1899.33,1415.13 1886.39,1402.33 1873.93,1390.93C1860.63,1378.75 1843.91,1364.77 1831.49,1352.06C1820.02,1340.32 1810.7,1326.62 1799.45,1314.67C1787.55,1302.04 1768.88,1287.65 1760.12,1276.29C1753.49,1267.68 1750.7,1254.34 1746.92,1246.48C1744.06,1240.54 1741,1234.67 1737.44,1229.12C1730.25,1217.93 1714.83,1196.04 1703.79,1179.33C1690.94,1159.89 1673.15,1132.11 1660.36,1112.47C1649.29,1095.46 1639.27,1077.71 1627.08,1061.49C1614.89,1045.26 1598.48,1030.47 1587.23,1015.1C1576.68,1000.69 1567.7,983.722 1559.54,969.232C1551.99,955.799 1544.96,926.57 1538.31,928.157C1531.66,929.744 1524.99,961.589 1519.65,978.754C1513.69,997.92 1506.53,1026.05 1502.55,1043.15C1499.62,1055.75 1499.64,1069.02 1495.76,1081.36C1491.75,1094.14 1483.38,1106.67 1478.47,1119.85C1472.76,1135.15 1466.03,1155.09 1461.53,1173.19C1457,1191.41 1453.02,1213.24 1451.31,1229.12C1449.91,1242.18 1449.24,1255.56 1451.31,1268.53C1454.16,1286.35 1461.77,1315.65 1468.42,1336.05C1474.55,1354.88 1485.49,1377.56 1491.18,1390.93C1494.81,1399.45 1499.47,1407.54 1502.55,1416.27C1505.8,1425.48 1507.82,1437.61 1510.67,1446.19C1513.12,1453.57 1516.73,1460.52 1519.65,1467.72C1523.72,1477.77 1530.96,1493.2 1535.11,1506.48C1541.76,1527.71 1553.86,1571.6 1559.54,1595.11C1563.72,1612.38 1565.75,1630.1 1569.22,1647.53C1572.73,1665.1 1577.57,1684.67 1580.57,1700.5C1583.2,1714.42 1585.4,1728.43 1587.23,1742.48C1589.38,1759.02 1592.5,1780.54 1593.48,1799.7C1594.52,1820.13 1594.52,1845.6 1593.48,1865.04C1592.56,1882.23 1588.62,1899.15 1587.23,1916.32C1585.57,1936.78 1584.32,1963.98 1583.51,1987.84C1582.4,2020.89 1582.36,2073.85 1580.57,2114.63C1578.83,2153.98 1574.62,2200.36 1572.73,2232.54C1571.26,2257.57 1570.89,2289.07 1569.22,2307.68C1568.12,2320 1562.72,2331.85 1562.72,2344.22C1562.72,2365.08 1564.1,2404.13 1569.22,2432.82C1574.32,2461.36 1586.1,2488.3 1593.48,2516.34C1603.12,2552.99 1621.48,2608.52 1627.08,2652.73C1632.48,2695.34 1628.89,2746.06 1627.08,2781.57C1625.63,2809.85 1618.83,2839.27 1616.18,2865.81C1613.69,2890.76 1613.45,2915.88 1611.17,2940.84C1608.46,2970.37 1602.91,3016.26 1599.96,3042.98C1597.82,3062.39 1593.48,3081.66 1593.48,3101.18C1593.48,3130.53 1594.36,3196.6 1599.96,3219.07C1602.54,3229.41 1621.16,3233.19 1627.08,3236.01C1629.6,3237.22 1632.79,3235.23 1635.48,3236.01C1638.83,3236.99 1643.03,3240.51 1647.17,3241.87C1651.32,3243.24 1656.66,3242.37 1660.36,3244.19C1664.06,3246 1665.71,3251.35 1669.37,3252.78C1673.04,3254.22 1679.29,3250.56 1682.34,3252.78C1685.39,3255.01 1687.68,3261.35 1687.68,3266.14C1687.68,3273.06 1686.89,3285.97 1682.34,3294.32C1677.78,3302.68 1667.09,3308.39 1660.36,3316.26C1652.55,3325.4 1643.68,3338.23 1635.48,3349.14C1627.33,3359.99 1618.17,3373.51 1611.17,3381.77C1605.89,3387.99 1599.3,3394.09 1593.48,3398.7C1588.17,3402.91 1582.85,3407.97 1576.25,3409.46C1568.28,3411.25 1555.11,3411.25 1545.68,3409.46C1536.45,3407.71 1526,3403.32 1519.65,3398.7C1514.04,3394.63 1509.66,3388.38 1507.56,3381.77C1505.02,3373.77 1503.9,3360.5 1504.41,3350.72C1504.91,3341.28 1510.14,3330.33 1510.67,3323.06C1511.06,3317.64 1508.44,3312.43 1507.56,3307.08C1506.52,3300.73 1505.08,3292.4 1504.41,3285C1503.58,3275.71 1503.99,3259.53 1502.55,3251.36C1501.58,3245.86 1496.14,3241.6 1495.76,3236.01C1495.37,3230.27 1499.09,3223.28 1500.22,3216.9C1501.34,3210.57 1502.35,3204.19 1502.55,3197.76C1502.94,3185.31 1503.68,3160.34 1502.55,3142.17C1501.43,3124.24 1498.4,3106.17 1495.76,3088.72C1493.17,3071.56 1489.61,3054.55 1486.72,3037.44C1482.16,3010.46 1474.32,2957.84 1468.42,2926.82C1463.6,2901.47 1456.34,2876.63 1451.31,2851.32C1445.85,2823.79 1437.86,2791.88 1435.63,2761.61C1433.02,2725.96 1437.9,2670.91 1435.63,2637.46C1433.89,2611.61 1429.92,2585.14 1422.07,2560.92C1414.23,2536.7 1393.78,2517.12 1388.55,2492.16C1380.98,2456.05 1381.78,2383.51 1376.64,2344.22C1372.77,2314.55 1362.1,2281.21 1357.73,2256.45C1354.19,2236.37 1354.34,2215.72 1350.46,2195.7C1345.88,2172.06 1335.86,2141.91 1330.26,2114.63C1324.42,2086.14 1321.47,2054.48 1315.38,2024.72C1308.74,1992.24 1299.62,1947.65 1290.4,1919.73C1286.63,1908.34 1281.85,1878.63 1271.44,1852.4C1262.98,1831.06 1249.12,1812.01 1242.66,1806.98C1228.26,1795.75 1212.8,1833.08 1204.02,1852.4C1197.58,1866.57 1197.93,1892.61 1188.59,1929.37C1181.42,1957.53 1171.76,1991.95 1165.41,2022.45C1159.23,2052.2 1156.37,2083.87 1150.53,2112.36C1144.93,2139.64 1134.9,2169.79 1130.33,2193.43C1126.45,2213.45 1126.6,2234.1 1123.06,2254.19C1118.69,2278.94 1108.03,2312.28 1104.15,2341.96C1099.01,2381.24 1099.81,2453.78 1092.24,2489.9C1087.01,2514.85 1066.57,2534.44 1058.72,2558.65C1050.87,2582.87 1046.9,2609.34 1045.16,2635.19C1042.89,2668.64 1047.77,2723.7 1045.16,2759.34C1042.94,2789.62 1034.94,2821.52 1029.48,2849.05C1024.46,2874.36 1017.19,2899.2 1012.37,2924.55C1006.47,2955.57 998.632,3008.19 994.075,3035.17C991.185,3052.29 987.625,3069.29 985.031,3086.45C982.392,3103.9 979.357,3121.97 978.241,3139.9C977.109,3158.07 977.853,3183.04 978.241,3195.5C978.441,3201.92 979.447,3208.31 980.57,3214.64C981.701,3221.01 985.419,3228 985.031,3233.75C984.653,3239.33 979.214,3243.59 978.241,3249.1C976.799,3257.26 977.212,3273.44 976.377,3282.73C975.711,3290.13 974.272,3298.47 973.229,3304.81C972.349,3310.16 969.731,3315.38 970.122,3320.79C970.646,3328.06 975.877,3339.01 976.377,3348.45C976.895,3358.24 975.768,3371.5 973.229,3379.5C971.131,3386.11 966.753,3392.36 961.142,3396.44C954.79,3401.05 944.338,3405.44 935.115,3407.19C925.682,3408.99 912.512,3408.99 904.544,3407.19C897.938,3405.71 892.617,3400.64 887.312,3396.44C881.492,3391.82 874.901,3385.73 869.624,3379.5C862.624,3371.24 853.458,3357.72 845.314,3346.88C837.114,3335.96 828.237,3323.13 820.427,3313.99C813.702,3306.13 803.007,3300.41 798.454,3292.06C793.902,3283.7 793.113,3270.8 793.113,3263.87C793.113,3259.08 795.403,3252.74 798.454,3250.52C801.505,3248.29 807.756,3251.95 811.418,3250.52C815.08,3249.08 816.727,3243.74 820.427,3241.92C824.127,3240.1 829.469,3240.97 833.616,3239.61C837.76,3238.25 841.964,3234.72 845.314,3233.75C848.002,3232.97 851.187,3234.95 853.714,3233.75C859.633,3230.92 878.252,3227.14 880.829,3216.8C886.429,3194.33 887.312,3128.26 887.312,3098.92C887.312,3079.4 882.97,3060.12 880.829,3040.72C877.881,3013.99 872.327,2968.1 869.624,2938.58C867.339,2913.62 867.1,2888.49 864.608,2863.55C861.957,2837 855.159,2807.58 853.714,2779.3C851.898,2743.79 848.316,2693.07 853.714,2650.46C859.313,2606.26 877.669,2550.73 887.312,2514.08C894.688,2486.04 906.469,2459.09 911.569,2430.55C916.694,2401.86 918.067,2362.81 918.067,2341.96C918.067,2329.58 912.673,2317.74 911.569,2305.41C909.9,2286.8 909.529,2255.3 908.058,2230.27C906.167,2198.09 901.959,2151.71 900.225,2112.36C898.428,2071.58 898.387,2018.62 897.277,1985.57C896.475,1961.71 895.224,1934.52 893.564,1914.05C892.171,1896.89 888.234,1879.97 887.312,1862.77C886.27,1843.34 886.27,1817.86 887.312,1797.44C888.289,1778.27 891.411,1756.75 893.564,1740.21C895.393,1726.16 897.585,1712.15 900.225,1698.23C903.226,1682.41 908.065,1662.83 911.569,1645.26C915.045,1627.84 917.07,1610.11 921.247,1592.84C926.932,1569.33 939.029,1525.44 945.678,1504.21C949.835,1490.94 957.068,1475.5 961.142,1465.46C964.064,1458.25 967.669,1451.3 970.122,1443.92C972.972,1435.35 974.993,1423.21 978.241,1414C981.32,1405.27 985.986,1397.18 989.611,1388.66C995.3,1375.29 1006.24,1352.61 1012.37,1333.78C1019.02,1313.38 1026.63,1284.08 1029.48,1266.26C1031.55,1253.29 1030.88,1239.92 1029.48,1226.86C1027.78,1210.97 1023.79,1189.14 1019.26,1170.92C1014.76,1152.82 1008.03,1132.88 1002.32,1117.58C997.411,1104.4 989.044,1091.87 985.031,1079.09C981.155,1066.75 981.174,1053.48 978.241,1040.88C974.26,1023.78 967.103,995.653 961.142,976.487C955.804,959.322 949.127,927.477 942.478,925.89C935.828,924.303 928.804,953.532 921.247,966.965C913.094,981.455 904.112,998.422 893.564,1012.83C882.308,1028.21 865.903,1042.99 853.714,1059.22C841.524,1075.45 831.5,1093.19 820.427,1110.21C807.642,1129.85 789.848,1157.62 777.003,1177.06C765.96,1193.78 750.543,1215.67 743.355,1226.86C739.793,1232.4 736.732,1238.27 733.875,1244.21C730.094,1252.07 727.303,1265.41 720.671,1274.02C711.916,1285.38 693.237,1299.77 681.342,1312.4C670.088,1324.35 660.768,1338.05 649.299,1349.79C636.885,1362.5 620.164,1376.48 606.86,1388.66C594.402,1400.06 581.462,1412.86 569.471,1422.84C558.436,1432.03 545.803,1439.19 534.911,1448.55C522.74,1459 508.588,1474.33 496.442,1485.56C485.212,1495.94 469.198,1506.83 462.038,1515.91C456.755,1522.6 453.482,1532.15 453.482,1540.02C453.482,1547.89 460.861,1555 462.038,1563.13C463.464,1572.99 463.282,1587.21 462.038,1599.16C460.612,1612.85 456.348,1631.58 453.482,1645.26C450.952,1657.34 447.025,1669.11 444.842,1681.25C442.651,1693.44 444.096,1712.19 440.336,1718.38C437.211,1723.52 426.505,1719.01 422.283,1718.38C419.57,1717.97 416.243,1716.99 415,1714.54C412.847,1710.31 410.113,1700.36 409.362,1692.96C408.423,1683.7 411.768,1665.23 409.362,1659.01C407.581,1654.4 399.603,1654.01 394.93,1655.62C388.656,1657.77 378.282,1665.73 371.72,1671.95C365.311,1678.03 358.934,1687.06 355.558,1692.96C353.08,1697.29 352.597,1702.5 351.465,1707.36C350.037,1713.49 347.552,1722.15 346.99,1729.74C346.244,1739.8 346.99,1756.46 346.99,1767.75C346.99,1777.64 349.176,1791.12 346.99,1797.44C345.302,1802.32 336.058,1801.18 333.871,1805.67C331.685,1810.16 336.35,1821.26 333.871,1824.38C331.393,1827.49 322.853,1827.49 319.001,1824.38C314.234,1820.52 308.996,1808.63 305.271,1801.23C301.834,1794.4 298.69,1787.34 296.65,1779.97C294.306,1771.51 292.037,1760.41 291.207,1750.44C290.3,1739.54 290.3,1726.07 291.207,1714.54C292.089,1703.33 295.743,1689.26 296.65,1681.25C297.203,1676.37 296.022,1671.38 296.65,1666.51C297.557,1659.46 298.006,1647.39 302.094,1638.97C309.611,1623.49 330.685,1592.82 341.755,1573.63C351.171,1557.31 360.557,1538.51 368.512,1523.83C375.443,1511.04 382.042,1498.06 389.487,1485.56C398.448,1470.52 411.213,1450.81 422.283,1433.57C433.89,1415.48 446.815,1395.88 459.133,1377.07C471.492,1358.2 484.331,1339.45 496.442,1320.32C511.416,1296.68 532.527,1257.31 548.976,1235.19C562.165,1217.44 578.583,1202.22 595.136,1187.56C611.856,1172.76 635.617,1161.62 649.299,1146.37C662.108,1132.1 667.502,1112.59 677.225,1096.06C690.743,1073.07 712.685,1037.66 730.406,1008.45C748.194,979.133 772.164,941.925 783.956,920.148C791.212,906.748 796.322,892.243 801.154,877.79C807.233,859.609 812.343,832.757 820.427,811.062C829.187,787.555 841.524,756.333 853.714,736.745C864.066,720.11 876.581,703.309 893.564,693.537C911.468,683.235 946.641,677.272 961.142,674.931C967.709,673.871 974.085,680.974 980.57,679.492C992.69,676.721 1016.6,666.509 1033.87,658.304C1057.62,647.02 1105.99,624.455 1123.06,611.79C1131.71,605.372 1133.09,592.598 1136.28,582.31C1139.72,571.178 1142.68,557.641 1143.71,545.002C1144.95,529.806 1145.95,503.877 1143.71,491.135C1142.21,482.515 1133.36,476.761 1130.33,468.55C1126.1,457.106 1123.32,430.149 1118.38,422.468C1115.18,417.505 1105.02,424.823 1100.67,422.468C1096.31,420.114 1094.25,413.444 1092.24,408.339C1088.22,398.081 1079.14,372.842 1076.52,360.921C1074.79,353.072 1073.9,342.584 1076.52,336.813C1079.12,331.071 1087.64,327.606 1092.24,326.295C1096.15,325.182 1103.52,332.965 1104.15,328.949C1106.13,316.246 1100.99,272.574 1104.15,250.078C1106.88,230.533 1115.33,209.482 1123.06,193.974C1129.9,180.239 1138.61,166.693 1150.53,157.028C1163.46,146.541 1186.06,136.333 1200.66,131.056C1212.54,126.761 1229.6,125.832 1238.13,125.367"/>
    <g id="lower_back" transform="matrix(1,0,0,1,-2.04998,0)">
        <path d="M1249.22,1174.43C1247.99,1195.9 1252,1271.98 1252.55,1311.83C1253.03,1345.74 1252.55,1379.65 1252.55,1413.56C1252.55,1456.89 1253.11,1538.62 1252.55,1571.81C1252.32,1585.49 1240.59,1619.32 1249.22,1612.71C1257.85,1606.11 1289.21,1553.71 1304.34,1532.16C1315.91,1515.69 1330.85,1494.91 1340,1483.42C1345.79,1476.15 1354.38,1468.32 1359.24,1463.23C1362.54,1459.78 1370.55,1455.76 1369.17,1452.92C1367.78,1450.08 1355.42,1450.86 1350.92,1446.2C1344.58,1439.64 1336.09,1425.28 1331.11,1413.56C1325.16,1399.55 1320.11,1379.37 1315.21,1362.09C1309.6,1342.28 1302.7,1314.37 1297.44,1294.72C1292.93,1277.85 1287.84,1258.75 1283.67,1244.19C1280.14,1231.83 1276.39,1217.51 1272.44,1207.32C1269.14,1198.82 1263.8,1188.49 1259.93,1183.01C1257.29,1179.27 1249.48,1169.86 1249.22,1174.43Z"/>
        <g transform="matrix(-1,0,0,1,2487.07,1.30718)">
            <path d="M1249.22,1174.43C1247.99,1195.9 1252,1271.98 1252.55,1311.83C1253.03,1345.74 1252.55,1379.65 1252.55,1413.56C1252.55,1456.89 1253.11,1538.62 1252.55,1571.81C1252.32,1585.49 1240.59,1619.32 1249.22,1612.71C1257.85,1606.11 1289.21,1553.71 1304.34,1532.16C1315.91,1515.69 1330.85,1494.91 1340,1483.42C1345.79,1476.15 1354.38,1468.32 1359.24,1463.23C1362.54,1459.78 1370.55,1455.76 1369.17,1452.92C1367.78,1450.08 1355.42,1450.86 1350.92,1446.2C1344.58,1439.64 1336.09,1425.28 1331.11,1413.56C1325.16,1399.55 1320.11,1379.37 1315.21,1362.09C1309.6,1342.28 1302.7,1314.37 1297.44,1294.72C1292.93,1277.85 1287.84,1258.75 1283.67,1244.19C1280.14,1231.83 1276.39,1217.51 1272.44,1207.32C1269.14,1198.82 1263.8,1188.49 1259.93,1183.01C1257.29,1179.27 1249.48,1169.86 1249.22,1174.43Z"/>
        </g>
    </g>
    <g id="forearms">
        <path d="M682.422,1309.69C684.503,1303.74 663.377,1316.83 661.352,1311.48C659.327,1306.12 673.854,1283.2 670.272,1277.55C666.689,1271.89 649.475,1274.34 639.857,1277.55C629.554,1280.98 617.872,1292.8 608.455,1298.15C600.451,1302.71 585.223,1316.74 583.355,1309.69C581.487,1302.63 594.064,1270.38 597.246,1255.84C599.654,1244.85 599.147,1233.23 602.45,1222.48C605.752,1211.72 610.929,1201.01 617.063,1191.31C623.298,1181.45 645.475,1161.3 639.857,1163.32C634.239,1165.34 596.934,1192.03 583.355,1203.42C573.728,1211.49 566.348,1221.93 558.382,1231.65C549.945,1241.94 540.665,1253.54 532.736,1265.16C522.708,1279.85 508.747,1303.42 498.211,1319.81C488.79,1334.46 479.134,1348.96 469.519,1363.49C458.374,1380.33 443.818,1401.83 431.344,1420.84C418.993,1439.67 403.832,1462.71 394.678,1477.58C388.168,1488.16 380.819,1501.24 376.422,1510.06C373.152,1516.61 365.978,1530.48 368.296,1530.48C370.614,1530.48 384.009,1515.65 390.329,1510.06C395.476,1505.5 401.65,1500.25 406.214,1496.9C409.821,1494.26 416.378,1489.18 417.714,1489.99C419.05,1490.8 415.899,1498.03 414.232,1501.77C411.224,1508.52 396.817,1526.97 399.669,1530.48C402.521,1533.99 421.815,1528.04 431.344,1522.82C443.676,1516.08 459.587,1500.98 473.66,1489.99C488.5,1478.41 506.263,1463.83 520.384,1453.32C532.756,1444.11 546.359,1436.25 558.382,1426.91C570.282,1417.66 581.214,1407.23 592.521,1397.27C607.601,1383.98 633.881,1361.78 648.865,1347.18C660.879,1335.48 680.341,1315.64 682.422,1309.69Z"/>
        <g transform="matrix(-1,0,0,1,2478.7,0.91194)">
            <path d="M682.422,1309.69C684.503,1303.74 663.377,1316.83 661.352,1311.48C659.327,1306.12 673.854,1283.2 670.272,1277.55C666.689,1271.89 649.475,1274.34 639.857,1277.55C629.554,1280.98 617.872,1292.8 608.455,1298.15C600.451,1302.71 585.223,1316.74 583.355,1309.69C581.487,1302.63 594.064,1270.38 597.246,1255.84C599.654,1244.85 599.147,1233.23 602.45,1222.48C605.752,1211.72 610.929,1201.01 617.063,1191.31C623.298,1181.45 645.475,1161.3 639.857,1163.32C634.239,1165.34 596.934,1192.03 583.355,1203.42C573.728,1211.49 566.348,1221.93 558.382,1231.65C549.945,1241.94 540.665,1253.54 532.736,1265.16C522.708,1279.85 508.747,1303.42 498.211,1319.81C488.79,1334.46 479.134,1348.96 469.519,1363.49C458.374,1380.33 443.818,1401.83 431.344,1420.84C418.993,1439.67 403.832,1462.71 394.678,1477.58C388.168,1488.16 380.819,1501.24 376.422,1510.06C373.152,1516.61 365.978,1530.48 368.296,1530.48C370.614,1530.48 384.009,1515.65 390.329,1510.06C395.476,1505.5 401.65,1500.25 406.214,1496.9C409.821,1494.26 416.378,1489.18 417.714,1489.99C419.05,1490.8 415.899,1498.03 414.232,1501.77C411.224,1508.52 396.817,1526.97 399.669,1530.48C402.521,1533.99 421.815,1528.04 431.344,1522.82C443.676,1516.08 459.587,1500.98 473.66,1489.99C488.5,1478.41 506.263,1463.83 520.384,1453.32C532.756,1444.11 546.359,1436.25 558.382,1426.91C570.282,1417.66 581.214,1407.23 592.521,1397.27C607.601,1383.98 633.881,1361.78 648.865,1347.18C660.879,1335.48 680.341,1315.64 682.422,1309.69Z"/>
        </g>
    </g>
    <g id="triceps">
        <path d="M1551.36,879.271C1558.27,880.687 1572.78,893.971 1580.73,901.509C1587.84,908.253 1592.69,917.287 1599.05,924.499C1605.3,931.591 1612.65,937.662 1618.88,944.781C1626,952.936 1634.17,963.86 1641.79,973.425C1650.44,984.286 1663.29,996.322 1670.77,1009.95C1678.54,1024.12 1681.27,1042.8 1688.43,1058.44C1697.59,1078.47 1719.52,1116.08 1725.74,1130.1C1727.43,1133.89 1729.52,1144.27 1725.74,1142.55C1719.52,1139.71 1697.59,1121.02 1688.43,1113.08C1682.05,1107.54 1676.95,1100.65 1670.77,1094.88C1664.23,1088.79 1655.11,1081.03 1649.22,1076.5C1644.9,1073.16 1639.5,1071.3 1635.43,1067.66C1630.37,1063.13 1624.26,1055.54 1618.88,1049.32C1610.55,1039.7 1594.78,1022.6 1585.5,1009.95C1577.06,998.446 1568.89,984.286 1563.2,973.425C1558.41,964.273 1555.35,952.936 1551.36,944.781C1547.91,937.715 1541.1,932.158 1539.32,924.499C1537.31,915.872 1537.31,900.553 1539.32,893.015C1540.89,887.129 1545.4,878.047 1551.36,879.271Z"/>
        <path d="M1720.55,1015.48C1712.16,1012.41 1701.34,1012.59 1693.98,1012.01C1688.14,1011.55 1680.71,1015.98 1676.4,1012.01C1665.46,1001.93 1643.49,970.013 1628.31,951.563C1614.31,934.541 1587.45,910.627 1585.34,901.308C1583.22,891.988 1605.56,896.59 1615.62,895.647C1625.6,894.71 1635.87,893.657 1645.7,895.647C1655.83,897.698 1669.16,904.368 1676.4,907.953C1681.1,910.277 1685.71,913.2 1689.15,917.152C1693.64,922.303 1698.52,931.682 1703.33,938.859C1709.81,948.519 1721.04,964.011 1728.04,975.111C1734.25,984.959 1739.29,995.507 1745.33,1005.46C1751.98,1016.42 1760.97,1028.72 1767.96,1040.86C1776.27,1055.3 1795.2,1089.68 1795.2,1092.12C1795.2,1094.55 1776.27,1065.69 1767.96,1055.48C1760.92,1046.82 1753.23,1037.48 1745.33,1030.81C1737.9,1024.55 1729.11,1018.61 1720.55,1015.48Z"/>
        <path d="M1830.09,1266.15C1830.09,1274.11 1796.1,1273.45 1783.22,1264.6C1763.33,1250.92 1732.75,1212.13 1710.72,1184.09C1688.87,1156.29 1662.94,1114.87 1651.06,1096.39C1646.38,1089.11 1634.62,1071.13 1639.44,1073.17C1644.27,1075.21 1666.79,1096.84 1680.01,1108.63C1693.04,1120.26 1709.41,1137.03 1718.76,1143.93C1723.68,1147.56 1731.64,1145.81 1736.07,1150.03C1742.19,1155.88 1748.8,1169.51 1755.51,1179.02C1763.37,1190.15 1773.06,1204.96 1783.22,1216.83C1795.65,1231.35 1830.09,1258.19 1830.09,1266.15Z"/>
        <g transform="matrix(-1,0,0,1,2481.68,-1.00454)">
            <path d="M1551.36,879.271C1558.27,880.687 1572.78,893.971 1580.73,901.509C1587.84,908.253 1592.69,917.287 1599.05,924.499C1605.3,931.591 1612.65,937.662 1618.88,944.781C1626,952.936 1634.17,963.86 1641.79,973.425C1650.44,984.286 1663.29,996.322 1670.77,1009.95C1678.54,1024.12 1681.27,1042.8 1688.43,1058.44C1697.59,1078.47 1719.52,1116.08 1725.74,1130.1C1727.43,1133.89 1729.52,1144.27 1725.74,1142.55C1719.52,1139.71 1697.59,1121.02 1688.43,1113.08C1682.05,1107.54 1676.95,1100.65 1670.77,1094.88C1664.23,1088.79 1655.11,1081.03 1649.22,1076.5C1644.9,1073.16 1639.5,1071.3 1635.43,1067.66C1630.37,1063.13 1624.26,1055.54 1618.88,1049.32C1610.55,1039.7 1594.78,1022.6 1585.5,1009.95C1577.06,998.446 1568.89,984.286 1563.2,973.425C1558.41,964.273 1555.35,952.936 1551.36,944.781C1547.91,937.715 1541.1,932.158 1539.32,924.499C1537.31,915.872 1537.31,900.553 1539.32,893.015C1540.89,887.129 1545.4,878.047 1551.36,879.271Z"/>
        </g>
        <g transform="matrix(-1,0,0,1,2481.68,-1.00454)">
            <path d="M1720.55,1015.48C1712.16,1012.41 1701.34,1012.59 1693.98,1012.01C1688.14,1011.55 1680.71,1015.98 1676.4,1012.01C1665.46,1001.93 1643.49,970.013 1628.31,951.563C1614.31,934.541 1587.45,910.627 1585.34,901.308C1583.22,891.988 1605.56,896.59 1615.62,895.647C1625.6,894.71 1635.87,893.657 1645.7,895.647C1655.83,897.698 1669.16,904.368 1676.4,907.953C1681.1,910.277 1685.71,913.2 1689.15,917.152C1693.64,922.303 1698.52,931.682 1703.33,938.859C1709.81,948.519 1721.04,964.011 1728.04,975.111C1734.25,984.959 1739.29,995.507 1745.33,1005.46C1751.98,1016.42 1760.97,1028.72 1767.96,1040.86C1776.27,1055.3 1795.2,1089.68 1795.2,1092.12C1795.2,1094.55 1776.27,1065.69 1767.96,1055.48C1760.92,1046.82 1753.23,1037.48 1745.33,1030.81C1737.9,1024.55 1729.11,1018.61 1720.55,1015.48Z"/>
        </g>
        <g transform="matrix(-1,0,0,1,2481.68,-1.00454)">
            <path d="M1830.09,1266.15C1830.09,1274.11 1796.1,1273.45 1783.22,1264.6C1763.33,1250.92 1732.75,1212.13 1710.72,1184.09C1688.87,1156.29 1662.94,1114.87 1651.06,1096.39C1646.38,1089.11 1634.62,1071.13 1639.44,1073.17C1644.27,1075.21 1666.79,1096.84 1680.01,1108.63C1693.04,1120.26 1709.41,1137.03 1718.76,1143.93C1723.68,1147.56 1731.64,1145.81 1736.07,1150.03C1742.19,1155.88 1748.8,1169.51 1755.51,1179.02C1763.37,1190.15 1773.06,1204.96 1783.22,1216.83C1795.65,1231.35 1830.09,1258.19 1830.09,1266.15Z"/>
        </g>
    </g>
    <g id="middle_back" transform="matrix(0.978766,0,0,0.978766,28.4632,25.4783)">
        <path d="M947.232,886.823C955.405,884.235 981.138,895.274 996.268,900.07C1010.42,904.555 1024.48,909.487 1038.01,915.598C1052.02,921.924 1068.14,930.157 1080.31,938.024C1091.35,945.165 1103.09,956.424 1111.02,962.8C1116.62,967.308 1127.86,972.811 1127.86,976.282C1127.86,979.754 1117.08,982.778 1111.02,983.628C1102.28,984.852 1087.24,984.815 1075.44,983.628C1063.27,982.403 1049.03,979.754 1038.01,976.282C1027.94,973.109 1018.04,966.719 1009.36,962.8C1001.61,959.305 993.397,956.12 985.923,952.771C978.727,949.547 969.734,945.164 964.514,942.707C961.208,941.15 956.566,941.105 954.601,938.024C951.721,933.506 948.353,923.386 947.232,915.598C946.004,907.064 939.059,889.411 947.232,886.823Z"/>
        <g transform="matrix(-0.963183,0,0,0.963316,2445.42,38.1262)">
            <path d="M947.232,886.823C955.405,884.235 981.138,895.274 996.268,900.07C1010.42,904.555 1024.48,909.487 1038.01,915.598C1052.02,921.924 1068.14,930.157 1080.31,938.024C1091.35,945.165 1103.09,956.424 1111.02,962.8C1116.62,967.308 1127.86,972.811 1127.86,976.282C1127.86,979.754 1117.08,982.778 1111.02,983.628C1102.28,984.852 1087.24,984.815 1075.44,983.628C1063.27,982.403 1049.03,979.754 1038.01,976.282C1027.94,973.109 1018.04,966.719 1009.36,962.8C1001.61,959.305 993.397,956.12 985.923,952.771C978.727,949.547 969.734,945.164 964.514,942.707C961.208,941.15 956.566,941.105 954.601,938.024C951.721,933.506 948.353,923.386 947.232,915.598C946.004,907.064 939.059,889.411 947.232,886.823Z"/>
        </g>
        <g transform="matrix(1,0,0,0.980833,0,27.6849)">
            <path d="M1393.56,1434.6C1387.72,1447.19 1361.54,1447.2 1351.99,1437.13C1339.76,1424.21 1328.6,1384.56 1320.18,1357.13C1309.61,1322.68 1297.87,1265.11 1288.54,1230.44C1281.19,1203.11 1261.84,1177.29 1264.22,1149.09C1266.98,1116.51 1295.74,1062.16 1305.07,1034.94C1310.62,1018.72 1304.96,993.671 1320.18,985.768C1335.96,977.573 1376.17,987.632 1399.76,985.768C1420.67,984.116 1441.56,980.465 1461.7,974.589C1482.14,968.626 1518.68,929.897 1522.41,949.991C1526.13,970.084 1496.83,1053.15 1484.04,1095.15C1473.02,1131.34 1457.09,1167.88 1445.7,1201.98C1434.9,1234.3 1423.16,1266.46 1415.7,1299.71C1407.01,1338.48 1404.18,1411.7 1393.56,1434.6Z"/>
        </g>
        <g transform="matrix(-1,0,0,1,2482.11,2.92102)">
            <path d="M1393.56,1434.6C1387.72,1447.19 1361.54,1447.2 1351.99,1437.13C1339.76,1424.21 1328.6,1384.56 1320.18,1357.13C1309.61,1322.68 1297.87,1265.11 1288.54,1230.44C1281.19,1203.11 1261.84,1177.29 1264.22,1149.09C1266.98,1116.51 1295.74,1062.16 1305.07,1034.94C1310.62,1018.72 1304.96,993.671 1320.18,985.768C1335.96,977.573 1376.17,987.632 1399.76,985.768C1420.67,984.116 1441.56,980.465 1461.7,974.589C1482.14,968.626 1518.68,929.897 1522.41,949.991C1526.13,970.084 1496.83,1053.15 1484.04,1095.15C1473.02,1131.34 1457.09,1167.88 1445.7,1201.98C1434.9,1234.3 1423.16,1266.46 1415.7,1299.71C1407.01,1338.48 1404.18,1411.7 1393.56,1434.6Z"/>
        </g>
    </g>
    <g id="shoulders" transform="matrix(0.99123,0,0,0.99123,8.16331,6.15536)">
        <g transform="matrix(1,0,0,0.973774,0,25.6699)">
            <path d="M969.075,859.774C971.091,872.934 1004.21,889.301 1021.74,900.775C1038.31,911.625 1057.44,918.121 1074.24,928.619C1091.11,939.164 1108.3,956.806 1122.98,964.045C1134.99,969.963 1157.86,979.455 1162.33,972.047C1166.81,964.639 1156.04,936.459 1149.81,919.597C1143.25,901.829 1130.51,884.129 1122.98,865.441C1114.69,844.855 1106.59,811.819 1100.09,796.081C1096.3,786.903 1093.26,771.017 1083.99,771.017C1074.72,771.017 1056.89,787.615 1044.5,796.081C1032.58,804.229 1020.68,812.497 1009.64,821.815C997.072,832.431 967.06,846.614 969.075,859.774Z"/>
        </g>
        <g transform="matrix(-1,0,0,0.947656,2490.89,49.751)">
            <path d="M969.075,859.774C971.091,872.934 1004.21,889.301 1021.74,900.775C1038.31,911.625 1057.44,918.121 1074.24,928.619C1091.11,939.164 1108.3,956.806 1122.98,964.045C1134.99,969.963 1157.86,979.455 1162.33,972.047C1166.81,964.639 1156.04,936.459 1149.81,919.597C1143.25,901.829 1130.51,884.129 1122.98,865.441C1114.69,844.855 1106.59,811.819 1100.09,796.081C1096.3,786.903 1093.26,771.017 1083.99,771.017C1074.72,771.017 1056.89,787.615 1044.5,796.081C1032.58,804.229 1020.68,812.497 1009.64,821.815C997.072,832.431 967.06,846.614 969.075,859.774Z"/>
        </g>
        <g transform="matrix(1,0,0,1,-3.65235,-0.647576)">
            <path d="M1448.42,800.184C1456.39,813.729 1480.56,821.752 1496.25,833.072C1512.95,845.124 1532.61,862.67 1548.65,872.492C1562.3,880.847 1576.79,889.004 1592.51,892.007C1609.53,895.26 1635.37,889.388 1650.8,892.007C1663.19,894.111 1680.84,910.972 1685.08,907.72C1689.33,904.467 1679.19,884.242 1676.28,872.492C1672.62,857.669 1668.69,836.345 1663.09,818.778C1657.25,800.42 1649.81,779.306 1641.2,762.345C1633.02,746.226 1620.67,727.488 1611.44,717.011C1604.6,709.246 1595.25,703.722 1585.82,699.481C1575.35,694.778 1559.37,690.577 1548.65,688.796C1539.73,687.313 1529.54,684.632 1521.52,688.796C1510.25,694.637 1493.25,713.34 1481.07,723.841C1470.21,733.195 1453.86,739.078 1448.42,751.802C1442.98,764.526 1440.45,786.639 1448.42,800.184Z"/>
        </g>
        <g transform="matrix(-1,0,0,1,2484.52,-2.57456)">
            <path d="M1448.42,800.184C1456.39,813.729 1480.56,821.752 1496.25,833.072C1512.95,845.124 1532.61,862.67 1548.65,872.492C1562.3,880.847 1576.79,889.004 1592.51,892.007C1609.53,895.26 1635.37,889.388 1650.8,892.007C1663.19,894.111 1680.84,910.972 1685.08,907.72C1689.33,904.467 1679.19,884.242 1676.28,872.492C1672.62,857.669 1668.69,836.345 1663.09,818.778C1657.25,800.42 1649.81,779.306 1641.2,762.345C1633.02,746.226 1620.67,727.488 1611.44,717.011C1604.6,709.246 1595.25,703.722 1585.82,699.481C1575.35,694.778 1559.37,690.577 1548.65,688.796C1539.73,687.313 1529.54,684.632 1521.52,688.796C1510.25,694.637 1493.25,713.34 1481.07,723.841C1470.21,733.195 1453.86,739.078 1448.42,751.802C1442.98,764.526 1440.45,786.639 1448.42,800.184Z"/>
        </g>
    </g>
    <g id="hamstrings">
        <g transform="matrix(1,0,0,0.975252,1.52564,52.186)">
            <path d="M902.139,2497.34C910.216,2493.28 943.315,2451.35 958.933,2424.95C974.632,2398.42 986.46,2366.55 996.335,2338.14C1005.79,2310.93 1014.54,2244.91 1018.18,2254.54C1021.82,2264.16 1015.65,2364.45 1018.18,2395.88C1019.51,2412.37 1028.93,2429.95 1033.36,2443.13C1036.94,2453.82 1040.47,2467.29 1044.73,2474.98C1047.98,2480.85 1054.56,2494.4 1058.89,2489.27C1065.92,2480.93 1080.5,2446.71 1086.95,2424.95C1093.3,2403.52 1093.78,2380.76 1097.6,2358.73C1103.02,2327.49 1112.26,2274.18 1119.45,2237.51C1125.94,2204.44 1135.49,2169.61 1140.76,2138.69C1145.65,2109.98 1149.35,2080.25 1151.07,2051.95C1152.75,2024.31 1148.89,1995.85 1151.07,1968.88C1153.22,1942.34 1169.46,1900.64 1164.19,1890.09C1158.92,1879.54 1134.77,1901.76 1119.45,1905.57C1103.35,1909.58 1077.59,1899.78 1067.53,1914.16C1056.11,1930.49 1054.73,2002.54 1050.93,2003.52C1047.13,2004.5 1050.19,1933.96 1044.73,1920.05C1041.5,1911.81 1026.91,1918.58 1018.18,1920.05C1006.52,1922.02 987.25,1927.2 974.748,1931.86C963.668,1935.99 951.079,1944.37 943.169,1948.03C938.058,1950.39 928.38,1948.26 927.289,1953.78C924.643,1967.18 928.555,2005.49 927.289,2028.44C926.124,2049.57 920.842,2070.34 919.697,2091.48C918.431,2114.82 919.697,2142.83 919.697,2168.5L919.697,2327.6C919.697,2345.66 921.072,2364.04 919.697,2382.18C918.159,2402.46 913.395,2430.08 910.469,2449.27C908.017,2465.34 894.061,2501.39 902.139,2497.34Z"/>
        </g>
        <g transform="matrix(-1,0,0,0.976764,2486.38,49.9573)">
            <path d="M902.139,2497.34C910.216,2493.28 943.315,2451.35 958.933,2424.95C974.632,2398.42 986.46,2366.55 996.335,2338.14C1005.79,2310.93 1014.54,2244.91 1018.18,2254.54C1021.82,2264.16 1015.65,2364.45 1018.18,2395.88C1019.51,2412.37 1028.93,2429.95 1033.36,2443.13C1036.94,2453.82 1040.47,2467.29 1044.73,2474.98C1047.98,2480.85 1054.56,2494.4 1058.89,2489.27C1065.92,2480.93 1080.5,2446.71 1086.95,2424.95C1093.3,2403.52 1093.78,2380.76 1097.6,2358.73C1103.02,2327.49 1112.26,2274.18 1119.45,2237.51C1125.94,2204.44 1135.49,2169.61 1140.76,2138.69C1145.65,2109.98 1149.35,2080.25 1151.07,2051.95C1152.75,2024.31 1148.89,1995.85 1151.07,1968.88C1153.22,1942.34 1169.46,1900.64 1164.19,1890.09C1158.92,1879.54 1134.77,1901.76 1119.45,1905.57C1103.35,1909.58 1077.59,1899.78 1067.53,1914.16C1056.11,1930.49 1054.73,2002.54 1050.93,2003.52C1047.13,2004.5 1050.19,1933.96 1044.73,1920.05C1041.5,1911.81 1026.91,1918.58 1018.18,1920.05C1006.52,1922.02 987.25,1927.2 974.748,1931.86C963.668,1935.99 951.079,1944.37 943.169,1948.03C938.058,1950.39 928.38,1948.26 927.289,1953.78C924.643,1967.18 928.555,2005.49 927.289,2028.44C926.124,2049.57 920.842,2070.34 919.697,2091.48C918.431,2114.82 919.697,2142.83 919.697,2168.5L919.697,2327.6C919.697,2345.66 921.072,2364.04 919.697,2382.18C918.159,2402.46 913.395,2430.08 910.469,2449.27C908.017,2465.34 894.061,2501.39 902.139,2497.34Z"/>
        </g>
    </g>
    <g id="abductors">
        <path d="M1510.42,1449.48C1510.9,1455.81 1484.62,1440.48 1473.15,1433.26C1459.68,1424.78 1439.98,1406.05 1429.57,1398.57C1423.76,1394.39 1412.24,1395.36 1410.68,1388.38C1408.08,1376.66 1411.85,1345.14 1413.92,1328.3C1415.63,1314.42 1419.67,1300.32 1423.13,1287.35C1426.46,1274.91 1431.16,1256.63 1434.7,1250.49C1436.3,1247.7 1442.84,1247.65 1444.35,1250.49C1447.61,1256.63 1451.23,1275 1454.3,1287.35C1457.53,1300.32 1459.43,1314.97 1463.71,1328.3C1468.46,1343.09 1477.28,1363.56 1482.81,1376.08C1486.94,1385.46 1493.23,1393.85 1496.84,1403.44C1501.45,1415.67 1509.9,1442.51 1510.42,1449.48Z"/>
        <g transform="matrix(-1,0,0,1,2482.19,-1.26699)">
            <path d="M1510.42,1449.48C1510.9,1455.81 1484.62,1440.48 1473.15,1433.26C1459.68,1424.78 1439.98,1406.05 1429.57,1398.57C1423.76,1394.39 1412.24,1395.36 1410.68,1388.38C1408.08,1376.66 1411.85,1345.14 1413.92,1328.3C1415.63,1314.42 1419.67,1300.32 1423.13,1287.35C1426.46,1274.91 1431.16,1256.63 1434.7,1250.49C1436.3,1247.7 1442.84,1247.65 1444.35,1250.49C1447.61,1256.63 1451.23,1275 1454.3,1287.35C1457.53,1300.32 1459.43,1314.97 1463.71,1328.3C1468.46,1343.09 1477.28,1363.56 1482.81,1376.08C1486.94,1385.46 1493.23,1393.85 1496.84,1403.44C1501.45,1415.67 1509.9,1442.51 1510.42,1449.48Z"/>
        </g>
    </g>
    <g id="calves">
        <path d="M1487.76,2937.72C1490.01,2940.15 1495.35,2938.6 1497.58,2936.14C1503.77,2929.3 1520.37,2911.7 1524.92,2896.66C1529.48,2881.62 1525.55,2861.7 1524.92,2845.9C1524.34,2831.19 1519.83,2795.76 1521.17,2801.9C1522.51,2808.04 1529,2865.7 1532.97,2882.73C1534.82,2890.68 1540.39,2897.32 1544.98,2904.08C1550.19,2911.75 1558.18,2924.67 1564.27,2928.79C1569.01,2932.01 1576.8,2932.12 1581.47,2928.79C1587.25,2924.67 1594.39,2913.08 1598.94,2904.08C1604.37,2893.36 1610.21,2878.09 1614.01,2864.5C1618.07,2849.98 1621.06,2832.93 1623.3,2816.99C1625.53,2801.05 1626.41,2784.93 1627.42,2768.86C1628.64,2749.6 1630.58,2719.77 1630.58,2701.41C1630.58,2687.15 1629.97,2672.77 1627.42,2658.73C1624.66,2643.49 1617.41,2624.52 1614.01,2609.97C1611.05,2597.26 1609.98,2584.15 1607.06,2571.42C1603.82,2557.32 1598.88,2537.77 1594.61,2525.38C1591.23,2515.55 1586.53,2504.88 1581.47,2497.1C1576.9,2490.07 1569.9,2484.94 1564.27,2478.72C1558.18,2472.02 1550.97,2464.47 1544.98,2456.89C1539.01,2449.34 1532.31,2440.58 1528.34,2433.29C1524.93,2427.02 1523.69,2415.32 1521.17,2413.13C1518.65,2410.95 1514.38,2416.85 1513.24,2420.2C1510.76,2427.49 1507.23,2444.48 1506.28,2456.89C1505.12,2471.92 1505.71,2492.56 1506.28,2510.37C1506.92,2530.69 1510.82,2579.77 1510.16,2578.78C1509.5,2577.79 1506.04,2523.14 1502.31,2504.41C1499.66,2491.11 1492.22,2478.25 1487.76,2466.4C1483.62,2455.39 1478.76,2440.99 1475.57,2433.29C1473.67,2428.72 1471.56,2416.25 1468.59,2420.2C1464.9,2425.11 1458.22,2451.13 1453.44,2462.77C1449.58,2472.15 1443.86,2483.07 1439.88,2490.01C1436.93,2495.14 1431.25,2499.15 1429.52,2504.41C1427.8,2509.68 1429.52,2515.87 1429.52,2521.6C1429.52,2528.47 1428.49,2537.68 1429.52,2545.61C1431.25,2558.84 1438.15,2585.95 1439.88,2600.93C1441.2,2612.38 1440.18,2623.99 1439.88,2635.5C1439.3,2657.24 1436.4,2708.82 1436.4,2731.37C1436.4,2744.56 1438.01,2757.73 1439.88,2770.79C1442.72,2790.67 1449.34,2829.09 1453.44,2850.66C1456.6,2867.28 1458.76,2885.68 1464.48,2900.19C1469.88,2913.88 1482.25,2931.72 1487.76,2937.72Z"/>
        <g transform="matrix(-1,0,0,1,2488.16,3.24986)">
            <path d="M1487.76,2937.72C1490.01,2940.15 1495.35,2938.6 1497.58,2936.14C1503.77,2929.3 1520.37,2911.7 1524.92,2896.66C1529.48,2881.62 1525.55,2861.7 1524.92,2845.9C1524.34,2831.19 1519.83,2795.76 1521.17,2801.9C1522.51,2808.04 1529,2865.7 1532.97,2882.73C1534.82,2890.68 1540.39,2897.32 1544.98,2904.08C1550.19,2911.75 1558.18,2924.67 1564.27,2928.79C1569.01,2932.01 1576.8,2932.12 1581.47,2928.79C1587.25,2924.67 1594.39,2913.08 1598.94,2904.08C1604.37,2893.36 1610.21,2878.09 1614.01,2864.5C1618.07,2849.98 1621.06,2832.93 1623.3,2816.99C1625.53,2801.05 1626.41,2784.93 1627.42,2768.86C1628.64,2749.6 1630.58,2719.77 1630.58,2701.41C1630.58,2687.15 1629.97,2672.77 1627.42,2658.73C1624.66,2643.49 1617.41,2624.52 1614.01,2609.97C1611.05,2597.26 1609.98,2584.15 1607.06,2571.42C1603.82,2557.32 1598.88,2537.77 1594.61,2525.38C1591.23,2515.55 1586.53,2504.88 1581.47,2497.1C1576.9,2490.07 1569.9,2484.94 1564.27,2478.72C1558.18,2472.02 1550.97,2464.47 1544.98,2456.89C1539.01,2449.34 1532.31,2440.58 1528.34,2433.29C1524.93,2427.02 1523.69,2415.32 1521.17,2413.13C1518.65,2410.95 1514.38,2416.85 1513.24,2420.2C1510.76,2427.49 1507.23,2444.48 1506.28,2456.89C1505.12,2471.92 1505.71,2492.56 1506.28,2510.37C1506.92,2530.69 1510.82,2579.77 1510.16,2578.78C1509.5,2577.79 1506.04,2523.14 1502.31,2504.41C1499.66,2491.11 1492.22,2478.25 1487.76,2466.4C1483.62,2455.39 1478.76,2440.99 1475.57,2433.29C1473.67,2428.72 1471.56,2416.25 1468.59,2420.2C1464.9,2425.11 1458.22,2451.13 1453.44,2462.77C1449.58,2472.15 1443.86,2483.07 1439.88,2490.01C1436.93,2495.14 1431.25,2499.15 1429.52,2504.41C1427.8,2509.68 1429.52,2515.87 1429.52,2521.6C1429.52,2528.47 1428.49,2537.68 1429.52,2545.61C1431.25,2558.84 1438.15,2585.95 1439.88,2600.93C1441.2,2612.38 1440.18,2623.99 1439.88,2635.5C1439.3,2657.24 1436.4,2708.82 1436.4,2731.37C1436.4,2744.56 1438.01,2757.73 1439.88,2770.79C1442.72,2790.67 1449.34,2829.09 1453.44,2850.66C1456.6,2867.28 1458.76,2885.68 1464.48,2900.19C1469.88,2913.88 1482.25,2931.72 1487.76,2937.72Z"/>
        </g>
    </g>
    <g id="glutes">
        <path d="M1546.75,1691.82C1546.75,1679.33 1558.99,1669.52 1561.15,1657.22C1563.55,1643.53 1563.38,1625.35 1561.15,1609.66C1558.75,1592.76 1550.51,1570.77 1546.75,1555.83C1543.75,1543.96 1542.11,1531.75 1538.55,1520.04C1534.11,1505.47 1527.85,1480.28 1520.13,1468.39C1513.94,1458.84 1503.04,1452.31 1492.25,1448.7C1478.55,1444.12 1455.99,1437.75 1437.99,1440.88C1419.09,1444.16 1394.45,1458.69 1378.84,1468.39C1365.77,1476.51 1353.84,1486.94 1344.33,1499.05C1334.45,1511.64 1329.15,1529.79 1319.55,1543.92C1309.13,1559.28 1293.16,1574.67 1281.78,1591.19C1270.42,1607.7 1257.86,1626.27 1251.31,1643.04C1245.31,1658.43 1243.49,1675.32 1242.52,1691.82C1241.05,1716.62 1241.66,1772.56 1242.52,1791.87C1242.76,1797.41 1244.82,1802.93 1247.66,1807.69C1252.6,1815.94 1261.9,1832.02 1272.14,1841.4C1284.12,1852.38 1303.11,1863.86 1319.55,1873.58C1336.25,1883.44 1355.2,1896.09 1372.3,1900.59C1388.36,1904.82 1405.64,1898.62 1422.13,1900.59C1438.83,1902.58 1456.15,1907.24 1472.49,1912.54C1488.82,1917.84 1507.76,1926.54 1520.13,1932.37C1529.37,1936.72 1538.2,1950.83 1546.75,1947.52C1555.29,1944.22 1567.63,1926.3 1571.38,1912.54C1575.49,1897.48 1572.71,1875.6 1571.38,1857.2C1569.67,1833.56 1565.25,1798.24 1561.15,1770.68C1557.21,1744.25 1546.75,1710.73 1546.75,1691.82Z"/>
        <g transform="matrix(-1,0,0,1,2475.82,2.46251)">
            <path d="M1546.75,1691.82C1546.75,1679.33 1558.99,1669.52 1561.15,1657.22C1563.55,1643.53 1563.38,1625.35 1561.15,1609.66C1558.75,1592.76 1550.51,1570.77 1546.75,1555.83C1543.75,1543.96 1542.11,1531.75 1538.55,1520.04C1534.11,1505.47 1527.85,1480.28 1520.13,1468.39C1513.94,1458.84 1503.04,1452.31 1492.25,1448.7C1478.55,1444.12 1455.99,1437.75 1437.99,1440.88C1419.09,1444.16 1394.45,1458.69 1378.84,1468.39C1365.77,1476.51 1353.84,1486.94 1344.33,1499.05C1334.45,1511.64 1329.15,1529.79 1319.55,1543.92C1309.13,1559.28 1293.16,1574.67 1281.78,1591.19C1270.42,1607.7 1257.86,1626.27 1251.31,1643.04C1245.31,1658.43 1243.49,1675.32 1242.52,1691.82C1241.05,1716.62 1241.66,1772.56 1242.52,1791.87C1242.76,1797.41 1244.82,1802.93 1247.66,1807.69C1252.6,1815.94 1261.9,1832.02 1272.14,1841.4C1284.12,1852.38 1303.11,1863.86 1319.55,1873.58C1336.25,1883.44 1355.2,1896.09 1372.3,1900.59C1388.36,1904.82 1405.64,1898.62 1422.13,1900.59C1438.83,1902.58 1456.15,1907.24 1472.49,1912.54C1488.82,1917.84 1507.76,1926.54 1520.13,1932.37C1529.37,1936.72 1538.2,1950.83 1546.75,1947.52C1555.29,1944.22 1567.63,1926.3 1571.38,1912.54C1575.49,1897.48 1572.71,1875.6 1571.38,1857.2C1569.67,1833.56 1565.25,1798.24 1561.15,1770.68C1557.21,1744.25 1546.75,1710.73 1546.75,1691.82Z"/>
        </g>
    </g>
    <g id="traps" transform="matrix(0.984184,0,0,0.984184,17.8138,14.1101)">
        <path d="M1251.89,1139.32C1251.89,1135.38 1261.58,1114.01 1260.94,1104.46C1260.37,1095.88 1251.36,1087.69 1248.09,1082.07C1245.89,1078.26 1241.7,1075.1 1241.37,1070.71C1240.25,1055.86 1241.37,1017.85 1241.37,992.948L1241.37,921.289C1241.37,912.191 1241.01,902.774 1241.37,893.995C1241.72,885.51 1242.4,876.405 1243.52,868.61C1244.56,861.393 1248.09,852.63 1248.09,847.22C1248.09,843.227 1243.52,840.141 1243.52,836.147C1243.52,831.359 1248.09,824.568 1248.09,818.487C1248.09,812.187 1243.52,805.232 1243.52,798.347C1243.52,790.828 1246.7,781.124 1248.09,773.369C1249.39,766.19 1252.65,757.486 1251.89,751.82C1251.23,746.864 1244.03,744.346 1243.52,739.373C1242.89,733.225 1246.7,721.344 1248.09,714.932C1249.12,710.198 1251.26,704.877 1251.89,700.903C1252.41,697.671 1250.88,694.198 1251.89,691.086C1254.75,682.276 1262.89,662.208 1269.05,648.044C1275.81,632.493 1290.09,609.401 1292.46,597.779C1293.9,590.752 1286.84,584.544 1283.29,578.312C1279.39,571.464 1274.07,563.714 1269.05,556.689C1263.82,549.356 1255.61,542.947 1251.89,534.316C1247.64,524.443 1244.92,505.857 1243.52,497.451C1242.78,492.99 1244.04,488.376 1243.52,483.883C1242.41,474.24 1236.88,450.631 1236.88,439.593C1236.88,431.953 1238.16,421.311 1243.52,417.655C1248.88,413.999 1260.89,418.265 1269.05,417.655C1276.93,417.066 1284.8,415.906 1292.46,413.998C1301.75,411.685 1321.09,398.581 1324.78,403.781C1328.46,408.981 1315.59,431.097 1314.58,445.197C1313.58,459.298 1316.07,474.566 1318.75,488.384C1321.38,501.954 1327.47,514.656 1330.66,528.105C1333.92,541.857 1334.79,557.419 1338.33,570.894C1341.75,583.921 1342.47,599.321 1351.88,608.959C1364.43,621.818 1392.14,636.848 1413.63,648.044C1435.13,659.24 1466.1,670.212 1480.85,676.137C1487.83,678.94 1504.8,677.126 1502.16,683.592C1499.52,690.058 1477.18,704.235 1465.01,714.932C1448.63,729.336 1417.84,755.628 1403.87,770.015C1394.9,779.249 1387.44,790.233 1381.17,801.255C1374.92,812.25 1370.58,824.261 1366.26,836.147C1361.37,849.566 1357.38,866.802 1351.88,881.767C1344.97,900.583 1332.43,927.973 1324.78,949.043C1317.71,968.49 1310.13,993.503 1305.94,1008.19C1303.23,1017.69 1302.72,1027.77 1299.65,1037.16C1294.85,1051.83 1283.59,1081.07 1277.14,1096.23C1272.47,1107.19 1265.15,1120.93 1260.94,1128.11C1258.52,1132.25 1251.89,1143.26 1251.89,1139.32Z"/>
        <g transform="matrix(-1,0,0,1,2489.2,-1.03017)">
            <path d="M1251.89,1139.32C1251.89,1135.38 1261.58,1114.01 1260.94,1104.46C1260.37,1095.88 1251.36,1087.69 1248.09,1082.07C1245.89,1078.26 1241.7,1075.1 1241.37,1070.71C1240.25,1055.86 1241.37,1017.85 1241.37,992.948L1241.37,921.289C1241.37,912.191 1241.01,902.774 1241.37,893.995C1241.72,885.51 1242.4,876.405 1243.52,868.61C1244.56,861.393 1248.09,852.63 1248.09,847.22C1248.09,843.227 1243.52,840.141 1243.52,836.147C1243.52,831.359 1248.09,824.568 1248.09,818.487C1248.09,812.187 1243.52,805.232 1243.52,798.347C1243.52,790.828 1246.7,781.124 1248.09,773.369C1249.39,766.19 1252.65,757.486 1251.89,751.82C1251.23,746.864 1244.03,744.346 1243.52,739.373C1242.89,733.225 1246.7,721.344 1248.09,714.932C1249.12,710.198 1251.26,704.877 1251.89,700.903C1252.41,697.671 1250.88,694.198 1251.89,691.086C1254.75,682.276 1262.89,662.208 1269.05,648.044C1275.81,632.493 1290.09,609.401 1292.46,597.779C1293.9,590.752 1286.84,584.544 1283.29,578.312C1279.39,571.464 1274.07,563.714 1269.05,556.689C1263.82,549.356 1255.61,542.947 1251.89,534.316C1247.64,524.443 1244.92,505.857 1243.52,497.451C1242.78,492.99 1244.04,488.376 1243.52,483.883C1242.41,474.24 1236.88,450.631 1236.88,439.593C1236.88,431.953 1238.16,421.311 1243.52,417.655C1248.88,413.999 1260.89,418.265 1269.05,417.655C1276.93,417.066 1284.8,415.906 1292.46,413.998C1301.75,411.685 1321.09,398.581 1324.78,403.781C1328.46,408.981 1315.59,431.097 1314.58,445.197C1313.58,459.298 1316.07,474.566 1318.75,488.384C1321.38,501.954 1327.47,514.656 1330.66,528.105C1333.92,541.857 1334.79,557.419 1338.33,570.894C1341.75,583.921 1342.47,599.321 1351.88,608.959C1364.43,621.818 1392.14,636.848 1413.63,648.044C1435.13,659.24 1466.1,670.212 1480.85,676.137C1487.83,678.94 1504.8,677.126 1502.16,683.592C1499.52,690.058 1477.18,704.235 1465.01,714.932C1448.63,729.336 1417.84,755.628 1403.87,770.015C1394.9,779.249 1387.44,790.233 1381.17,801.255C1374.92,812.25 1370.58,824.261 1366.26,836.147C1361.37,849.566 1357.38,866.802 1351.88,881.767C1344.97,900.583 1332.43,927.973 1324.78,949.043C1317.71,968.49 1310.13,993.503 1305.94,1008.19C1303.23,1017.69 1302.72,1027.77 1299.65,1037.16C1294.85,1051.83 1283.59,1081.07 1277.14,1096.23C1272.47,1107.19 1265.15,1120.93 1260.94,1128.11C1258.52,1132.25 1251.89,1143.26 1251.89,1139.32Z"/>
        </g>
    </g>
</svg>
