<?xml version="1.0" encoding="UTF-8" standalone="no"?>
<!DOCTYPE svg PUBLIC "-//W3C//DTD SVG 1.1//EN" "http://www.w3.org/Graphics/SVG/1.1/DTD/svg11.dtd">
<svg width="100%" height="100%" viewBox="0 0 2481 3508" version="1.1" xmlns="http://www.w3.org/2000/svg" xmlns:xlink="http://www.w3.org/1999/xlink" xml:space="preserve" xmlns:serif="http://www.serif.com/" style="fill-rule:evenodd;clip-rule:evenodd;stroke-linejoin:round;stroke-miterlimit:2;">
    <g transform="matrix(1.22248,0,0,1.22248,-289.006,-630.883)">
        <g id="quadriceps">
            <g transform="matrix(1.1674,0,0,1,-261.6,0)">
                <path d="M1438.44,1834.08C1426.4,1838.57 1423,1881.34 1418.78,1946.45C1414.75,2008.55 1404.76,2098.91 1397.94,2141.9C1385.81,2218.42 1355.53,2300.14 1355.53,2364.32C1355.53,2385.1 1362.59,2400.79 1368,2424.99C1377.17,2466.02 1387.98,2514.15 1397.94,2526.93C1411.57,2544.42 1435.17,2576.78 1451.03,2562.55C1467.47,2547.77 1473.77,2448.67 1496.62,2438.29C1511.82,2431.38 1509.37,2489.54 1517.69,2488.55C1527.72,2487.35 1536.72,2433.15 1539.13,2424.99C1550.21,2387.47 1562.68,2274.18 1562.68,2218.22C1562.68,2174.51 1552.58,2130.8 1539.13,2089.21C1527.97,2054.71 1497.28,1977.34 1476.1,1917.84C1457.99,1866.94 1449.29,1830.03 1438.44,1834.08Z"/>
            </g>
            <g transform="matrix(-1.1674,0,0,1,2754.58,-0.827958)">
                <path d="M1438.44,1834.08C1426.4,1838.57 1423,1881.34 1418.78,1946.45C1414.75,2008.55 1404.76,2098.91 1397.94,2141.9C1385.81,2218.42 1355.53,2300.14 1355.53,2364.32C1355.53,2385.1 1362.59,2400.79 1368,2424.99C1377.17,2466.02 1387.98,2514.15 1397.94,2526.93C1411.57,2544.42 1435.17,2576.78 1451.03,2562.55C1467.47,2547.77 1473.77,2448.67 1496.62,2438.29C1511.82,2431.38 1509.37,2489.54 1517.69,2488.55C1527.72,2487.35 1536.72,2433.15 1539.13,2424.99C1550.21,2387.47 1562.68,2274.18 1562.68,2218.22C1562.68,2174.51 1552.58,2130.8 1539.13,2089.21C1527.97,2054.71 1497.28,1977.34 1476.1,1917.84C1457.99,1866.94 1449.29,1830.03 1438.44,1834.08Z"/>
            </g>
        </g>
        <g id="calves">
            <g transform="matrix(0.989444,0,0,1.12192,26.6284,-344.148)">
                <path d="M1411.03,2647.42C1424.67,2657.16 1451.57,2745.68 1462.73,2797.36C1474.29,2850.95 1480.42,2918.29 1480.42,2968.99C1480.42,3013.57 1469.4,3101.55 1462.73,3101.55C1456.05,3101.55 1448.98,3003.18 1440.36,2968.99C1433.99,2943.68 1420.95,2920.53 1411.03,2896.4C1405.29,2882.43 1394.89,2872.59 1388.59,2858.81C1384,2848.77 1382.91,2834.96 1380.84,2824.16C1375.81,2797.92 1375.69,2759.98 1380.84,2738.95C1387.04,2713.63 1397.38,2637.68 1411.03,2647.42Z"/>
            </g>
            <g transform="matrix(1.19305,0,0,1.15538,-302.431,-449.073)">
                <path d="M1549.93,2624.1C1546.3,2611.35 1544.27,2590.73 1538.88,2598.98C1528.73,2614.49 1514.67,2678.41 1511.95,2695.87C1507.13,2726.75 1519.51,2777.11 1521.02,2809.39C1522.27,2836.1 1522.3,2862.89 1521.02,2889.59C1519.51,2921.06 1510.88,2948.45 1511.95,2998.23C1512.6,3028.63 1542.02,3131.47 1549.93,3132.36C1554.22,3132.85 1551.77,3101.91 1549.93,3071.85C1547.39,3030.4 1563.73,2952.49 1568.46,2898.77C1572,2858.46 1581.28,2774.35 1578.19,2728.57C1575.77,2692.57 1553.08,2635.18 1549.93,2624.1Z"/>
            </g>
            <g transform="matrix(-1.19305,0,0,1.15538,2785.32,-438.325)">
                <path d="M1549.93,2624.1C1546.3,2611.35 1544.27,2590.73 1538.88,2598.98C1528.73,2614.49 1514.67,2678.41 1511.95,2695.87C1507.13,2726.75 1519.51,2777.11 1521.02,2809.39C1522.27,2836.1 1522.3,2862.89 1521.02,2889.59C1519.51,2921.06 1510.88,2948.45 1511.95,2998.23C1512.6,3028.63 1542.02,3131.47 1549.93,3132.36C1554.22,3132.85 1551.77,3101.91 1549.93,3071.85C1547.39,3030.4 1563.73,2952.49 1568.46,2898.77C1572,2858.46 1581.28,2774.35 1578.19,2728.57C1575.77,2692.57 1553.08,2635.18 1549.93,2624.1Z"/>
            </g>
            <g transform="matrix(-0.989444,0,0,1.12192,2464.42,-349.59)">
                <path d="M1411.03,2647.42C1422.83,2659.81 1451.57,2745.68 1462.73,2797.36C1474.29,2850.95 1480.42,2918.29 1480.42,2968.99C1480.42,3013.57 1469.4,3101.55 1462.73,3101.55C1456.05,3101.55 1448.98,3003.18 1440.36,2968.99C1433.99,2943.68 1419.1,2918.71 1411.03,2896.4C1403.75,2876.28 1394.27,2856.4 1391.93,2835.14C1388.75,2806.24 1388.75,2754.28 1391.93,2722.99C1394.56,2697.14 1399.23,2635.03 1411.03,2647.42Z"/>
            </g>
        </g>
        <g id="triceps">
            <g transform="matrix(1.09339,0,0,1,-145.671,10.9544)">
                <path d="M1557.15,1296.87C1556.88,1297.81 1555.49,1306.63 1561.06,1321.68C1566.22,1335.64 1578.19,1355.69 1582.13,1361.27C1593.54,1377.42 1622.03,1401.13 1626.05,1401.13C1630.07,1401.13 1612.7,1373.62 1606.23,1361.27C1600.18,1349.71 1595.15,1337.41 1587.25,1327.04C1579.07,1316.3 1558.98,1290.7 1557.15,1296.87Z"/>
            </g>
            <g transform="matrix(-1.09339,0,0,1,2639.33,9.17724)">
                <path d="M1557.15,1296.87C1556.88,1297.81 1555.49,1306.63 1561.06,1321.68C1566.22,1335.64 1578.19,1355.69 1582.13,1361.27C1593.54,1377.42 1622.03,1401.13 1626.05,1401.13C1630.07,1401.13 1612.7,1373.62 1606.23,1361.27C1600.18,1349.71 1595.15,1337.41 1587.25,1327.04C1579.07,1316.3 1558.98,1290.7 1557.15,1296.87Z"/>
            </g>
        </g>
        <g id="neck">
            <g transform="matrix(1.01037,0,0,1,-14.4192,0)">
                <path d="M1344.93,845.068C1352.83,845.917 1343.42,914.487 1344.93,936.078C1345.85,949.242 1347.39,963.189 1354,974.615C1361.6,987.76 1394.1,1008.06 1390.51,1014.95C1389.93,1016.07 1369.41,1017.03 1354,1014.95C1343.05,1013.47 1327.54,1010.82 1319.42,1011.27C1314.76,1011.53 1296.24,1018.45 1282.26,1026.15C1266.6,1034.79 1255.47,1044.08 1253.01,1039.8C1244.03,1024.2 1262.05,918.815 1266.13,894.618C1266.76,890.887 1275.01,891.755 1277.48,894.618C1282.72,900.679 1286.38,939.181 1297.54,930.984C1308.78,922.726 1337.03,844.219 1344.93,845.068Z"/>
            </g>
            <g transform="matrix(-1.01037,0,0,1,2508.07,-1.77712)">
                <path d="M1344.93,845.068C1352.83,845.917 1343.42,914.487 1344.93,936.078C1345.85,949.242 1347.39,963.189 1354,974.615C1361.6,987.76 1394.1,1008.06 1390.51,1014.95C1389.93,1016.07 1369.41,1017.03 1354,1014.95C1343.05,1013.47 1327.54,1010.82 1319.42,1011.27C1314.76,1011.53 1296.24,1018.45 1282.26,1026.15C1266.6,1034.79 1255.47,1044.08 1253.01,1039.8C1244.03,1024.2 1262.05,918.815 1266.13,894.618C1266.76,890.887 1275.01,891.755 1277.48,894.618C1282.72,900.679 1286.38,939.181 1297.54,930.984C1308.78,922.726 1337.03,844.219 1344.93,845.068Z"/>
            </g>
        </g>
        <g id="abdominals">
            <g transform="matrix(1,0,0,1,-1.30157,-2.9524)">
                <path d="M1260.61,1402.18C1256.09,1394.97 1260.35,1381.55 1260.61,1365.39C1260.95,1344.02 1258.87,1319.38 1265.29,1312.89C1276.58,1301.48 1307.71,1327.27 1328.31,1333.76C1348.42,1340.1 1378.82,1339.38 1388.92,1351.85C1399.02,1364.33 1391.38,1396.54 1388.92,1408.63C1387.48,1415.69 1381.33,1423.85 1374.15,1424.41C1364.05,1425.19 1343.74,1416.36 1328.31,1413.34C1309.39,1409.64 1271.11,1418.92 1260.61,1402.18Z"/>
            </g>
            <g transform="matrix(1,0,0,1,4.15097,120.468)">
                <path d="M1260.5,1402.18C1249.19,1384.77 1249.19,1324.42 1260.5,1308.87C1271.8,1293.32 1311.34,1300.8 1328.31,1308.87C1341.4,1315.1 1364.34,1312.25 1368.17,1326.22C1371.73,1339.18 1379.82,1380.32 1368.17,1402.18C1362.17,1413.44 1343.92,1415.19 1328.31,1413.34C1306.5,1410.76 1271.8,1419.59 1260.5,1402.18Z"/>
            </g>
            <g transform="matrix(1,0,0,1,2.38565,245.481)">
                <path d="M1260.61,1402.18C1254.74,1394.01 1255.3,1373.42 1254.6,1353C1253.91,1333.12 1251.78,1313.38 1260.61,1305.43C1278.51,1289.3 1349.31,1297.5 1367.99,1305.43C1382.66,1311.65 1378.64,1338.2 1372.73,1353C1369.77,1360.43 1374.86,1386.42 1367.99,1395.08C1359.95,1405.21 1340.16,1397.76 1330.08,1402.18C1311.39,1410.38 1272.19,1418.31 1260.61,1402.18Z"/>
            </g>
            <g transform="matrix(1.04682,0,0,1.01482,-147.572,368.451)">
                <path d="M1241.09,1402.18C1223.21,1362.2 1207.26,1287.41 1219.74,1272.53C1227.06,1263.81 1293.64,1281 1309.59,1283.2C1320.86,1284.75 1326.46,1308.67 1335,1311.36C1341.34,1313.36 1346.97,1279.5 1353.51,1283.2C1368.24,1291.52 1438.28,1262.22 1443.68,1272.53C1451.5,1287.41 1444.07,1362.04 1427.14,1402.18C1409.03,1445.14 1394.1,1530.43 1335,1530.26C1277.96,1530.1 1260.3,1445.14 1241.09,1402.18Z"/>
            </g>
            <g transform="matrix(-1,0,0,1,2494.96,-4.72953)">
                <path d="M1260.61,1402.18C1256.09,1394.97 1260.35,1381.55 1260.61,1365.39C1260.95,1344.02 1258.87,1319.38 1265.29,1312.89C1276.58,1301.48 1307.71,1327.27 1328.31,1333.76C1348.42,1340.1 1378.82,1339.38 1388.92,1351.85C1399.02,1364.33 1391.38,1396.54 1388.92,1408.63C1387.48,1415.69 1381.33,1423.85 1374.15,1424.41C1364.05,1425.19 1343.74,1416.36 1328.31,1413.34C1309.39,1409.64 1271.11,1418.92 1260.61,1402.18Z"/>
            </g>
            <g transform="matrix(-1,0,0,1,2489.5,118.69)">
                <path d="M1260.5,1402.18C1249.19,1384.77 1249.19,1324.42 1260.5,1308.87C1271.8,1293.32 1311.34,1300.8 1328.31,1308.87C1341.4,1315.1 1364.34,1312.25 1368.17,1326.22C1371.73,1339.18 1379.82,1380.32 1368.17,1402.18C1362.17,1413.44 1343.92,1415.19 1328.31,1413.34C1306.5,1410.76 1271.8,1419.59 1260.5,1402.18Z"/>
            </g>
            <g transform="matrix(-1,0,0,1,2491.27,243.703)">
                <path d="M1260.61,1402.18C1254.74,1394.01 1255.3,1373.42 1254.6,1353C1253.91,1333.12 1251.78,1313.38 1260.61,1305.43C1278.51,1289.3 1349.31,1297.5 1367.99,1305.43C1382.66,1311.65 1378.64,1338.2 1372.73,1353C1369.77,1360.43 1374.86,1386.42 1367.99,1395.08C1359.95,1405.21 1340.16,1397.76 1330.08,1402.18C1311.39,1410.38 1272.19,1418.31 1260.61,1402.18Z"/>
            </g>
            <path d="M1419.86,1724.89C1413.57,1724.4 1404.35,1724.27 1399.8,1704.15C1396.71,1690.53 1396.72,1625.61 1393.51,1564.82C1391.61,1528.93 1382.18,1453.87 1393.51,1410.15C1402.48,1375.48 1442.37,1366.15 1449.39,1347.12C1457.14,1326.14 1480.08,1310.98 1488.73,1306.75C1494.59,1303.88 1501.51,1315.2 1501.32,1321.72C1500.25,1358.15 1497.24,1491.69 1482.3,1525.31C1473.17,1545.87 1492.21,1629.55 1482.3,1663.14C1478.61,1675.67 1435.05,1726.07 1419.86,1724.89Z"/>
            <g transform="matrix(-1.02211,0,0,1,2528.71,4.44012)">
                <path d="M1419.86,1724.89C1413.57,1724.4 1404.35,1724.27 1399.8,1704.15C1396.71,1690.53 1396.72,1625.61 1393.51,1564.82C1391.61,1528.93 1382.18,1453.87 1393.51,1410.15C1402.48,1375.48 1442.37,1366.15 1449.39,1347.12C1457.14,1326.14 1480.08,1310.98 1488.73,1306.75C1494.59,1303.88 1501.51,1315.2 1501.32,1321.72C1500.25,1358.15 1497.24,1491.69 1482.3,1525.31C1473.17,1545.87 1492.21,1629.55 1482.3,1663.14C1478.61,1675.67 1435.05,1726.07 1419.86,1724.89Z"/>
            </g>
        </g>
        <g id="shoulders">
            <path d="M1434.34,1031.32C1432.29,1023.08 1446.49,1012.77 1456,1008.14C1467.42,1002.59 1489.31,997.962 1502.89,997.962C1514.92,997.962 1527.42,1005.84 1537.51,1008.14C1546.03,1010.09 1555.15,1009.1 1563.46,1011.77C1571.9,1014.49 1580.39,1019.41 1588.16,1024.43C1595.94,1029.46 1603.22,1035.65 1610.16,1041.95C1618.05,1049.11 1628.64,1058.73 1635.51,1067.4C1641.92,1075.49 1644.86,1085.98 1651.39,1093.96C1668.74,1115.19 1682.51,1183.05 1688.12,1208.46C1690.86,1220.88 1689.34,1244.32 1685.05,1246.48C1680.76,1248.63 1668.57,1227.13 1662.37,1221.4C1658.16,1217.5 1653.08,1214.54 1647.89,1212.07C1642.48,1209.5 1636.09,1207.31 1629.9,1205.98C1622.45,1204.39 1611.24,1206.44 1603.17,1202.5C1594.88,1198.46 1587.81,1188.72 1580.21,1181.76C1570.61,1172.97 1556.44,1161.17 1545.61,1149.82C1530.95,1134.44 1505.12,1104.87 1492.24,1089.51C1483.7,1079.33 1477.69,1067.04 1468.32,1057.62C1458.67,1047.93 1436.39,1039.57 1434.34,1031.32Z"/>
            <g transform="matrix(-1,0,0,1,2493.66,-1.77712)">
                <path d="M1434.34,1031.32C1432.29,1023.08 1446.49,1012.77 1456,1008.14C1467.42,1002.59 1489.31,997.962 1502.89,997.962C1514.92,997.962 1527.42,1005.84 1537.51,1008.14C1546.03,1010.09 1555.15,1009.1 1563.46,1011.77C1571.9,1014.49 1580.39,1019.41 1588.16,1024.43C1595.94,1029.46 1603.22,1035.65 1610.16,1041.95C1618.05,1049.11 1628.64,1058.73 1635.51,1067.4C1641.92,1075.49 1644.86,1085.98 1651.39,1093.96C1668.74,1115.19 1682.51,1183.05 1688.12,1208.46C1690.86,1220.88 1689.34,1244.32 1685.05,1246.48C1680.76,1248.63 1668.57,1227.13 1662.37,1221.4C1658.16,1217.5 1653.08,1214.54 1647.89,1212.07C1642.48,1209.5 1636.09,1207.31 1629.9,1205.98C1622.45,1204.39 1611.24,1206.44 1603.17,1202.5C1594.88,1198.46 1587.81,1188.72 1580.21,1181.76C1570.61,1172.97 1556.44,1161.17 1545.61,1149.82C1530.95,1134.44 1505.12,1104.87 1492.24,1089.51C1483.7,1079.33 1477.69,1067.04 1468.32,1057.62C1458.67,1047.93 1436.39,1039.57 1434.34,1031.32Z"/>
            </g>
        </g>
        <g id="biceps">
            <g transform="matrix(0.931617,0,0,0.952946,121.002,70.7931)">
                <path d="M1529.1,1269.18C1526.76,1262.14 1521.36,1242.8 1529.1,1226.1C1533.91,1215.72 1550.01,1209.69 1560.61,1204.78C1580.45,1195.58 1605.24,1196.85 1614.53,1198.48C1647.95,1204.36 1678.37,1253.09 1685.38,1253.96C1690.74,1254.63 1690.63,1245.11 1691.26,1237.06C1692.12,1226.28 1693.01,1216.28 1697.62,1219.22C1705.22,1224.05 1733.72,1262.21 1747.53,1292.29C1756.38,1311.56 1770.13,1347.41 1774.65,1369.74C1776.14,1377.12 1775.21,1378.5 1774.65,1386.07C1773.86,1396.87 1775.78,1415.06 1774.65,1425.6C1772.76,1443.35 1768.17,1467.92 1766.18,1479.14C1765.35,1483.81 1767.27,1492.28 1762.72,1492.94C1758.41,1493.56 1757.47,1494.19 1747.53,1492.94C1738.24,1491.76 1724.48,1487.45 1717.16,1485.06C1702.28,1480.2 1682.29,1474.46 1669.48,1462.39C1654.28,1448.05 1639.27,1420.11 1625.92,1399.06C1612.93,1378.56 1599.38,1351.7 1589.42,1336.08C1582.51,1325.24 1574.79,1314.85 1566.18,1305.31C1556.12,1294.16 1532.99,1280.87 1529.1,1269.18Z"/>
            </g>
            <g transform="matrix(-0.931617,0,0,0.952946,2372.65,69.016)">
                <path d="M1529.1,1269.18C1526.76,1262.14 1521.36,1242.8 1529.1,1226.1C1533.91,1215.72 1550.01,1209.69 1560.61,1204.78C1580.45,1195.58 1605.24,1196.85 1614.53,1198.48C1647.95,1204.36 1678.37,1253.09 1685.38,1253.96C1690.74,1254.63 1690.63,1245.11 1691.26,1237.06C1692.12,1226.28 1693.01,1216.28 1697.62,1219.22C1705.22,1224.05 1733.72,1262.21 1747.53,1292.29C1756.38,1311.56 1770.13,1347.41 1774.65,1369.74C1776.14,1377.12 1775.21,1378.5 1774.65,1386.07C1773.86,1396.87 1775.78,1415.06 1774.65,1425.6C1772.76,1443.35 1768.17,1467.92 1766.18,1479.14C1765.35,1483.81 1767.27,1492.28 1762.72,1492.94C1758.41,1493.56 1757.47,1494.19 1747.53,1492.94C1738.24,1491.76 1724.48,1487.45 1717.16,1485.06C1702.28,1480.2 1682.29,1474.46 1669.48,1462.39C1654.28,1448.05 1639.27,1420.11 1625.92,1399.06C1612.93,1378.56 1599.38,1351.7 1589.42,1336.08C1582.51,1325.24 1574.79,1314.85 1566.18,1305.31C1556.12,1294.16 1532.99,1280.87 1529.1,1269.18Z"/>
            </g>
        </g>
        <g id="lats">
            <g transform="matrix(1,0,0,1,-1.04863,-2.73838)">
                <path d="M1535.98,1257.59C1539.97,1260.11 1538.79,1280.46 1542.39,1292.53C1545.62,1303.34 1553.84,1311.75 1553.84,1321.22C1553.84,1342.06 1543.55,1367.15 1535.98,1388.89C1528.45,1410.46 1512.97,1455.63 1508.37,1451.63C1503.77,1447.63 1508.37,1386.63 1508.37,1364.89L1508.37,1321.22C1508.37,1311.65 1504.56,1301.3 1508.37,1292.53C1512.97,1281.92 1528.4,1252.8 1535.98,1257.59Z"/>
            </g>
            <g transform="matrix(-1,0,0,1,2494.7,-4.51551)">
                <path d="M1535.98,1257.59C1539.97,1260.11 1538.79,1280.46 1542.39,1292.53C1545.62,1303.34 1553.84,1311.75 1553.84,1321.22C1553.84,1342.06 1543.55,1367.15 1535.98,1388.89C1528.45,1410.46 1512.97,1455.63 1508.37,1451.63C1503.77,1447.63 1508.37,1386.63 1508.37,1364.89L1508.37,1321.22C1508.37,1311.65 1504.56,1301.3 1508.37,1292.53C1512.97,1281.92 1528.4,1252.8 1535.98,1257.59Z"/>
            </g>
        </g>
        <g id="forearms">
            <g transform="matrix(0.95965,0,0,0.973256,80.9619,54.2936)">
                <path d="M1742.77,1575.07C1727.65,1548.85 1688.29,1502.08 1691.72,1484.57C1693.56,1475.13 1712.23,1485.86 1725.64,1488.41C1736.24,1490.42 1770.34,1495.34 1773.46,1484.57C1777.97,1468.96 1779.81,1447.18 1780.8,1429.14C1782.08,1406 1777.2,1387.38 1780.8,1383.84C1786.67,1378.08 1796.86,1397.12 1812.32,1418.31C1826.07,1437.16 1845.06,1457.51 1852.66,1466.93C1862,1478.51 1893.36,1526.8 1901.58,1541.17C1914.08,1563.04 1925.22,1586.39 1934.65,1605.85C1948.85,1635.14 1971.75,1735.48 1972.47,1761.73C1972.96,1779.23 1952.27,1808.67 1944.9,1812.47C1935.28,1817.42 1935.17,1801.75 1922.14,1783.55C1902.2,1755.66 1875.75,1735.85 1839.86,1698.35C1831.39,1689.5 1810.12,1663.45 1801.31,1654.6C1778.48,1631.64 1759.78,1604.55 1742.77,1575.07Z"/>
            </g>
            <g transform="matrix(-0.95965,0,0,0.973256,2414.48,49.2147)">
                <path d="M1747,1572.85C1731.87,1546.63 1688.29,1502.08 1691.72,1484.57C1693.56,1475.13 1712.23,1485.86 1725.64,1488.41C1736.24,1490.42 1770.34,1495.34 1773.46,1484.57C1777.97,1468.96 1779.81,1447.18 1780.8,1429.14C1782.08,1406 1777.2,1387.38 1780.8,1383.84C1786.67,1378.08 1796.86,1397.12 1812.32,1418.31C1826.07,1437.16 1845.06,1457.51 1852.66,1466.93C1862,1478.51 1893.36,1526.8 1901.58,1541.17C1914.08,1563.04 1925.22,1586.39 1934.65,1605.85C1948.85,1635.14 1971.75,1735.48 1972.47,1761.73C1972.96,1779.23 1957.73,1806.89 1950.37,1810.68C1940.75,1815.64 1936.2,1800.48 1923.18,1782.27C1903.23,1754.39 1875.75,1735.85 1839.86,1698.35C1831.39,1689.5 1807.21,1665.52 1798.41,1656.67C1775.57,1633.71 1764,1602.33 1747,1572.85Z"/>
            </g>
        </g>
        <g id="traps">
            <path d="M1348.41,914.349C1346.37,919.562 1348.15,953.206 1361.33,975.594C1366.49,984.358 1396.25,1009.91 1410.09,1011.91C1415.48,1012.69 1416.65,1004.42 1433.66,1003.02C1451.39,1001.56 1485.74,999.804 1490.39,995.943C1499.5,988.377 1469.06,974.38 1456.87,966.681C1444.71,959.008 1430.15,955.997 1417.2,949.749C1411.18,946.844 1393.62,944.661 1383.82,938.434C1364.21,925.97 1350.73,908.429 1348.41,914.349Z"/>
            <g transform="matrix(-1,0,0,1,2493.66,-1.77712)">
                <path d="M1348.41,914.349C1346.37,919.562 1348.15,953.206 1361.33,975.594C1366.49,984.358 1396.25,1009.91 1410.09,1011.91C1415.48,1012.69 1416.65,1004.42 1433.66,1003.02C1451.39,1001.56 1485.74,999.804 1490.39,995.943C1499.5,988.377 1469.06,974.38 1456.87,966.681C1444.71,959.008 1430.15,955.997 1417.2,949.749C1411.18,946.844 1393.62,944.661 1383.82,938.434C1364.21,925.97 1350.73,908.429 1348.41,914.349Z"/>
            </g>
        </g>
        <g id="chest">
            <g transform="matrix(0.97089,0,0,1,36.5782,0)">
                <path d="M1268.77,1044.84C1290.19,1030.35 1360.26,1021.09 1386.72,1021.09C1402.47,1021.09 1414.98,1031.45 1427.55,1044.84C1441.55,1059.75 1489.88,1085.43 1514.41,1117.02C1521.17,1125.74 1546.93,1153.58 1570.03,1176.56C1586.63,1193.06 1605.59,1207 1597.74,1209.79C1595.36,1210.64 1579.84,1209.03 1563.13,1215.96C1555.79,1219 1546.74,1233.08 1534.22,1248.35C1512.99,1274.25 1485.25,1306.77 1464.13,1317.96C1433.95,1333.96 1388.05,1344.7 1361.75,1322.69C1353.39,1315.7 1322.9,1309.71 1303.85,1299.69C1285.29,1289.93 1278.17,1276.26 1268.77,1260.34C1260.69,1246.65 1268.87,1225.9 1268.77,1209.79C1268.71,1199.52 1260.25,1183.43 1258.19,1166.5C1255.24,1142.23 1258.36,1116.71 1258.19,1108.06C1257.67,1083.06 1251.08,1056.82 1268.77,1044.84Z"/>
            </g>
            <g transform="matrix(-0.97089,0,0,1,2457.08,-1.77712)">
                <path d="M1268.77,1044.84C1290.19,1030.35 1360.26,1021.09 1386.72,1021.09C1402.47,1021.09 1414.98,1031.45 1427.55,1044.84C1441.55,1059.75 1489.88,1085.43 1514.41,1117.02C1521.17,1125.74 1546.93,1153.58 1570.03,1176.56C1586.63,1193.06 1605.59,1207 1597.74,1209.79C1595.36,1210.64 1579.84,1209.03 1563.13,1215.96C1555.79,1219 1546.74,1233.08 1534.22,1248.35C1512.99,1274.25 1485.25,1306.77 1464.13,1317.96C1433.95,1333.96 1388.05,1344.7 1361.75,1322.69C1353.39,1315.7 1322.9,1309.71 1303.85,1299.69C1285.29,1289.93 1278.17,1276.26 1268.77,1260.34C1260.69,1246.65 1268.87,1225.9 1268.77,1209.79C1268.71,1199.52 1260.25,1183.43 1258.19,1166.5C1255.24,1142.23 1258.36,1116.71 1258.19,1108.06C1257.67,1083.06 1251.08,1056.82 1268.77,1044.84Z"/>
            </g>
        </g>
        <g id="adductors">
            <g transform="matrix(1.03955,0,0,1,-46.1406,2.96354)">
                <path d="M1260.94,1963.84C1267.65,1952.09 1279.76,1946.62 1296.27,1930.3C1324.27,1902.61 1359.31,1835.76 1368.49,1818.73C1388.36,1781.88 1394.11,1829.36 1368.49,1974C1357.28,2037.3 1364.2,2111.16 1341.28,2191.83C1332.51,2222.71 1324.49,2270.15 1313.85,2264.82C1303.21,2259.49 1283.85,2196.33 1277.43,2159.85C1268.62,2109.69 1249.08,1984.63 1260.94,1963.84Z"/>
            </g>
            <g transform="matrix(-1.03955,0,0,1,2539.28,-1.77712)">
                <path d="M1260.94,1963.84C1267.65,1952.09 1279.76,1946.62 1296.27,1930.3C1324.27,1902.61 1359.31,1835.76 1368.49,1818.73C1388.36,1781.88 1394.11,1829.36 1368.49,1974C1357.28,2037.3 1364.2,2111.16 1341.28,2191.83C1332.51,2222.71 1324.49,2270.15 1313.85,2264.82C1303.21,2259.49 1283.85,2196.33 1277.43,2159.85C1268.62,2109.69 1249.08,1984.63 1260.94,1963.84Z"/>
            </g>
        </g>
        <g id="abductors">
            <g transform="matrix(1.20855,0,0,1.06758,-36.4251,-345.025)">
                <path d="M1257.21,1921.21C1261.14,1933.81 1261.76,1974.04 1266.89,2005.53C1275.97,2061.35 1290.01,2119.01 1296.05,2155.62C1302.04,2192.01 1317,2262.28 1313.85,2264.82C1310.7,2267.36 1289.85,2201.99 1277.14,2170.85C1260.77,2130.72 1222.75,2059.8 1215.63,2024.07C1211.06,2001.11 1227.52,1973.57 1234.44,1956.42C1239.68,1943.47 1253.62,1909.66 1257.21,1921.21Z"/>
            </g>
            <g transform="matrix(-1.20855,0,0,1.06758,2530.08,-346.802)">
                <path d="M1257.21,1921.21C1261.14,1933.81 1261.76,1974.04 1266.89,2005.53C1275.97,2061.35 1290.01,2119.01 1296.05,2155.62C1302.04,2192.01 1317,2262.28 1313.85,2264.82C1310.7,2267.36 1289.85,2201.99 1277.14,2170.85C1260.77,2130.72 1222.75,2059.8 1215.63,2024.07C1211.06,2001.11 1227.52,1973.57 1234.44,1956.42C1239.68,1943.47 1253.62,1909.66 1257.21,1921.21Z"/>
            </g>
        </g>
        <g id="silhouette">
            <path d="M1247.99,529.115C1268.12,530.906 1298.21,542.768 1315.38,552.436C1329.82,560.567 1343.27,574.767 1350.98,587.123C1358.2,598.679 1360.35,613.012 1361.67,626.572C1363.46,644.857 1359.4,685.124 1361.67,696.834C1362.54,701.29 1372.23,693.479 1375.29,696.834C1379.6,701.564 1385.5,716.221 1387.54,725.214C1389.42,733.528 1388.66,743.189 1387.54,750.791C1386.5,757.764 1383.91,765.128 1380.76,770.825C1377.76,776.259 1372.46,782.617 1368.65,784.975C1365.58,786.868 1359.44,781.747 1357.84,784.975C1355.48,789.749 1356.33,805.222 1354.49,813.618C1352.85,821.121 1347.12,827.675 1346.84,835.35C1346.25,851.154 1343.07,890.893 1350.98,908.439C1358.38,924.838 1378.43,932.161 1394.3,940.628C1410.53,949.289 1434.19,953.647 1448.39,960.407C1459.65,965.767 1471.4,975.095 1479.5,981.186C1485.78,985.904 1489.66,994.164 1497,996.952C1512.3,1002.77 1548.6,1004.37 1571.36,1016.08C1594.38,1027.93 1618.93,1049.16 1635.15,1068.06C1650.36,1085.76 1661.59,1115.46 1668.74,1129.48C1672.45,1136.76 1675.89,1144.28 1678.05,1152.17C1681.48,1164.7 1683.04,1190 1689.32,1204.66C1695.12,1218.21 1707.93,1228.42 1715.7,1240.13C1723.13,1251.3 1730.04,1263.98 1735.97,1274.89C1741.43,1284.94 1746.63,1296.3 1751.29,1305.59C1755.49,1313.96 1760.09,1322.14 1763.96,1330.66C1768.42,1340.46 1773.6,1354.11 1778.05,1364.4C1782.11,1373.78 1785.56,1383.84 1790.65,1392.37C1795.66,1400.76 1802.06,1408.29 1808.59,1415.55C1815.97,1423.74 1827.49,1431.7 1834.92,1441.54C1848.91,1460.07 1877.59,1502.98 1892.56,1526.72C1904.23,1545.23 1915.64,1565.78 1924.73,1583.94C1933.14,1600.75 1939.72,1618.4 1947.08,1635.69C1955.61,1655.68 1966.65,1681 1975.86,1703.9C1986.54,1730.47 2004.26,1772.73 2011.17,1795.1C2015.45,1808.96 2013.53,1824.18 2017.36,1838.17C2023.85,1861.9 2043.91,1914.64 2050.11,1937.5C2053.44,1949.74 2054.6,1962.61 2054.6,1975.3C2054.6,1991.64 2053.14,2015.64 2050.11,2035.55C2049.01,2042.84 2048.38,2054.15 2046.51,2062.62C2043.16,2077.75 2036.64,2088.48 2036.11,2097.11C2035.95,2099.8 2027.74,2099.9 2025.27,2103.23C2022.14,2107.45 2021.33,2120.53 2017.36,2122.39C2013.39,2124.24 2004.09,2118.6 2001.44,2114.39C1998.79,2110.17 2002.98,2098.03 2001.44,2097.11C1999.9,2096.18 1995.28,2108.83 1992.21,2108.83C1989.15,2108.83 1983.05,2102.07 1983.05,2097.11C1983.05,2090.5 1989.15,2076.23 1992.21,2069.18C1994.49,2063.95 2002.97,2054.78 2001.44,2054.78C1999.91,2054.78 1987.32,2066.78 1983.05,2069.18C1980.96,2070.36 1976.62,2071.45 1975.86,2069.18C1974.66,2065.59 1973.52,2054.43 1975.86,2047.64C1979.36,2037.47 1993.35,2019.34 1996.85,2008.11C1999.61,1999.26 1997.62,1989.36 1996.85,1980.28C1996.09,1971.3 1994.06,1959.73 1992.21,1953.65C1991.07,1949.89 1987.29,1940.18 1985.76,1943.79C1984.24,1947.4 1985.39,1966.96 1983.05,1975.3C1981.1,1982.26 1977.16,1990.73 1971.73,1993.82C1966.3,1996.9 1954.19,1999.85 1950.48,1993.82C1946.38,1987.12 1948.15,1967.04 1947.08,1953.65C1945.97,1939.65 1948.71,1923.27 1943.77,1909.81C1936.87,1891.02 1934.93,1872.14 1936.19,1868.3C1938.35,1861.7 1944.64,1849.29 1943.77,1842.78C1941.86,1828.52 1933.96,1809.51 1924.73,1795.1C1915.07,1780.03 1899.01,1766.37 1885.8,1752.33C1870.83,1736.44 1850.78,1717.51 1834.92,1699.73C1819.41,1682.35 1803.21,1662.49 1790.65,1645.67C1779.43,1630.65 1770.02,1614.37 1759.56,1598.82C1747.07,1580.24 1729.29,1556.21 1715.7,1534.19C1702.18,1512.28 1693.83,1487.08 1678.05,1466.73C1661.43,1445.3 1631.18,1420.93 1615.97,1405.61C1606,1395.57 1595.45,1385.99 1586.78,1374.81C1577.8,1363.21 1567.83,1347.59 1562.08,1336.06C1557.33,1326.51 1553.94,1305.59 1552.32,1305.59C1550.69,1305.59 1554,1326.04 1552.32,1336.06C1550.15,1348.89 1544.67,1367.41 1539.33,1382.62C1533.92,1398.02 1526.37,1413.19 1519.88,1428.47C1512.15,1446.65 1497.6,1469.26 1492.98,1491.68C1486.99,1520.74 1484.75,1573.19 1483.93,1602.79C1483.32,1624.99 1486.12,1647.16 1488.06,1669.29C1491.19,1705.06 1497.43,1779.48 1502.73,1817.42C1506.49,1844.27 1513.87,1870.49 1519.88,1896.93C1528.14,1933.28 1545.38,1988.61 1552.32,2035.55C1559.35,2083.14 1561.35,2133.39 1562.08,2182.46C1562.87,2234.95 1559.65,2311.89 1557.03,2350.47C1555.57,2371.89 1549.6,2392.76 1546.35,2413.99C1542.59,2438.53 1535.64,2471.97 1534.47,2497.74C1533.4,2521.39 1536.36,2547.79 1539.33,2568.61C1541.95,2586.96 1547.3,2604.83 1552.32,2622.67C1557.65,2641.64 1567.21,2661.95 1571.36,2682.45C1575.95,2705.12 1579.23,2734.24 1579.87,2758.72C1580.49,2782.32 1576.46,2805.81 1575.2,2829.37C1573.78,2855.94 1573.54,2891.87 1571.36,2918.13C1569.44,2941.19 1564.71,2963.94 1562.08,2986.93C1558.91,3014.73 1553.16,3055.22 1552.32,3084.91C1551.56,3111.65 1551.29,3144.08 1557.03,3165.03C1561.83,3182.54 1576.96,3195.88 1586.78,3210.64C1596.38,3225.05 1604.46,3241.02 1615.97,3253.6C1627.48,3266.18 1645.51,3273.38 1655.86,3286.14C1666.2,3298.89 1676.83,3320.6 1678.05,3330.13C1678.89,3336.7 1667.41,3338.22 1663.15,3343.3C1658.72,3348.57 1655.86,3359.73 1651.48,3361.76C1647.33,3363.68 1639.32,3368.22 1631.42,3369.5C1625.62,3370.44 1619.81,3368.04 1615.97,3369.5C1608.84,3372.22 1603.11,3380.88 1597.09,3382.46C1591.43,3383.95 1585.18,3381.45 1579.87,3378.99C1572.41,3375.53 1557.9,3366.2 1552.32,3361.76C1549.4,3359.43 1549.01,3354.9 1546.35,3352.29C1541.85,3347.88 1530.69,3341.82 1525.34,3335.29C1520.1,3328.9 1517.49,3319.74 1514.23,3313.14C1511.37,3307.33 1509.34,3300.14 1505.8,3295.64C1502.51,3291.46 1497.2,3289.37 1492.98,3286.14C1486.18,3280.94 1470.84,3273.37 1465.03,3264.46C1459.21,3255.56 1458.11,3243.56 1458.11,3232.73C1458.11,3220.53 1465.03,3201.59 1465.03,3191.27C1465.03,3184.08 1459.57,3177.86 1458.11,3170.81C1456.26,3161.83 1453.87,3148.62 1453.87,3137.39C1453.87,3125.18 1458.68,3110.91 1458.11,3097.57C1457.2,3076.21 1454.29,3038.26 1448.39,3009.23C1441.51,2975.34 1425.85,2919.36 1416.84,2894.22C1412.07,2880.95 1397.76,2872.09 1394.3,2858.42C1389.41,2839.15 1387.54,2801.68 1387.54,2778.64C1387.54,2759.02 1391.65,2739.61 1394.3,2720.17C1397.28,2698.25 1410.64,2671.21 1405.46,2647.14C1400.02,2621.88 1372.56,2595.87 1361.67,2568.61C1350.83,2541.46 1345.94,2512.25 1340.14,2483.6C1334.32,2454.82 1330.88,2419.85 1326.76,2395.94C1323.53,2377.24 1319.66,2358.64 1315.38,2340.15C1310.68,2319.87 1304.44,2296.14 1298.58,2274.24C1292.69,2252.2 1285.69,2229.41 1280.01,2207.89C1274.49,2187.03 1268.7,2165.91 1264.45,2145.07C1260.25,2124.47 1257.25,2097.86 1254.51,2082.81C1252.79,2073.38 1251.31,2045.78 1247.99,2054.78C1244.15,2065.16 1238.08,2115.19 1231.52,2145.07C1224.93,2175.05 1216.7,2208.66 1208.48,2234.68C1201.29,2257.4 1188.71,2278.24 1182.16,2301.16C1173.62,2331.05 1163.91,2379.21 1157.26,2413.99C1151.18,2445.75 1150.31,2479.57 1142.26,2509.83C1134.38,2539.45 1118.95,2572.65 1108.95,2595.54C1101.2,2613.28 1083.9,2627.84 1082.25,2647.14C1078.93,2686.11 1091.18,2788.19 1089.02,2829.37C1087.83,2851.94 1075.9,2872.62 1069.29,2894.22C1062.12,2917.65 1052.86,2947.93 1046,2969.95C1040.14,2988.79 1030.72,3006.83 1028.16,3026.39C1025.19,3049.16 1027.48,3084.27 1028.16,3106.53C1028.71,3124.39 1033.5,3146.47 1032.28,3159.98C1031.38,3169.92 1022.38,3177.78 1020.84,3187.63C1018.93,3199.76 1020.84,3219.93 1020.84,3232.73C1020.84,3243.31 1025.81,3255.56 1020.84,3264.46C1017.72,3270.03 1011.46,3279.15 1004.03,3283.16C999.58,3285.56 988.799,3291.66 986.484,3295.64C979.627,3307.45 985.429,3322.69 979.691,3335.29C976.088,3343.2 959.197,3350.19 952.633,3356.13C951.418,3357.22 946.625,3368.9 938.909,3375.1C932.134,3380.54 926.551,3380.4 921.755,3382.46C913.563,3385.98 900.339,3379.57 892.516,3378.99C890.997,3378.87 879.59,3380.66 874.819,3378.99C870.539,3377.48 867.064,3377.64 863.265,3375.1C861.716,3374.07 851.866,3374.51 848.651,3370.92C845.969,3367.92 835.62,3360.72 833.602,3358.28C827.312,3350.7 823.531,3354.05 821.581,3349.49C819.577,3344.79 820.307,3336.45 821.581,3330.13C823.388,3321.15 826.325,3304.5 832.423,3295.64C838.434,3286.91 850.265,3283.97 858.167,3276.96C866.068,3269.95 873.967,3262.45 879.833,3253.6C886.739,3243.18 893.207,3227.12 899.598,3214.43C905.802,3202.12 914.485,3188.75 918.178,3177.46C921.386,3167.66 920.147,3156.91 921.755,3146.72C924.188,3131.3 930.942,3102.83 932.78,3084.91C934.334,3069.75 934.373,3054.35 932.78,3039.19C930.942,3021.71 925.289,2999.78 921.755,2980.03C918.143,2959.85 912.585,2939.01 911.109,2918.13C909.335,2893.02 912.202,2854.24 911.109,2829.37C910.219,2809.12 904.551,2789.18 904.551,2768.9C904.551,2747.08 906.636,2721.58 911.109,2698.41C915.814,2674.04 926.616,2647.85 932.78,2622.67C938.874,2597.78 944.392,2572.68 948.095,2547.32C952.058,2520.19 957.738,2485.1 956.556,2459.87C955.53,2437.96 943.491,2417.73 941.003,2395.94C937.041,2361.24 934.151,2293.46 932.78,2251.65C931.616,2216.14 930.673,2180.53 932.78,2145.07C935.333,2102.09 941.647,2035.17 948.095,1993.82C953.214,1960.99 966.205,1922.87 971.471,1896.93C975.405,1877.55 977.062,1857.77 979.691,1838.17C984.779,1800.23 996.618,1719.95 1002,1669.29C1006.77,1624.39 1013.82,1565.25 1011.98,1534.19C1010.89,1515.77 997.59,1500.19 990.986,1482.95C984.234,1465.33 978.582,1446.4 971.471,1428.47C964.322,1410.44 954.544,1390.21 948.095,1374.81C942.732,1361.99 938.944,1337.79 932.78,1336.06C926.616,1334.32 919.19,1355.67 911.109,1364.4C896.846,1379.8 865.389,1408.71 847.198,1428.47C831.211,1445.84 815.558,1463.65 801.966,1482.95C786.528,1504.87 769.58,1534.53 754.568,1559.99C739.854,1584.94 728.806,1612.17 711.894,1635.69C691.925,1663.46 657.758,1702.23 634.75,1726.61C615.92,1746.56 588.493,1763.38 573.845,1781.97C560.985,1798.29 549.384,1823.02 546.862,1838.17C544.856,1850.22 557.818,1860.66 558.712,1872.84C559.217,1879.72 560.377,1889.06 558.712,1896.93C557.228,1903.93 552.945,1909.42 552.597,1916.31C552.013,1927.86 555.631,1950.28 556.019,1967.16C556.308,1979.76 553.562,1987.82 552.597,1993.82C551.795,1998.8 543.928,2001.43 539.041,2000.58C534.155,1999.73 525.458,1994.92 523.279,1988.71C521.802,1984.51 514.986,1963.13 515.242,1953.65C515.424,1946.91 502.853,1961.37 495.684,1980.28C491.173,1992.18 491.44,2002.45 490.594,2008.11C489.122,2017.96 494.731,2027.02 499.06,2035.55C503.667,2044.64 515.538,2055.89 518.235,2062.62C519.925,2066.84 519.283,2075.92 515.242,2075.92C513.493,2075.92 509.875,2075.12 506.212,2072.05C501.413,2068.02 496.537,2061.54 495.684,2062.62C494.179,2064.52 499.637,2081.21 506.212,2087.32C512.742,2093.39 515.258,2112.96 506.212,2114.39C502.258,2115.01 494.954,2107.74 495.684,2112.22C496.653,2118.17 495.519,2130.99 487.496,2132.84C484.811,2133.46 481.055,2130.53 477.059,2124.84C474.572,2121.3 471.993,2115.73 469.521,2112.22C468.155,2110.27 464.351,2110.55 463.366,2108.83C455.924,2095.82 447.531,2072.82 442.847,2054.78C438.262,2037.13 436.522,2015.19 435.258,2000.58C434.296,1989.49 432.716,1978.01 435.258,1967.16C439.942,1947.17 456.399,1908.46 463.366,1880.63C469.971,1854.25 469.455,1826.31 477.059,1800.2C486.486,1767.83 503.944,1723.65 519.932,1686.39C536.063,1648.8 555.289,1611.62 573.845,1574.67C592.981,1536.57 617.045,1484.27 634.75,1457.75C646.212,1440.58 668.368,1432.55 680.075,1415.55C694.66,1394.37 708.071,1358.89 722.259,1330.66C736.951,1301.42 757.648,1258.66 768.229,1240.13C772.706,1232.28 781.963,1227.66 785.74,1219.45C796.44,1196.22 816.741,1131.13 832.423,1100.71C844.561,1077.16 863.107,1051.04 879.833,1036.93C894.334,1024.71 914.932,1022.5 932.78,1016.08C951.305,1009.42 973.847,1006.23 990.986,996.952C1007.89,987.797 1022.56,968.364 1035.61,960.407C1045.71,954.248 1059.5,952.505 1069.29,949.208C1077.65,946.392 1086.42,944.551 1094.33,940.628C1103.51,936.071 1116.37,927.228 1124.36,921.864C1130.55,917.706 1140.33,915.643 1142.26,908.439C1146.1,894.02 1147.44,851.658 1147.44,835.35C1147.44,826.917 1143.81,818.877 1142.26,810.589C1140.68,802.193 1140.15,789.244 1137.98,784.975C1136.65,782.372 1131.63,786.615 1129.21,784.975C1124.37,781.695 1113.15,772.434 1108.95,765.295C1104.95,758.495 1104.72,750.004 1104.02,742.145C1103.2,732.975 1102.33,717.828 1104.02,710.276C1105.24,704.802 1109.94,699.075 1114.14,696.834C1118.34,694.594 1128.1,701.732 1129.21,696.834C1131.72,685.803 1126.17,648.929 1129.21,630.644C1131.79,615.128 1141.41,599.032 1147.44,587.123C1152.45,577.246 1157.57,566.763 1165.43,559.191C1173.28,551.618 1183.91,545.565 1194.55,541.688C1208.31,536.676 1229.76,527.493 1247.99,529.115Z"/>
        </g>
    </g>
</svg>
